<?xml version="1.0" encoding="utf-8"?>
<!-- Generator: Adobe Illustrator 19.1.0, SVG Export Plug-In . SVG Version: 6.00 Build 0)  -->
<!DOCTYPE svg PUBLIC "-//W3C//DTD SVG 1.1//EN" "http://www.w3.org/Graphics/SVG/1.1/DTD/svg11.dtd">
<svg version="1.1" id="Layer_1" xmlns="http://www.w3.org/2000/svg" xmlns:xlink="http://www.w3.org/1999/xlink" x="0px" y="0px"
	 viewBox="0 0 77.4 100" style="enable-background:new 0 0 77.4 100;" xml:space="preserve">
<style type="text/css">
	.st0{fill:none;stroke:#FFFFFF;stroke-width:2;stroke-miterlimit:10;stroke-opacity:0.7;}
	.st1{fill:#0971CE;}
	.st2{fill:#42B5DA;}
	.st3{fill:#F7CB34;}
	.st4{fill:#17B0AB;}
	.st5{fill:#EF3E5A;}
</style>
<g id="Layer_7">
	<line class="st0" x1="26.9" y1="22" x2="9.3" y2="40.3"/>
	<line class="st0" x1="7.4" y1="49.4" x2="13.1" y2="64.1"/>
	<line class="st0" x1="20.8" y1="75.2" x2="33.1" y2="84.3"/>
	<line class="st0" x1="41.3" y1="22" x2="51.1" y2="39.1"/>
	<line class="st0" x1="42.8" y1="48" x2="9.6" y2="44.7"/>
	<line class="st0" x1="43.9" y1="56.9" x2="21.7" y2="68.6"/>
	<line class="st0" x1="51.4" y1="63.9" x2="43.9" y2="81.1"/>
</g>
<g id="Layer_8">
	<g>
		<path class="st1" d="M57.5,37.8c6.5,0,11.9,5.3,11.9,11.9s-5.3,11.9-11.9,11.9s-11.9-5.3-11.9-11.9S51,37.8,57.5,37.8 M57.5,29.8
			c-11,0-19.9,8.9-19.9,19.9s8.9,19.9,19.9,19.9s19.9-8.9,19.9-19.9S68.5,29.8,57.5,29.8L57.5,29.8z"/>
	</g>
</g>
<g id="Layer_3">
	<g>
		<path class="st2" d="M35.8,4c4.9,0,8.8,4,8.8,8.8s-4,8.8-8.8,8.8s-8.8-4-8.8-8.8S31,4,35.8,4 M35.8,0C28.8,0,23,5.7,23,12.8
			s5.7,12.8,12.8,12.8s12.8-5.7,12.8-12.8S42.9,0,35.8,0L35.8,0z"/>
	</g>
</g>
<g id="Layer_4">
	<g>
		<path class="st3" d="M40.2,83.2c3.5,0,6.4,2.9,6.4,6.4S43.7,96,40.2,96s-6.4-2.9-6.4-6.4S36.7,83.2,40.2,83.2 M40.2,79.2
			c-5.8,0-10.4,4.7-10.4,10.4S34.4,100,40.2,100s10.4-4.7,10.4-10.4S45.9,79.2,40.2,79.2L40.2,79.2z"/>
	</g>
</g>
<g id="Layer_5">
	<g>
		<path class="st4" d="M5.5,41.3c1.6,0,3,1.3,3,3s-1.3,3-3,3s-3-1.3-3-3S3.8,41.3,5.5,41.3 M5.5,38.8c-3,0-5.5,2.4-5.5,5.5
			c0,3,2.4,5.5,5.5,5.5s5.5-2.4,5.5-5.5C10.9,41.2,8.5,38.8,5.5,38.8L5.5,38.8z"/>
	</g>
</g>
<g id="Layer_6">
	<g>
		<path class="st5" d="M16,66.6c2.8,0,5.1,2.3,5.1,5.1s-2.3,5.1-5.1,5.1s-5.1-2.3-5.1-5.1S13.2,66.6,16,66.6 M16,63.6
			c-4.4,0-8.1,3.6-8.1,8.1s3.6,8.1,8.1,8.1s8.1-3.6,8.1-8.1S20.4,63.6,16,63.6L16,63.6z"/>
	</g>
</g>
</svg>
