<?xml version="1.0" encoding="utf-8"?>
<!-- Generator: Adobe Illustrator 19.1.0, SVG Export Plug-In . SVG Version: 6.00 Build 0)  -->
<!DOCTYPE svg PUBLIC "-//W3C//DTD SVG 1.1//EN" "http://www.w3.org/Graphics/SVG/1.1/DTD/svg11.dtd">
<svg version="1.1" id="Layer_1" xmlns="http://www.w3.org/2000/svg" xmlns:xlink="http://www.w3.org/1999/xlink" x="0px" y="0px"
	 viewBox="0 0 308 124" style="enable-background:new 0 0 308 124;" xml:space="preserve">
<style type="text/css">
	.st0{opacity:0.5;fill:#939598;stroke:#939598;stroke-miterlimit:10;}
	.st1{fill:#0CA7D4;stroke:#09A7D4;stroke-miterlimit:10;}
	.st2{fill:#F7C315;stroke:#F6C319;stroke-miterlimit:10;}
	.st3{fill:#ED1942;stroke:#EC1D44;stroke-miterlimit:10;}
	.st4{fill:#85BD41;stroke:#85BD3C;stroke-miterlimit:10;}
	.st5{fill:#FFFFFF;stroke:#FFFFFF;stroke-miterlimit:10;}
</style>
<g>
	<g>
		<path class="st0" d="M59,69.9L27.8,85.3l-2,1c0.1,0.2,0.2,0.4,0.3,0.6l2-1l31.3-15.5C59.3,70.2,59.2,70,59,69.9z"/>
		<path class="st0" d="M63.9,47.2L53.7,29.1l-2.4-4.2c-0.2,0.1-0.4,0.2-0.6,0.3l2.4,4.2l10.1,18C63.4,47.4,63.6,47.3,63.9,47.2z"/>
		<path class="st0" d="M56.3,59.2l-44.5-4.1L10.3,55c0,0.2,0,0.5-0.1,0.7l1.5,0.1l44.5,4.1C56.2,59.7,56.3,59.4,56.3,59.2z"/>
		<path class="st0" d="M9.4,52.6l1-1.1l23.5-24.2l3.4-3.5c-0.1-0.1-0.3-0.3-0.4-0.4l-0.1-0.1l-3.4,3.5L9.9,51l-1,1.1
			c0.1,0.1,0.2,0.2,0.3,0.3C9.2,52.4,9.3,52.5,9.4,52.6z"/>
		<path class="st0" d="M8.9,59.7l-0.6-1.4c-0.2,0.1-0.4,0.2-0.6,0.3l0.6,1.4L17.6,82l0.9,2.1c0.2-0.1,0.4-0.2,0.6-0.3l-0.9-2.1
			L8.9,59.7z"/>
		<path class="st0" d="M54.8,102.5l0.8-1.9l10.7-24.5c-0.2,0-0.5-0.1-0.7-0.1L55,100.3l-0.9,2C54.3,102.4,54.6,102.4,54.8,102.5z"/>
		<path class="st0" d="M27.4,93.5l-1.8-1.3c-0.1,0.2-0.3,0.4-0.4,0.5l1.8,1.4l13.1,10l3,2.3c0.1-0.2,0.3-0.4,0.4-0.6l-3-2.3
			L27.4,93.5z"/>
		<path class="st1" d="M59.9,15.9c0-3.7-1.4-7.5-4.3-10.3c-5.7-5.7-14.9-5.7-20.6,0c-0.1,0.1-0.2,0.2-0.3,0.3
			c-5.4,5.7-5.3,14.7,0.3,20.3c5.6,5.6,14.6,5.7,20.3,0.3c0.1-0.1,0.2-0.2,0.3-0.3C58.5,23.3,59.9,19.6,59.9,15.9z M52.3,23.5
			c-4.1,3.8-10.4,3.7-14.4-0.3c-4-4-4.1-10.3-0.3-14.4c0.1-0.1,0.2-0.2,0.3-0.3c4.1-4.1,10.6-4.1,14.7,0c4.1,4.1,4.1,10.6,0,14.7
			C52.6,23.3,52.5,23.4,52.3,23.5z"/>
		<path class="st2" d="M62.5,111c0-3-1.1-6-3.4-8.3c-4.6-4.6-12-4.6-16.6,0c-0.1,0.1-0.2,0.2-0.2,0.3c-4.3,4.6-4.3,11.8,0.2,16.3
			c4.5,4.5,11.7,4.6,16.3,0.2c0.1-0.1,0.2-0.2,0.2-0.2C61.3,117,62.5,114,62.5,111z M56.4,117.1c-3.3,3-8.4,3-11.6-0.2
			c-3.2-3.2-3.3-8.3-0.2-11.6c0.1-0.1,0.2-0.2,0.2-0.3c3.3-3.3,8.6-3.3,11.8,0c3.3,3.3,3.3,8.6,0,11.8C56.6,117,56.5,117,56.4,117.1
			z"/>
		<path class="st3" d="M28.8,89.1c0-2-0.8-4-2.3-5.6c-3.1-3.1-8-3.1-11.1,0c-0.1,0.1-0.1,0.1-0.2,0.2c-2.9,3.1-2.8,7.9,0.2,10.9
			c3,3,7.8,3.1,10.9,0.2c0.1,0,0.1-0.1,0.2-0.2C28,93.1,28.8,91.1,28.8,89.1z M24.7,93.2c-2.2,2-5.6,2-7.7-0.2
			c-2.1-2.1-2.2-5.6-0.2-7.7c0.1-0.1,0.1-0.1,0.2-0.2c2.2-2.2,5.7-2.2,7.9,0c2.2,2.2,2.2,5.7,0,7.9C24.9,93.1,24.8,93.1,24.7,93.2z"
			/>
		<path class="st4" d="M11.8,55c0-1.3-0.5-2.7-1.5-3.7c-2-2-5.4-2-7.4,0c0,0-0.1,0.1-0.1,0.1c-1.9,2-1.9,5.3,0.1,7.3
			c2,2,5.2,2,7.3,0.1c0,0,0.1-0.1,0.1-0.1C11.3,57.7,11.8,56.3,11.8,55z M9.1,57.7c-1.5,1.3-3.7,1.3-5.2-0.1
			c-1.4-1.4-1.5-3.7-0.1-5.2c0,0,0.1-0.1,0.1-0.1c1.5-1.5,3.8-1.5,5.3,0c1.5,1.5,1.5,3.8,0,5.3C9.1,57.7,9.1,57.7,9.1,57.7z"/>
	</g>
	<g>
		<path class="st5" d="M151.3,39.3c-6.4,0-11.8,3.8-15.2,6.4c-1.1-2.3-3.5-6.4-10.4-6.4c-6.5,0-11.4,3.9-13.3,5.7v-4.4h-10.9v42.7
			h10.9V53.5c1.3-1.7,5.2-4.6,8.8-4.6c4.1,0,6.5,2.1,6.5,7v27.3h10.9V53.4c1.8-1.9,5.3-4.5,9.4-4.5c4,0,5.9,2.5,5.9,7.4v26.9h10.9
			V54.5C164.9,44.1,160.1,39.3,151.3,39.3z"/>
		<path class="st5" d="M193.7,39.3c-13.3,0-22.8,9.7-22.8,22.7c0,13.7,9.5,22.5,23.6,22.5c9.5,0,16-3.3,18.3-5.3l-3.2-7.6
			c-1.6,1.5-6.2,4.2-12.7,4.2c-6.7,0-13.9-1.8-15-9.8h32.5v-4.2C214.4,49.8,207.6,39.3,193.7,39.3z M182,57.9
			c1.3-6.3,5.6-10,11.9-10c5.9,0,9.6,4.6,9.7,10H182z"/>
		<path class="st5" d="M251.5,41.8c-2.7-1.8-6-2.5-9-2.5c-13.1,0-22.4,9.5-22.4,23.1c0,14.5,11.5,22.1,23.6,22.1
			c6.1,0,12.8-1.5,18.8-5.2V14.8h-10.9V41.8z M251.5,73.7c-2.4,1.5-5.5,1.8-7.9,1.8c-6.4,0-12-5.2-12-13.1c0-8.3,4.3-14,11.2-14
			c3.2,0,6.8,1.3,8.7,3.3V73.7z"/>
		<path class="st5" d="M288.7,39.3c-6.8,0-12.1,1.8-15.9,3.6l3.2,7.7c1.7-0.8,6.4-2.5,11.9-2.5c5.8,0,8.4,2.4,8.4,5.9v4.3
			c-2.4-1.8-7.8-2.8-10.7-2.8c-8,0-17.4,3.7-17.4,13.5c0,8.3,6,15.5,19.1,15.5c9.9,0,16.1-2.7,19.4-5.3V56.6
			C306.7,46.1,302.9,39.3,288.7,39.3z M296.2,74.7c-1.9,1.1-4.8,1.8-8.1,1.8c-5.3,0-8.7-2.8-8.7-7.3c0-3.8,3.8-5.8,7.9-5.8
			c3.5,0,7.1,1.6,8.9,3.1V74.7z"/>
		<path class="st5" d="M72.1,39.4c-13.3,0-23.4,10.1-23.4,22.7c0,12.5,10.1,22.5,23.1,22.5c13,0,23.1-10.1,23.1-22.5
			C95,49.8,85.1,39.4,72.1,39.4z M81.8,72c-0.1,0.1-0.2,0.2-0.3,0.3C76,77.5,67.3,77.4,61.9,72c-5.4-5.4-5.5-14.1-0.3-19.6
			c0.1-0.1,0.2-0.2,0.3-0.3c5.5-5.5,14.4-5.5,19.9,0c2.7,2.7,4.1,6.4,4.1,10C85.9,65.6,84.6,69.2,81.8,72z"/>
	</g>
</g>
</svg>
