<?xml version="1.0" encoding="UTF-8" standalone="no"?>
<!-- Created with Inkscape (http://www.inkscape.org/) -->

<svg
   xmlns:dc="http://purl.org/dc/elements/1.1/"
   xmlns:cc="http://creativecommons.org/ns#"
   xmlns:rdf="http://www.w3.org/1999/02/22-rdf-syntax-ns#"
   xmlns:svg="http://www.w3.org/2000/svg"
   xmlns="http://www.w3.org/2000/svg"
   xmlns:sodipodi="http://sodipodi.sourceforge.net/DTD/sodipodi-0.dtd"
   xmlns:inkscape="http://www.inkscape.org/namespaces/inkscape"
   id="svg3511"
   version="1.1"
   inkscape:version="0.91 r13725"
   width="686"
   height="680"
   sodipodi:docname="KraftyNook_SuperMarioBros_Bowser~.svg">
  <metadata
     id="metadata3517">
    <rdf:RDF>
      <cc:Work
         rdf:about="">
        <dc:format>image/svg+xml</dc:format>
        <dc:type
           rdf:resource="http://purl.org/dc/dcmitype/StillImage" />
        <dc:title></dc:title>
      </cc:Work>
    </rdf:RDF>
  </metadata>
  <defs
     id="defs3515">
    <inkscape:path-effect
       effect="spiro"
       id="path-effect3714"
       is_visible="true" />
    <inkscape:path-effect
       effect="spiro"
       id="path-effect3709"
       is_visible="true" />
  </defs>
  <sodipodi:namedview
     pagecolor="#ffffff"
     bordercolor="#666666"
     borderopacity="1"
     objecttolerance="10"
     gridtolerance="10"
     guidetolerance="10"
     inkscape:pageopacity="0"
     inkscape:pageshadow="2"
     inkscape:window-width="1280"
     inkscape:window-height="715"
     id="namedview3513"
     showgrid="false"
     inkscape:zoom="0.41848102"
     inkscape:cx="285.89746"
     inkscape:cy="402.41802"
     inkscape:window-x="0"
     inkscape:window-y="0"
     inkscape:window-maximized="1"
     inkscape:current-layer="svg3511" />
  <g
     id="g3355">
    <path
       id="path3693"
       d="m 359.25,672.55847 c -1.2375,-0.49742 -2.30625,-1.59389 -2.375,-2.43662 -0.38236,-4.68692 0.28283,-4.51183 -12.00396,-3.15956 -5.96779,0.6568 -8.82443,0.4921 -13.11918,-0.75642 -6.16398,-1.79192 -8.14089,-3.59029 -8.20679,-7.46563 -0.0427,-2.51101 -0.33474,-2.6632 -5.54507,-2.8896 -12.00401,-0.5216 -16.21022,-1.38033 -18.63417,-3.80428 -2.63628,-2.63628 -3.08425,-7.32962 -1.30954,-13.72017 0.57483,-2.06988 0.82484,-4.11988 0.55559,-4.55554 -0.63378,-1.02547 -43.82187,3.2031 -53.61188,5.24916 -9.50693,1.9869 -15.20375,1.92747 -21.46793,-0.22395 -3.71882,-1.27722 -5.10707,-2.30948 -5.5213,-4.10544 -0.53653,-2.32625 -0.85679,-2.40227 -10.53206,-2.5 C 196.29468,632.07746 193,630.90875 193,627.05445 c 0,-2.09544 -0.46966,-2.46482 -3.13398,-2.46482 -5.03564,0 -10.84966,-2.16375 -12.93396,-4.8135 -3.05907,-3.88898 -2.44943,-8.91323 2.22301,-18.3207 6.94907,-13.99123 27.02249,-32.48416 40.6611,-37.45962 5.56065,-2.02857 14.12155,-7.45961 14.15804,-8.98187 0.0142,-0.59162 -1.14409,-2.16662 -2.57394,-3.5 -3.8862,-3.62396 -14.35645,-17.78062 -16.66521,-22.53274 -1.89343,-3.89724 -2.33605,-4.19486 -6.88937,-4.63238 -9.79937,-0.94159 -13.71374,-8.96411 -11.8366,-24.25919 l 0.49091,-4 -4.10205,-0.30027 c -3.45047,-0.25257 -4.36264,0.0974 -5.74259,2.2035 -2.77797,4.23972 -10.00495,7.77487 -17.05049,8.34042 -7.61946,0.61161 -12.48684,-0.81937 -17.34561,-5.09951 -1.96305,-1.72928 -5.41196,-3.83546 -7.66423,-4.6804 -3.79623,-1.42417 -4.80296,-1.38127 -13.79719,0.58785 -5.33619,1.16827 -10.51119,2.75532 -11.5,3.52678 -0.98881,0.77146 -4.72284,3.84425 -8.29784,6.82841 -7.76542,6.48203 -19.411924,12.25236 -25.844422,12.80475 C 77.112568,520.99186 71,515.08491 71,506.62175 c 0,-2.92036 -0.16346,-3.03212 -4.4349,-3.03212 -9.982372,0 -13.207682,-4.33779 -12.268367,-16.5 0.297345,-3.85 0.826788,-7.72606 1.176541,-8.61346 0.50134,-1.27202 -0.218515,-1.75009 -3.401578,-2.25908 -2.758678,-0.44114 -4.557434,-1.43916 -5.679058,-3.15097 -4.73873,-7.23222 -1.874064,-24.47494 6.475465,-38.97649 4.371668,-7.59276 19.110577,-22.76587 28.042976,-28.86911 9.044786,-6.18002 24.823591,-13.1788 36.188831,-16.05175 8.52752,-2.15561 9.2668,-2.54601 10.53557,-5.56352 2.08179,-4.95112 1.77398,-5.5213 -3.95556,-7.32738 -18.14772,-5.72057 -28.89744,-22.4068 -27.377989,-42.49743 0.847777,-11.20956 6.693599,-21.17153 15.225649,-25.94631 1.28844,-0.72104 2.02173,-2.83753 2.57481,-7.43165 0.67704,-5.62385 2.00596,-10.53686 4.28498,-15.84154 1.29182,-3.00687 -1.50241,-4.81558 -6.35824,-4.1157 l -4.47088,0.64439 -1.5705,9.5 c -1.83062,11.0735 -3.81222,15.34075 -8.170391,17.59445 -10.655699,5.51027 -27.620553,-5.90186 -39.207701,-26.37473 -2.747801,-4.85498 -3.694432,-5.682 -8.134982,-7.10703 C 31.15715,268.50307 15.524878,250.90594 8.9683502,227.97896 3.0116312,207.1494 4.4953302,181.40607 12.573,165.43552 c 6.418102,-12.68939 16.092683,-23.63546 26.044828,-29.46781 6.473187,-3.79354 17.819,-7.48527 25.323669,-8.23988 5.824143,-0.58563 6.520233,-0.88222 6.216714,-2.64884 -2.085759,-12.14005 -2.304599,-15.1882 -1.277065,-17.78773 1.72126,-4.35456 6.743155,-5.95909 16.097163,-5.14312 l 7.759309,0.67685 0.719583,-4.798532 c 1.31696,-8.782115 4.493929,-17.105587 9.374309,-24.560131 8.04627,-12.290298 16.59291,-18.548968 26.76327,-19.598642 6.94045,-0.716317 9.73496,1.066341 12.09701,7.716865 0.97771,2.75279 2.23452,4.992969 2.79293,4.978176 0.5584,-0.01479 2.14028,-1.880788 3.51528,-4.146653 3.78537,-6.237921 13.74588,-15.920014 20.76282,-20.182473 10.65055,-6.469697 22.43384,-9.607045 36.23718,-9.648292 13.55606,-0.04051 22.62293,-4.025954 32.918,-14.469483 4.68886,-4.756474 8.64386,-7.863445 10.75,-8.4449769 7.38991,-2.040453 16.09246,3.7217169 18.44249,12.2112299 0.6406,2.31415 1.4403,7.974631 1.77712,12.578848 l 0.61239,8.371302 6.0616,1.857132 c 6.63545,2.032947 15.69519,7.515796 21.9384,13.276858 7.46811,6.891367 8.39296,7.152439 24.31824,6.864721 l 14.31824,-0.258684 2.93176,2.931761 c 3.004,3.004005 3.5573,5.492039 3.01463,13.556093 -0.14695,2.183767 -1.12572,5.65334 -2.17503,7.710162 C 338.85853,90.827093 338,92.710114 338,92.954763 c 0,0.244649 1.91553,1.567391 4.25673,2.939428 10.49753,6.151969 19.94261,19.508579 21.39978,30.262169 0.54401,4.01474 1.47303,5.75216 4.98954,9.33135 4.68841,4.77197 7.35114,10.74908 9.96381,22.36605 0.89505,3.97973 2.58649,9.26087 3.75875,11.73587 2.12911,4.49518 2.13865,4.50098 8.90461,5.4106 l 6.77322,0.9106 19.22678,-19.07864 c 31.77718,-31.53234 37.97243,-35.83119 47.84623,-33.20022 7.16981,1.91047 10.07575,5.56202 11.90346,14.95766 0.74197,3.81422 -0.037,32.26515 -1.37574,50.25 -0.19447,2.6125 0.0735,4.75 0.59559,4.75 0.52204,0 5.51848,-2.71189 11.1032,-6.02642 18.53787,-11.00223 43.77979,-23.00325 50.9756,-24.23584 C 551.00659,161.15452 557,165.33862 557,176.36711 c 0,7.41767 -4.23403,25.9366 -9.53223,41.69238 -2.39875,7.13343 -4.17126,13.15998 -3.9389,13.39234 0.23236,0.23236 5.08198,-0.37619 10.77694,-1.35234 13.23969,-2.26936 21.71694,-1.77656 25.16518,1.46289 6.3438,5.95968 3.53417,18.21216 -9.23324,40.26523 l -5.05877,8.73798 4.3724,6.76202 c 2.40483,3.71911 4.79448,7.25727 5.31034,7.86257 0.51586,0.60531 10.99551,3.0282 23.2881,5.38421 22.85094,4.37964 37.66181,8.49963 43.47863,12.09462 3.92859,2.42801 7.23782,7.48142 7.52663,11.49367 0.51696,7.18164 -0.0645,8.52287 -6.40508,14.77347 -6.66325,6.56871 -11.778,9.82993 -35.64747,22.72917 L 592,369.82684 l 0,3.74864 0,3.74865 8.75,3.25859 c 12.03364,4.48146 21.95711,9.78103 24.15093,12.89766 6.59588,9.37035 2.13227,17.63772 -13.65093,25.28386 -4.5375,2.19819 -8.25,4.11106 -8.25,4.25082 0,0.13977 3.3219,3.67446 7.382,7.85486 8.46935,8.72032 11.618,14.38468 11.618,20.90058 0,7.53579 -4.18254,11.12956 -16.62989,14.2889 -7.99283,2.02872 -26.45626,4.53023 -33.43719,4.53023 -6.93571,0 -7.91814,1.44873 -4.60673,6.79328 1.26315,2.0387 2.83987,5.05764 3.50383,6.70876 0.69962,1.7398 2.77611,3.8421 4.93859,5 7.67793,4.11113 10.40991,17.2562 8.39655,40.40052 -0.65057,7.47859 -1.40566,14.49744 -1.67798,15.59744 -0.33211,1.34154 0.29895,2.56865 1.91677,3.72723 l 2.41189,1.72723 6.68388,-12.95391 c 8.28613,-16.05922 11.32542,-20.29952 17.23718,-24.04865 5.43456,-3.44649 8.54734,-3.68572 12.95877,-0.9959 7.35441,4.48426 9.46651,11.91684 12.85517,45.23788 0.55996,5.50621 0.70051,5.73315 4.2641,6.88533 9.17043,2.96496 16.76916,8.39241 19.77038,14.12113 2.02706,3.86924 1.75932,11.20379 -0.57609,15.78157 -4.51782,8.85565 -19.06157,16.04716 -43.34037,21.4307 -15.47866,3.43221 -27.59846,4.60159 -53.16886,5.13 l -22,0.45462 -0.67593,6.58985 c -1.36378,13.29591 -9.42766,23.66578 -21.24033,27.31434 -12.37505,3.82226 -49.0369,9.29037 -81.08374,12.09362 -14.53539,1.27146 -40.824,3.92289 -49.5,4.99251 -9.52614,1.17442 -26.80869,1.16355 -29.75,-0.0187 z"
       style="fill:#000000" />
    <path
       id="path3691"
       d="M 175.96875 134.75 C 170.58179 134.71181 164.85415 137.54654 160 143.6875 C 157.79337 146.47909 156 149.09037 156 149.46875 C 156 149.84713 156.86822 150.89695 157.9375 151.8125 C 160.31826 153.85097 163 162.48222 163 168.125 C 163 172.78759 161.2861 178.59375 159.90625 178.59375 C 158.60808 178.59375 158.77893 180.96643 160.1875 182.375 C 160.8475 183.035 161.51025 183.59375 161.65625 183.59375 C 161.80224 183.59375 166.56224 180.58931 172.21875 176.9375 C 182.69113 170.17659 187.24485 167.30592 192.375 164.15625 C 195.14561 162.45523 195.21865 162.18926 194.59375 156.75 C 192.99836 142.86347 184.94702 134.81365 175.96875 134.75 z M 309.65625 157.78125 C 307.98762 157.76301 306.27997 157.79848 304.5 157.90625 C 296.05648 158.41746 286 160.90024 286 162.46875 C 286 162.85403 288.21443 164.89211 290.9375 166.96875 C 297.8925 172.2727 307.07239 182.29021 311.28125 189.21875 C 319.18014 202.22173 323.17611 222.1941 321.28125 239.09375 C 320.46287 246.39259 320.55293 248.94433 321.75 252.59375 C 325.89584 265.23282 333.71859 276.56374 342.4375 282.5625 C 346.36885 285.26734 347.39581 285.48682 355.6875 285.5 C 377.60354 285.5348 400.86847 295.44717 416.125 311.25 C 425.42257 320.88048 430.77605 331.40648 432.96875 344.40625 C 433.93824 350.15408 434.78135 352.09701 437.8125 355.46875 C 439.83556 357.71912 441.56129 359.55212 441.625 359.5625 C 441.6887 359.5729 442.27497 354.08161 442.9375 347.34375 C 445.50804 321.20142 439.00782 299.51006 423.625 282.90625 C 417.97941 276.81255 413.63396 273.63248 394.53125 261.59375 C 384.9695 255.56784 377.72214 248.40504 374.25 241.53125 C 373.01676 239.0898 370.8799 232.14375 369.5 226.09375 C 364.45015 203.95332 360.55959 193.32352 353.84375 183.28125 C 348.46659 175.24073 346.53993 173.11565 340.46875 168.59375 C 330.52548 161.18786 321.33666 157.90891 309.65625 157.78125 z M 201.625 236.59375 C 201.26225 236.59375 198.43897 238.66642 195.34375 241.1875 C 192.24854 243.70859 188.19077 246.46296 186.34375 247.34375 C 184.49674 248.22453 183 249.26059 183 249.625 C 183 249.98941 185.67833 252.82878 188.9375 255.9375 C 195.60264 262.29497 198.49503 263.04971 200.125 258.84375 C 201.34102 255.70592 202.62722 236.59375 201.625 236.59375 z M 157.25 263.78125 C 157.1383 263.77559 157.0181 263.81275 156.875 263.875 C 148.30512 267.6028 142.34936 269.73099 136.5 271.15625 C 132.65 272.09434 129.12402 273.2055 128.65625 273.625 C 126.13394 275.88711 145.40164 298.59375 149.84375 298.59375 C 151.14932 298.59375 152.49146 297.54157 153.34375 295.84375 C 155.12778 292.28986 156.69915 283.38167 157.5625 272.1875 C 158.06066 265.72838 158.03191 263.82087 157.25 263.78125 z M 72.125 269.125 C 71.204844 269.08112 70.445335 269.23124 69.65625 269.53125 C 66.464282 270.74484 66.417582 271.03216 69.09375 276.09375 C 74.013329 285.39843 85.618467 297.47965 89.71875 297.5625 C 90.393571 297.5761 91.709519 296.4597 92.625 295.0625 C 93.7599 293.33042 94.443885 289.51229 94.78125 283.0625 L 95.28125 273.59375 L 90.40625 273.59375 C 87.612192 273.59375 82.710534 272.5162 78.90625 271.0625 C 75.615321 269.80497 73.658594 269.19814 72.125 269.125 z M 190.1875 286.84375 C 189.54058 286.89475 188.97884 287.20666 188.4375 287.75 C 187.07679 289.11574 184.68313 297.58364 183.5 305.25 L 182.84375 309.40625 L 188.1875 310.40625 C 191.11518 310.94494 194.14805 311.29728 194.9375 311.21875 C 195.72696 311.14025 197.89735 308.48308 199.75 305.3125 L 203.09375 299.5625 L 198.4375 293.59375 C 194.67477 288.80438 192.12827 286.69076 190.1875 286.84375 z M 277.09375 287.84375 C 276.4897 287.86926 275.85291 287.95536 275.21875 288.0625 C 271.33982 288.71784 271.32173 288.73326 269.5625 295.90625 C 268.59254 299.8611 267.60701 303.64146 267.34375 304.3125 C 266.55824 306.31476 273.05856 309.58964 277.84375 309.59375 C 281.46008 309.59675 282.76719 309.01406 285.59375 306.1875 C 289.61535 302.1659 290.06834 298.02719 287 293.0625 C 284.77872 289.46839 281.32208 287.66516 277.09375 287.84375 z M 130.53125 288.59375 C 128.97459 288.59375 126.62206 295.27789 125.46875 302.96875 C 124.70807 308.04132 125.41879 309.88808 127.84375 309.1875 C 128.75996 308.9228 132.2 308.4076 135.5 308.03125 C 138.8 307.6549 141.84297 307.14165 142.25 306.90625 C 144.12415 305.82236 133.09798 288.59375 130.53125 288.59375 z M 369.21875 303.78125 C 368.27142 303.83901 367.2622 304.08439 365.875 304.5 C 363.56245 305.19286 360.40182 307.03567 358.84375 308.59375 C 353.50549 313.932 356.0013 322.41638 364.125 326.4375 C 369.40823 329.05262 373.36985 329.16599 378 326.84375 C 387.32414 322.16723 385.42935 309.61345 374.75 305.1875 C 372.17192 304.11904 370.79763 303.68499 369.21875 303.78125 z M 296.96875 318.59375 C 288.97411 318.59375 283.20855 331.32419 287.46875 339.5625 C 289.91357 344.29027 293.41592 344.78828 297.84375 341.0625 C 306.05049 334.15698 305.44332 318.59375 296.96875 318.59375 z M 428.0625 355.90625 C 427.28047 355.97598 426.55192 356.33123 425.53125 357 C 422.1022 359.2468 419 365.67916 419 370.59375 C 419 380.07568 425.14974 384.40137 431.5 379.40625 C 439.06311 373.45711 438.64488 359.74428 430.8125 356.5 C 429.66472 356.02458 428.84453 355.83652 428.0625 355.90625 z M 153.875 376 C 152.45783 376.01643 150.82961 376.458 147.8125 377.34375 C 141.6778 379.14476 141.48329 379.28068 141.1875 382.78125 C 140.94877 385.60647 141.37209 386.75033 143.15625 388 C 146.38598 390.2622 154.70674 390.05224 158.6875 387.625 C 162.17263 385.49997 164.43937 382.14683 163.6875 380.1875 C 163.42397 379.50075 161.14691 378.16994 158.65625 377.21875 C 156.49419 376.39306 155.29217 375.98357 153.875 376 z M 440 378.34375 L 436.125 381.875 C 433.9858 383.80764 431.33709 385.65497 430.25 386 C 429.16292 386.34502 426.90532 388.8059 425.25 391.46875 C 422.50152 395.89013 414.60765 402.59375 412.125 402.59375 C 411.56152 402.59375 410.79171 404.28125 410.4375 406.34375 C 408.1868 419.44896 404.50495 429.5274 398.75 438.40625 L 394.65625 444.75 L 400.03125 455.15625 C 412.3981 479.13244 429.96333 496.46937 457.5 511.875 C 483.06003 526.17478 503.83579 531.88723 527.5 531.125 C 535.72399 530.8601 540.01419 530.18995 544.5 528.53125 C 552.30757 525.64427 559.06492 518.9251 561.5 511.59375 C 564.66482 502.06537 562.07756 489.60953 555.0625 480.59375 L 553.125 478.125 L 550.8125 480.28125 C 547.36102 483.51472 543.65996 484.59375 535.875 484.59375 C 527.57576 484.59375 517.98652 481.66763 504.9375 475.125 C 477.01168 461.12329 457.06317 444.5365 449 428.625 C 444.0242 418.806 440.00025 400.29098 440 387.21875 L 440 378.34375 z M 277.3125 391.59375 C 270.50277 391.59375 265 396.94497 265 403.5625 C 265 408.81543 271.78434 411.08326 278.25 408 C 282.02427 406.20018 286 400.99231 286 397.84375 C 286 394.88525 281.41637 391.59375 277.3125 391.59375 z M 188.34375 415.78125 C 185.0935 415.93602 182.84152 417.75906 181.34375 421.34375 C 178.88736 427.22271 181.10254 434.39127 186.25 437.25 C 189.44435 439.02403 189.59131 438.97178 191.96875 435.125 C 193.14412 433.22323 195.46295 430.52352 197.125 429.125 C 199.94525 426.75192 200.07186 426.37183 199.03125 423.21875 C 197.58866 418.84767 195.08451 416.64089 190.75 415.9375 C 189.89289 415.79841 189.09381 415.74553 188.34375 415.78125 z M 335.71875 417.53125 C 333.47182 417.5918 331.19216 418.40694 329.1875 420.09375 C 322.96406 425.33043 324.64825 435.67782 332.34375 439.5625 C 337.64466 442.23839 341.59572 441.58868 345.375 437.4375 C 347.92973 434.63137 348.1825 433.75113 347.75 429.25 C 347.05955 422.06442 341.46089 417.37652 335.71875 417.53125 z M 219.34375 422.8125 C 218.90625 422.80354 218.4656 422.85688 218.0625 422.9375 C 209.62018 424.62596 197.93142 433.51133 195.0625 440.4375 C 192.55917 446.48108 196.55125 448.83453 201.0625 443.96875 C 204.36771 440.40378 216.90895 431.99953 221.90625 430 C 224.15106 429.10181 226 427.75261 226 427 C 226 424.98649 222.40627 422.87522 219.34375 422.8125 z M 95 428.8125 C 94.020405 428.8053 93.135535 429.04568 92.4375 429.625 C 89.432308 432.11909 82.037364 444.38096 80.84375 448.84375 C 78.278723 458.4341 82.298452 460.59407 95.25 456.59375 C 98.807066 455.49508 102.88209 453.68767 104.3125 452.5625 C 107.50426 450.05187 108.66376 444.72966 107.125 439.59375 C 105.40712 433.85999 99.244912 428.8437 95 428.8125 z M 72.90625 431.65625 C 70.755862 431.68088 69.815913 432.51021 67.03125 435.4375 C 62.738891 439.9497 57.55418 449.96637 56.46875 455.84375 C 55.966705 458.56222 56.222265 460.28676 57.40625 462.09375 C 59.563814 465.38661 63.731889 465.37229 70.96875 462.03125 L 76.53125 459.46875 L 76.59375 453.625 C 76.65497 449.1189 77.406313 446.32343 79.875 441.5 C 83.667611 434.08982 83.035222 432.68603 75.5625 431.84375 C 74.462993 431.71982 73.623046 431.64804 72.90625 431.65625 z M 210.34375 446.59375 C 203.72245 446.59375 194.11236 459.42863 190.59375 472.9375 C 187.79204 483.69398 190.68841 485.72299 202.25 481.09375 C 207.4332 479.0184 209.00504 477.79661 211.40625 474 C 213.00141 471.47785 216.53328 466.7513 219.25 463.5 L 224.1875 457.59375 L 222.28125 454.34375 C 219.75951 450.02594 214.46947 446.59375 210.34375 446.59375 z M 78.28125 461.46875 L 74.375 465.90625 C 68.041851 473.14997 64.036223 486.22372 67.1875 489.375 C 68.938057 491.12556 70.84903 490.86246 77 488 C 82.274507 485.54541 92.715063 478.38522 94.25 476.15625 C 95.94704 473.69188 94.962928 468.58205 92.25 465.6875 C 90.069354 463.36087 88.328569 462.63006 83.875 462.125 L 78.28125 461.46875 z M 223.4375 473.5 C 222.11859 473.49724 220.82885 473.72554 219.625 474.1875 C 215.36448 475.82241 209.01308 490.87574 207.5625 502.78125 C 206.23991 513.63634 209.34439 514.88109 222.34375 508.71875 C 227.19062 506.42109 232.42422 502.99899 235.25 500.25 C 239.33577 496.27525 240 495.05538 240 491.65625 C 240 486.55564 238.53543 482.78848 235.1875 479.25 C 231.6805 475.5434 227.39424 473.50829 223.4375 473.5 z M 99.9375 478.0625 C 98.442986 478.13522 96.413057 479.62485 90.6875 484.125 L 82 490.96875 L 82 496.5625 C 82 508.34276 87.455735 509.55608 100.375 500.625 C 109.42953 494.36561 110.40565 491.98694 106.84375 484.8125 C 105.55797 482.22264 103.34157 479.45625 101.9375 478.6875 C 101.17359 478.26925 100.61682 478.02945 99.9375 478.0625 z M 170.03125 478.875 C 167.39919 478.94208 164.58267 479.72773 162.09375 481.5 C 151.73505 488.87605 163.80307 500.18562 174.53125 493.15625 C 175.87764 492.27406 177.70046 490.45708 178.59375 489.09375 C 182.34582 483.36736 176.75763 478.70357 170.03125 478.875 z M 352.0625 480.84375 C 346.42276 481.11336 340.0072 486.66305 340 493.78125 C 339.993 500.83668 348.13257 503.02361 354.28125 497.625 C 358.72732 493.7213 360.75152 487.38692 358.59375 484.09375 C 357.014 481.68274 354.62602 480.7212 352.0625 480.84375 z M 254.34375 502.75 C 251.73817 502.79682 249.1902 503.5954 247.09375 505.3125 C 244.08626 507.77579 240.02256 520.60469 239.3125 529.8125 C 238.38874 541.79167 241.10741 543.32884 251.8125 536.84375 C 255.21712 534.78125 260.22586 531.18295 262.9375 528.84375 C 267.04037 525.30438 267.97942 523.8361 268.53125 520.15625 C 268.91736 517.5815 268.71195 514.25005 268.03125 512.1875 C 266.07286 506.25354 260.07603 502.647 254.34375 502.75 z M 202.625 592.15625 C 199.12891 592.35612 195.59004 595.60053 191.9375 601.96875 C 186.73859 611.03305 188.80081 614.79609 197.9375 612.96875 C 200.31079 612.4941 201.59835 611.33873 203.0625 608.46875 C 204.13927 606.35811 206.42085 603.03901 208.15625 601.0625 L 211.3125 597.46875 L 208.90625 595.09375 C 206.79875 593.01995 204.72265 592.03633 202.625 592.15625 z M 220.59375 597.59375 C 217.18999 597.59375 212.6208 601.67434 207.84375 609 C 200.85967 619.71018 203.17796 622.25721 217.15625 619.28125 C 222.57188 618.12826 223.03473 617.82321 227.0625 611.78125 C 230.78491 606.19736 231.13038 605.18285 230.0625 603.1875 C 228.51432 600.29469 223.9371 597.59375 220.59375 597.59375 z M 241.625 602.59375 C 238.51024 602.59375 233.10872 608.95552 229.46875 616.90625 C 226.7428 622.86051 226.85806 626.12858 229.8125 626.90625 C 233.06468 627.76231 243.51833 627.52548 247.96875 626.5 C 253.33155 625.26429 253.97738 624.44038 253.96875 618.59375 C 253.95555 609.65877 248.50632 602.59375 241.625 602.59375 z M 328.625 617.59375 C 322.7196 617.59375 309.49055 633.38539 310.21875 639.5625 C 310.73057 643.90417 316.04499 645.37163 326.125 643.96875 C 330.19898 643.40176 330.7238 642.94618 333.8125 637.625 C 335.64288 634.47164 338.23038 630.71788 339.5625 629.28125 C 340.89462 627.84462 342 626.29063 342 625.8125 C 342 623.26284 332.77391 617.59375 328.625 617.59375 z M 355.46875 626.59375 C 350.92091 626.59375 350.28402 626.93578 345.5 631.875 C 337.17679 640.46825 333.4457 650.90726 337.75 653.5625 C 338.79705 654.2084 343.47241 654.50512 349.40625 654.3125 C 357.7208 654.04261 359.49877 653.71326 360.40625 652.1875 C 361.0016 651.18655 363.4492 647.26743 365.84375 643.46875 C 371.12158 635.09603 370.94489 632.81039 364.65625 629.125 C 361.63146 627.35236 358.8623 626.59375 355.46875 626.59375 z M 385.15625 632.59375 C 380.66593 632.59375 367.66714 647.50792 366.4375 654.0625 C 364.86185 662.46142 369.44558 663.53899 393 660.40625 C 403.04835 659.06982 405 657.77076 405 652.34375 C 405 642.35632 395.18671 632.59375 385.15625 632.59375 z "
       style="fill:#ffffff" />
    <path
       sodipodi:nodetypes="ccsscccccsssccccssscsssssscssssssssscsssscscssscssscccsssssccccssssssccsssccccsssssccsscscccssssssccccscsssccccsscsscccsssssccssssscccsscssssssccsssscsssssccscscsscsscssscsscccsscccssssscccsscsccccccsssscsssccccssscsscccccsscsccssssscccccccccscsscsssssscccsscccssssscccsssssssssssss"
       inkscape:connector-curvature="0"
       id="path3689"
       d="m 332.5,281.65625 -2.25,2.71875 c -1.23477,1.49638 -2.24727,3.28125 -2.25,3.96875 -0.006,1.51325 -0.11471,1.50335 4.09375,0.15625 1.86957,-0.59844 3.99617,-1.27723 4.71875,-1.5 0.87827,-0.27075 0.38102,-1.21874 -1.5,-2.875 z m -51.9375,44.3125 c -0.10841,0.0153 -0.20943,0.0423 -0.34375,0.0937 -0.76767,0.29458 -2.4886,0.79272 -3.8125,1.125 -3.0228,0.75868 -3.09272,2.57692 -0.15625,4.03125 3.74159,1.85307 4.50723,1.52933 4.9375,-2.15625 0.27772,-2.37885 0.13387,-3.20087 -0.625,-3.09375 z m 67.26172,20.76758 c -0.8076,-0.004 -1.63383,3.3e-4 -2.48047,0.0137 -0.90309,0.0142 -1.82881,0.0296 -2.78125,0.0625 -10.39393,0.35918 -14.24475,0.90363 -18.84375,2.6875 -12.07819,4.68491 -18.46376,12.26142 -19.4375,23 -0.43944,4.84621 -1.09367,6.3938 -3.90625,9.375 -1.85575,1.96699 -3.38034,3.95703 -3.375,4.40625 0.005,0.44921 3.76978,0.87698 8.34375,0.96875 31.91453,0.64034 61.63682,30.6762 63.4375,64.09375 0.27792,5.15758 0.94329,9.25 1.5,9.25 0.54914,0 5.16832,-4.11092 10.28125,-9.125 7.88855,-7.73602 9.18123,-9.43957 8.5,-11.25 -0.47399,-1.25965 -0.24911,-4.31533 0.5625,-7.46875 0.75605,-2.93754 1.11278,-5.77607 0.78125,-6.3125 -0.33154,-0.53643 -0.59375,-2.51772 -0.59375,-4.40625 0,-3.30034 -0.15043,-3.4375 -3.75,-3.4375 -5.93114,0 -8.79523,-5.17801 -7.1875,-13 0.4774,-2.32271 0.22352,-4.44939 -0.71875,-6.34375 -2.33133,-4.68698 0.13074,-18.84773 2.96875,-17.09375 0.5599,0.34604 0.69267,1.37438 0.3125,2.28125 -1.60276,3.82327 -2.33583,10.29347 -1.4375,12.65625 1.32597,3.48757 4.26655,3.16346 8.875,-1 2.13074,-1.925 4.17009,-3.5 4.53125,-3.5 0.36116,0 0.3727,2.8125 0.0312,6.25 -1.09016,10.97967 3.03502,15.56824 7.5,8.34375 1.15598,-1.87042 2.77988,-3.65644 3.59375,-3.96875 3.26191,-1.25172 1.12365,-16.89929 -3.71875,-27.34375 -3.15101,-6.79634 -13.83546,-17.11139 -22.34375,-21.53125 -10.5826,-5.4974 -18.53056,-7.54762 -30.64453,-7.60742 z M 189.125,379.59375 c -2.08898,0 -4.01836,0.20585 -4.28125,0.46875 -0.55766,0.55765 8.29423,10.43919 9.40625,10.5 0.4125,0.0226 0.75,-1.57009 0.75,-3.53125 0,-5.57108 -1.47726,-7.4375 -5.875,-7.4375 z m -50.78125,17.375 c -1.67336,-0.042 -3.85563,0.35427 -7.96875,1.125 -11.22018,2.10247 -25.73406,7.34131 -34.96875,12.625 -11.781884,6.74107 -22.073567,16.875 -17.125,16.875 0.708707,0 2.932076,0.82133 4.9375,1.84375 l 3.65625,1.875 3.8125,-4 c 4.636887,-4.84412 11.9957,-9.71875 14.65625,-9.71875 1.45208,0 0.89611,0.76624 -2.1875,3 -4.715157,3.41564 -5.116421,4.55775 -1.90625,5.53125 6.05042,1.83481 9.75,8.06222 9.75,16.40625 0,3.32731 0.26093,6.0625 0.5625,6.0625 0.30156,0 2.32656,-0.85616 4.5,-1.90625 l 3.9375,-1.90625 0,2.15625 c 0.009,4.92489 7.48304,12.64607 12.25,12.65625 0.9625,0.002 1.75,0.45 1.75,1 0,0.55 -2.28875,1 -5.09375,1 -4.46667,0 -5.52222,-0.42847 -8.5,-3.40625 -1.87,-1.87 -3.40625,-4.12 -3.40625,-5 0,-2.14894 -0.97101,-2.02972 -6.125,0.78125 -2.40677,1.31265 -6.85,3.19474 -9.875,4.15625 -3.025,0.9615 -5.674798,1.85936 -5.875,2.03125 -0.200203,0.17188 0.587297,1.52186 1.75,3 1.162442,1.47813 2.125,4.05283 2.125,5.6875 0,2.45682 0.303416,2.82303 1.75,2.1875 2.29883,-1.00995 9.25,-1.80507 9.25,-1.0625 0,0.31865 -1.38479,1.28867 -3.0625,2.15625 l -3.03125,1.5625 2.9375,2.75 c 2.74528,2.56447 5.14326,8.32792 5.15625,12.40625 0.007,2.12385 -0.12741,2.10277 4.53125,0.15625 2.07658,-0.86765 7.19691,-2.20712 11.375,-3 10.69533,-2.02966 17.37968,-5.55733 22.25,-11.71875 14.42968,-18.25491 16.86033,-40.61131 6.6875,-61.1875 -3.6915,-7.46667 -8.0721,-12.17814 -13.625,-14.6875 -2.04732,-0.92518 -3.20164,-1.39554 -4.875,-1.4375 z m 251.625,2.78125 c -0.56757,-0.0611 -1.71237,0.49923 -4.0625,1.59375 -4.79284,2.23215 -6.20001,6.73665 -3.9375,12.6875 1.27998,3.36661 4.42093,3.32963 7.59375,-0.0937 2.06798,-2.23139 2.35334,-3.24261 1.75,-6.25 -0.39588,-1.97335 -0.75644,-4.60625 -0.78125,-5.84375 -0.027,-1.35028 0.005,-2.03269 -0.5625,-2.09375 z m 14.46875,8.0625 c -0.48184,0.0572 -1.73431,1.15207 -3,2.65625 -1.58486,1.8835 -3.57027,3.125 -5,3.125 -1.93465,0 -2.56098,0.75379 -3.46875,4.125 -1.24423,4.62071 -0.6088,8.875 1.34375,8.875 0.70662,0 2.77293,-1.52864 4.5625,-3.375 3.04325,-3.13984 7.08147,-14.01228 5.71875,-15.375 -0.0356,-0.0356 -0.0874,-0.0394 -0.15625,-0.0312 z m -149.13672,10.82227 c -1.05613,-0.003 -2.20046,0.005 -3.45703,0.0215 -1.43608,0.0187 -3.01479,0.0559 -4.78125,0.0937 -9.20622,0.19787 -16.33237,0.79707 -17.46875,1.46875 -1.78761,1.05659 -1.68316,1.25201 1.5,2.90625 2.26518,1.17719 5.18044,1.71891 8.65625,1.5625 2.8875,-0.12993 5.25,-0.0259 5.25,0.25 0,0.27585 -2.5875,1.26861 -5.75,2.1875 -7.32731,2.12902 -20.40425,8.63334 -25.5625,12.71875 l -4,3.15625 4.6875,1.1875 c 7.47059,1.90576 8.7498,3.09207 13.28125,12.21875 0.0904,0.18206 1.18248,-0.18881 2.40625,-0.84375 3.63244,-1.94402 7.59495,-2.81781 8.96875,-1.96875 0.89573,0.55359 0.094,1.3909 -2.625,2.78125 C 231.40615,458.93187 223,466.34716 223,468.1875 c 0,0.92169 1.09653,1.40625 3.15625,1.40625 8.59234,0 18.79813,11.54634 18.84375,21.3125 l 0.0312,3.1875 3.21875,-3.78125 c 5.34575,-6.25814 11.75,-9.64676 11.75,-6.21875 0,0.825 -0.43154,1.5 -0.96875,1.5 -1.11958,0 -9.03125,9.71775 -9.03125,11.09375 0,0.50061 2.22331,0.90625 4.9375,0.90625 11.42321,0 18.34375,6.6883 18.34375,17.71875 l 0,5.25 3.4375,-2.09375 c 1.8839,-1.16431 5.06872,-2.90559 7.09375,-3.875 2.02503,-0.96941 6.3875,-2.35034 9.6875,-3.0625 15.84721,-3.41988 23.81118,-10.70225 27.125,-24.78125 3.98064,-16.91206 -1.73156,-34.18608 -16.125,-48.65625 -8.67836,-8.72461 -17.56601,-13.53219 -31.53125,-17.0625 -7.19182,-1.81805 -10.27503,-2.37377 -17.66797,-2.39648 z m 141.51172,9.52148 c -0.25879,0.0215 -0.5856,0.0955 -0.9375,0.1875 -2.04634,0.53513 -4.875,5.5998 -4.875,8.71875 0,2.62371 1.39299,1.67871 4.25,-2.84375 2.88761,-4.5709 3.37403,-6.21321 1.5625,-6.0625 z m -6.375,23.28125 c -1.33506,0.16575 -4.6019,2.75015 -11.875,9.25 -13.06401,11.67508 -16.57948,17.04218 -14.5,22.0625 2.55444,6.16697 -2.67862,17.99344 -9.34375,21.15625 -4.05711,1.92523 -9.07512,2.16752 -13.5,0.625 -2.43802,-0.8499 -3.71036,-0.7508 -6.25,0.5625 l -3.1875,1.65625 0.40625,10.1875 c 0.43245,10.43029 2.45529,17.19401 7.09375,23.9375 2.50819,3.64645 4.20507,2.34305 6.3125,-4.90625 1.73634,-5.97281 2.85262,-6.73826 3.875,-2.625 0.88464,3.55908 5.6099,11.06068 7.40625,11.75 0.76637,0.29409 2.16509,0.29454 3.09375,0 1.79627,-0.57031 6.03125,-8.16233 6.03125,-10.8125 0,-3.37758 1.94264,-2.46942 5.03125,2.34375 3.63729,5.66823 6.39195,7.96875 9.59375,7.96875 2.68453,0 6.9764,-4.87744 7.875,-8.96875 0.36529,-1.66317 1.30197,-3.03125 2.09375,-3.03125 3.2725,0 -2.69252,12.24047 -6.5625,13.46875 -3.27451,1.02758 -5.34027,0.56199 -8.25,-0.78125 -1.87434,-0.99586 -4.20127,-3.13336 -5.15625,-4.75 -1.05551,-1.78684 -1.8606,-2.73025 -2.5,-2.8125 -0.6394,-0.0823 -1.12982,0.68183 -1.53125,2.28125 -0.33446,1.33261 -1.68224,3.74055 -3.03125,5.34375 -3.34125,3.83681 -5.5164,3.63344 -8.0918,1.41406 -1.15781,-0.99776 -3.45918,-2.73059 -4.59765,-4.66015 -1.13847,-1.92957 -2.36448,-3.49662 -2.72266,-3.48243 -0.7891,0.0313 -4.15039,7.15751 -4.15039,8.79883 0,0.64323 1.62819,2.97029 3.61719,5.17188 4.2557,4.71054 6.12227,4.20135 9.22265,1.45703 4.21999,-3.94534 2.15336,-6.22938 6.81641,-2.01172 1.84983,1.67315 3.95301,4.33912 5.6875,5.09375 4.05619,1.76475 4.03093,1.794 6.59375,-0.28125 1.31845,-1.06761 2.40052,-3.3301 2.71875,-5.75 1.65402,-1.92384 3.57282,-1.77251 3.02734,0.0664 -1.73413,5.84614 -2.80978,7.42856 -4.74609,8.46484 -3.91694,2.09628 -7.83093,1.08994 -12.4375,-3.15625 l -4.46875,-4.09375 -0.9375,2.5 c -0.52493,1.38066 -1.91617,3.16583 -3.0625,3.96875 -2.02814,1.42056 -1.87917,1.62475 4.71875,7.84375 3.72925,3.51508 9.60764,8.63244 13.0625,11.34375 l 6.28125,4.90625 -4.46875,1.6875 c -5.5903,2.12204 -9.76235,4.97777 -16.125,11 -3.51644,3.3283 -6.18831,4.94664 -8.96875,5.4375 -2.17441,0.38388 -5.77441,1.62685 -8,2.75 -5.24062,2.64469 -13.53125,8.69901 -13.53125,9.875 0,0.50316 1.54831,0.90625 3.4375,0.90625 4.55099,0 8.45551,1.54354 11.71875,4.65625 l 2.6875,2.5625 3.3125,-2.5 c 4.63174,-3.45839 6.91889,-4.50408 11.96875,-5.59375 3.44523,-0.74341 3.95908,-0.69447 2.46875,0.21875 -4.97939,3.05121 -9.92482,7.24876 -9.53125,8.09375 0.24089,0.51717 2.28704,1.03043 4.53125,1.125 4.68796,0.19754 8.54859,2.4236 11.5625,6.65625 l 2.09375,2.9375 4.625,-4.53125 c 5.56292,-5.45247 14.12897,-9.61213 19.625,-9.5625 l 4,0.0312 -6,2.8125 c -3.3,1.542 -6.83763,3.73496 -7.875,4.90625 -2.07564,2.3436 -1.86301,2.54598 4.1875,3.59375 9.05741,1.56847 17.2543,12.19776 17.71875,22.9375 0.12277,2.83888 0.27985,5.24083 0.34375,5.34375 0.0639,0.10292 1.5875,-0.0154 3.375,-0.25 1.7875,-0.23471 11.575,-1.13376 21.75,-2 36.80552,-3.13339 79.57187,-9.60846 84.375,-12.78125 7.30021,-4.82227 10.03414,-10.78751 9.9375,-21.65625 -0.10389,-11.68374 -7.36076,-34.1305 -17.9375,-55.34375 l -4.40625,-8.84375 3.375,-4.65625 c 5.01325,-6.92696 8.83939,-13.9246 7.9375,-14.46875 -0.43691,-0.2636 -4.15625,-0.99677 -8.28125,-1.625 -15.66622,-2.38592 -26.84043,-5.49548 -40.65625,-11.34375 -32.13346,-13.60216 -57.88286,-35.77845 -72.75,-62.65625 -2.52545,-4.56568 -4.58533,-8.59193 -4.59375,-8.9375 -0.008,-0.34556 -0.41989,-1.26313 -0.90625,-2.03125 -0.12758,-0.20149 -0.34816,-0.28825 -0.65625,-0.25 z m -156.30859,56.42383 c -4.55036,2.70811 -9.10042,5.43346 -13.62305,8.13281 4.7893,17.35335 10.94389,27.96973 28.09095,39.50476 5.33387,3.58816 8.38362,3.60295 12.37194,4.84485 L 255.90625,561 c -7.14161,0.94737 -15.20145,4.19074 -20.4375,8.1875 -2.46085,1.87841 -5.03601,3.40088 -5.71875,3.40625 -3.70372,0.0291 -23.84967,12.65682 -23.6875,14.84375 0.0271,0.36588 2.09304,1.67766 4.625,2.9375 l 4.625,2.28125 2.59375,-2.3125 c 1.4284,-1.28733 3.37555,-2.91887 4.3125,-3.625 2.29972,-1.73318 10.78125,-4.24403 10.78125,-3.1875 0,0.46407 -1.0125,1.09023 -2.25,1.40625 -2.58425,0.65992 -9.75,6.3338 -9.75,7.71875 0,0.50996 1.15134,0.9375 2.5625,0.9375 3.3977,0 6.44385,1.59359 9.15625,4.8125 l 2.21875,2.625 4,-4.03125 c 5.10257,-5.15358 12.04838,-8.64817 16.3125,-8.21875 l 3.25,0.34375 -5.15625,2.3125 c -2.83339,1.27412 -6.16436,3.39681 -7.40625,4.71875 l -2.25,2.40625 3.40625,1.4375 C 254.04742,602.91302 258,609.85761 258,619.1875 l 0,5.6875 9.75,-0.6875 c 5.3625,-0.37811 16.05,-1.3601 23.75,-2.15625 7.7,-0.79616 15.81536,-1.4364 18.03125,-1.4375 3.63726,-0.002 4.6579,-0.63905 10.5,-6.5625 7.87468,-7.98434 16.13156,-13.65934 24.09375,-16.5625 3.28601,-1.19814 5.62661,-2.51035 5.1875,-2.90625 -0.4391,-0.3959 -3.5125,-1.5362 -6.8125,-2.53125 -8.0691,-2.43308 -29.03128,-11.54423 -39.5,-17.1875 -13.069,-7.04498 -28.00576,-17.55298 -37.4375,-26.3125 -4.70082,-4.36578 -8.89774,-7.92342 -9.3125,-7.90625 -0.41477,0.0172 -2.55,1.14498 -4.75,2.5 -18.30064,10.51538 -18.95018,-27.2578 -17.37109,-35.26367 z M 527,538.40625 c -1.62763,0.0957 -3.19445,1.26019 -4.0625,3.4375 -0.71265,1.7875 -3.16775,6.20356 -5.46875,9.8125 l -4.1875,6.5625 3.34375,6.625 c 4.15943,8.25059 12.78759,29.74087 14.34375,35.75 0.64049,2.47326 1.38613,5.25399 1.65625,6.1875 0.34982,1.20889 1.84037,1.7972 5.1875,2.0625 10.29511,0.816 30.07486,0.70223 44,-0.28125 16.56577,-1.16999 35.36924,-4.05072 42.75,-6.53125 24.4787,-8.22681 28.17384,-18.67889 9.625,-27.21875 l -5.34375,-2.4375 -2.15625,2 c -6.59676,6.02641 -14.82878,6.79909 -24.3125,2.3125 C 596.23334,573.78199 591,568.50463 591,565.21875 c 0,-1.8986 -3.78011,-3.625 -7.90625,-3.625 -1.68209,0 -3.67905,-1.01254 -5.15625,-2.59375 -4.41628,-4.72725 -7.35252,-5.67716 -13.625,-4.375 -13.48439,2.79935 -27.08679,-2.68531 -32.875,-13.28125 -1.12536,-2.06011 -2.80987,-3.0332 -4.4375,-2.9375 z"
       style="fill:#ff7f2a" />
    <path
       sodipodi:nodetypes="sssssssssssccccccscccssssscccsssssssssscssssscccsscscssscccssssssccssccssscssscsccsscsssssccssssccscssccscccccccs"
       inkscape:connector-curvature="0"
       id="path3673"
       d="M 70.25,139.78125 C 65.386201,139.84867 60.965665,140.24181 58,141 c -15.334464,3.92035 -30.376177,18.03322 -35.8125,33.59375 -4.238115,12.13087 -4.672988,14.63801 -4.65625,26 0.037,25.11421 10.354154,47.73124 26.46875,57.96875 7.69149,4.88636 19.374526,7.42558 23,5 1.264433,-0.84596 1.084613,-1.32446 -1.1875,-3.03125 -2.972307,-2.23278 -6.194027,-7.07079 -7.28125,-10.9375 -0.587337,-2.08886 -0.307375,-1.9244 1.75,1 7.790672,11.07385 26.041708,17.44743 49.71875,17.375 11.24177,-0.0344 15.18445,-0.47331 23.59375,-2.65625 22.45436,-5.82885 37.95387,-13.61781 60.6875,-30.46875 l 8.78125,-6.5 6.21875,3.09375 c 5.28068,2.62971 24.48652,18.78497 37.5,31.53125 l 2.25,2.21875 -10.75,7.40625 c -5.92458,4.08343 -13.81883,10.47705 -17.53125,14.1875 -6.44453,6.4411 -15.12694,18.58733 -19.59375,27.4375 l -2.0625,4.125 -5.8125,-1.375 c -3.18544,-0.74927 -15.00625,-2.0863 -26.28125,-3 -27.42588,-2.22254 -42.30601,-0.56993 -51.09375,5.6875 -8.86747,6.31419 -10.14565,23.37785 -2.59375,34.65625 4.4998,6.72024 15.25426,12.28125 23.78125,12.28125 8.4569,0 15.5278,-3.26175 11.90625,-5.5 -1.52521,-0.94263 -3.67425,-5.57698 -4.40625,-9.5 l -0.65625,-3.5 1.65625,3 c 4.16602,7.57804 14.74192,15.03185 25.4375,17.90625 6.42569,1.72688 25.28428,2.03761 33.0625,0.5625 2.94335,-0.55819 7.38078,-1.99116 9.875,-3.1875 6.88234,-3.30109 16.06843,-13.07733 20,-21.28125 2.1292,-4.44298 5.82988,-9.5979 10.09375,-14.125 3.69479,-3.9229 8.59049,-10.32075 10.90625,-14.21875 4.17661,-7.03028 9.37346,-21.26704 10.625,-29.09375 0.56587,-3.53877 0.98533,-4.0625 3.21875,-4.0625 5.48841,0 18.7276,-4.96777 24.9375,-9.34375 6.70298,-4.72344 12.98888,-11.27639 15.53125,-16.21875 4.59916,-8.94076 6.18501,-16.6531 6.1875,-29.9375 0.003,-13.95586 -1.85923,-22.52682 -7.03125,-32.46875 -6.56115,-12.61217 -20.25425,-25.83714 -34,-32.8125 -10.50274,-5.32967 -17.16544,-6.73522 -31.9375,-6.65625 -12.23745,0.0654 -15.13307,0.43214 -23,2.8125 -4.95,1.49775 -13.725,5.11677 -19.5,8.03125 -10.40591,5.25159 -14.61332,7.74625 -30.9375,18.4375 l -8.4375,5.53125 -5.0625,-5.9375 C 136.97728,163.15625 114.94154,147.89752 93.5,142.0625 87.685436,140.48014 78.356332,139.66889 70.25,139.78125 z m 7.6875,20.875 c 1.581125,0.042 3.159653,0.45992 4.6875,1.25 2.740435,1.41713 6.249934,6.12506 5.28125,7.09375 -0.234828,0.23482 -2.303005,-0.0448 -4.59375,-0.65625 -5.494597,-1.4666 -11.136076,0.96359 -16.03125,6.9375 -4.187893,5.11077 -5.762275,5.49888 -4.90625,1.21875 1.91669,-9.58345 8.710959,-16.02566 15.5625,-15.84375 z M 265.15625,331.9375 c -0.23976,-0.007 -0.49449,0.0136 -0.75,0.0312 -1.22644,0.085 -2.7142,0.44138 -5.0625,1.03125 -3.44844,0.86622 -7.07553,1.60265 -8.0625,1.625 -3.53182,0.08 -8.58857,5.66654 -9.9375,10.9375 -2.29113,8.95255 -8.84362,17.57207 -17.59375,23.1875 -2.6125,1.67657 -4.75,3.21983 -4.75,3.4375 0,0.74443 11.49183,0.37364 20.5,-0.65625 14.892,-1.70259 27.17381,-4.68071 37.09375,-9.03125 5.81138,-2.53141 9.01961,0.22894 3.3125,3.46875 -6.76567,2.97844 -19.59878,6.82564 -28.25,8.34375 -6.46524,1.13451 -15.32955,1.62514 -30.0625,1.625 l -20.875,0 0.625,10.0625 c 0.70182,11.22264 3.18028,26.49278 4.5,27.8125 1.15794,1.15794 13.03764,2.67491 16.15625,2.0625 1.375,-0.27001 6.325,-1.10675 11,-1.875 4.675,-0.76826 12.15484,-1.40416 16.625,-1.40625 9.83545,-0.005 10.50243,-0.60627 10.78125,-9.40625 0.16873,-5.32569 0.69347,-7.06001 3.03125,-10.125 3.58706,-4.70288 8.60487,-6.82204 14.53125,-6.1875 2.4907,0.26667 5.25006,0.75817 6.125,1.125 1.07019,0.44871 3.27921,-0.84822 6.75,-3.96875 C 293.68131,381.48009 296,378.99428 296,378.5 c -7.10886,-9.23235 -11.05379,-17.76634 -9.0625,-27.15625 0.77964,-3.45685 0.58815,-3.91581 -4.40625,-9.03125 -3.00436,-3.07718 -7.76241,-6.54768 -11.09375,-8.125 -3.17858,-1.50498 -4.60295,-2.19884 -6.28125,-2.25 z M 316.5,507.875 c -1.79065,0.10555 -3.04621,0.82132 -5.71875,2.625 -2.51569,1.69781 -7.66726,3.81969 -11.4375,4.71875 -3.77024,0.89906 -8.79887,2.30904 -11.1875,3.125 -6.52594,2.22925 -25.40786,15.29663 -24.0625,16.65625 2.60586,2.63345 35.96686,2.73559 54.25,0.15625 9.74322,-1.75848 10.4647,2.34237 3.15625,3.40625 -16.011,3.21261 -42.28564,3.45617 -54.5,0.5 -1.97975,-0.47915 -1.25139,0.5716 3.5,5.0625 7.12359,6.73305 24.74237,20.1935 29,22.15625 2.36663,1.09101 6.94477,1.26652 21.5,0.84375 10.175,-0.29554 20.63222,-0.91175 23.25,-1.375 4.99142,-1.39364 7.10119,2.18058 1.4375,3.34375 -4.15961,0.79587 -13.66669,1.7507 -21.125,2.125 -7.45831,0.3743 -13.56448,0.95242 -13.5625,1.28125 0.002,0.32883 3.93949,2.10499 8.75,3.96875 4.81052,1.86377 10.62698,4.23904 12.90625,5.25 6.0616,2.68858 20.35698,6.75093 23.9375,6.8125 4.45795,-1.90044 9.11867,-3.73969 12.40625,-6.8125 -0.007,-0.34577 -2.59136,-2.875 -5.71875,-5.625 -2.99987,-2.63787 -4.99962,-4.41625 -6.5625,-5.65625 -3.82471,-3.42114 -7.46235,-7.86392 -10.59375,-11.3125 -2.29098,-2.48542 -6.30432,-7.85433 -8.90625,-11.90625 -4.52872,-5.8268 -7.52303,-12.69843 -9.1875,-19.34375 -0.6669,-2.63357 -1.35948,-7.93125 -1.5625,-11.78125 l -0.375,-7 -5.375,-0.84375 c -1.88181,-0.29341 -3.14436,-0.43833 -4.21875,-0.375 z"
       style="fill:#ffccaa" />
    <path
       id="path3671"
       d="M 251.25 66.59375 C 247.45719 66.59375 246 68.238872 246 72.59375 C 246 78.362138 244.00301 87.688252 241.8125 92.0625 C 238.81123 98.055755 235.32567 101.32652 227.1875 105.8125 C 219.03507 110.30633 218 111.87959 218 119.96875 C 218 131.03305 224.6667 141.65431 234.46875 146.21875 C 241.26156 149.3819 245.44298 149.21378 253 145.4375 C 271.16797 136.35886 280.57042 115.2592 275.40625 95.21875 C 271.30786 79.314235 260.57558 66.59375 251.25 66.59375 z M 128.875 67.59375 C 125.15109 67.781224 118.98789 71.792947 114.78125 77.34375 C 107.2632 87.26407 103.2669 100.78383 104.25 113.03125 C 104.70333 118.67878 108.04717 128.59375 109.5 128.59375 C 109.83324 128.59375 111.55231 127.86497 113.3125 126.96875 C 115.07269 126.07254 118.75 123.22769 121.5 120.65625 C 124.25 118.08481 129.3125 114.07785 132.75 111.75 C 136.1875 109.42216 139 107.16375 139 106.71875 C 139 106.27374 138.33712 104.58415 137.53125 102.96875 C 134.90154 97.69736 132.85914 87.671094 132.59375 78.71875 C 132.45065 73.89138 132.02678 69.431343 131.625 68.78125 C 131.09017 67.915877 130.1163 67.531259 128.875 67.59375 z M 459.75 137.59375 C 455.14254 137.59375 449.33301 142.23391 429.15625 162.0625 C 402.74394 188.01905 396.59562 195.40766 395 203.09375 C 392.40426 215.59736 397.93325 228.1684 409.53125 236.15625 C 420.45294 243.6783 432.6351 245.49516 445.46875 241.53125 C 449.66848 240.23408 453.55871 238.17733 455.96875 236 C 459.21178 233.07012 459.94395 231.59476 460.875 226.3125 C 463.05507 213.94394 466.70676 147.50861 465.4375 143.34375 C 464.44416 140.08428 461.98852 137.59375 459.75 137.59375 z M 539.84375 176.09375 C 535.41775 175.96383 526.91379 179.80794 511.28125 188.03125 C 497.19082 195.44335 485.3609 202.21104 482.21875 204.65625 L 479.90625 206.4375 L 486.71875 210.125 C 498.07671 216.28782 512.43747 226.28783 519.65625 233.03125 C 523.41849 236.54574 526.78161 239.11402 527.125 238.75 C 527.4684 238.38598 529.11046 234.49375 530.78125 230.09375 C 536.24824 215.69648 544.04142 188.50341 544.15625 183.40625 C 544.26213 178.70676 543.28619 176.1948 539.84375 176.09375 z M 562.34375 240.75 C 558.53308 240.6174 551.957 242.11629 538.625 245.625 C 512.7498 252.43481 488.91956 260.25356 483.40625 263.75 C 476.52121 268.11636 473.48352 275.27241 473.5 287.09375 C 473.5112 295.10891 473.86161 296.8236 476.6875 302.8125 C 478.52154 306.69939 481.81184 311.41777 484.46875 314 C 495.3644 324.58935 511.94117 328.23718 521.03125 322.03125 C 527.92933 317.32182 541.45869 298.12263 556.90625 271.09375 C 569.27687 249.44864 570.47555 246.0693 567.0625 242.65625 C 565.91104 241.50479 564.63015 240.82956 562.34375 240.75 z M 575.53125 308.59375 C 574.97721 308.5939 574.6201 308.6299 574.5 308.75 C 574.21194 309.03807 574.83695 311.26501 575.90625 313.6875 C 579.58334 322.01799 584.99696 346.49187 585 354.84375 C 585.00076 356.92112 585.47963 358.59375 586.09375 358.59375 C 586.70346 358.59375 592.21596 355.96485 598.34375 352.75 C 625.13816 338.69275 636 331.33527 636 327.25 C 636 323.76296 628.22419 320.33565 609.5625 315.5625 C 593.36286 311.41908 579.40954 308.59267 575.53125 308.59375 z M 522.09375 369.59375 C 513.26542 369.59375 504.88226 375.03905 500.5 383.625 C 491.35463 401.54311 497.2522 426.83638 512.5 435.09375 C 517.20032 437.63918 528.04855 436.4293 544.5 431.5 C 568.99935 424.15932 607.84706 408.50243 610.625 404.84375 C 613.5882 400.94106 610.71409 396.9377 603.1875 394.5 C 601.15936 393.84313 597.7 392.48211 595.5 391.46875 C 593.3 390.45539 586.1 387.75074 579.5 385.46875 C 572.9 383.18676 564.35942 380.26291 560.53125 378.9375 C 548.10321 374.6346 527.39304 369.59375 522.09375 369.59375 z M 582.4375 424.90625 C 582.13356 424.92132 581.82481 424.96704 581.5 425.03125 C 577.37137 425.8474 576.57135 427.01313 574.03125 435.59375 C 572.81014 439.71875 570.27873 446.40379 568.40625 450.46875 C 566.53376 454.53371 565 458.09628 565 458.375 C 565 459.02626 581.94549 457.86031 593.1875 456.4375 C 612.77423 453.95857 612.72455 447.33002 593 431.34375 C 586.52898 426.09914 584.56511 424.80074 582.4375 424.90625 z M 570.6875 499.9375 C 569.98333 499.9519 569.49337 502.44227 569.46875 507 C 569.39305 521.00736 562.14062 530.2445 547.75 534.71875 C 543.76453 535.95789 540.08138 537.34295 539.5625 537.78125 C 538.42061 538.74582 543.36269 544.17313 547.21875 546.1875 C 553.00615 549.21078 559.69534 550.07388 565.25 548.53125 C 569.80077 547.26741 570.49289 546.07826 571.90625 536.90625 C 573.09792 529.17296 573.23764 506.63782 572.125 502.65625 C 571.60401 500.79189 571.11 499.92886 570.6875 499.9375 z M 617.34375 524.90625 C 615.5656 524.90165 612.68357 528.12766 608.1875 535.09375 C 602.81849 543.41234 594.7444 562.18184 595.5 564.5625 C 596.36504 567.28803 601.46996 571.64808 605.625 573.1875 C 611.26602 575.27746 619.39426 574.51144 622.5 571.59375 C 624.73539 569.4937 624.98626 568.451 624.96875 561.65625 C 624.92855 546.06673 621.34001 527.16992 618.03125 525.125 C 617.82031 524.99463 617.59777 524.90691 617.34375 524.90625 z "
       style="fill:#ffd42a" />
    <path
       id="path3643"
       d="M 302.03125 391.59375 C 291.21028 391.59375 289.81109 392.03788 290.59375 395.15625 C 292.00242 400.76882 286.3133 408.88973 278.78125 412.03125 C 276.73641 412.88412 272.27141 413.59375 268.84375 413.59375 C 260.50314 413.59375 262.32292 415.37338 272.03125 416.71875 C 286.99404 418.79227 299.41252 425.09155 309.40625 435.65625 C 326.29225 453.50702 331.38926 477.92588 322.15625 496.84375 C 320.61208 500.00766 319.58682 502.86644 319.90625 503.1875 C 320.88433 504.17059 328.31802 502.58275 331.5 500.71875 C 333.89084 499.31819 334.4216 498.39917 334.15625 496.1875 C 333.01764 486.69729 345.61226 474.47258 354.96875 475.96875 C 358.71902 476.56844 358.81755 476.49631 360.5625 472.34375 C 361.78498 469.43455 362.48674 464.56377 362.78125 456.875 C 363.27392 444.01269 361.49785 436.20248 355.375 424.5 C 345.12953 404.91807 323.52869 391.59375 302.03125 391.59375 z M 335.21875 412.625 C 338.99791 412.76702 342.9802 414.55262 346.5 417.9375 C 354.17803 425.32123 354.77429 434.59909 348.03125 441.6875 C 344.59589 445.29881 343.90238 445.58373 338.90625 445.5625 C 335.30971 445.5472 332.31684 444.8622 329.96875 443.5 C 320.51374 438.01484 318.12399 425.06311 325.09375 417.125 C 327.85836 413.97628 331.43959 412.48298 335.21875 412.625 z "
       style="fill:#808080" />
    <path
       id="path3629"
       d="m 155.72941,483.8793 c 2.87647,-5.54283 9.13016,-8.55935 16.67518,-8.04343 4.9426,0.33796 6.25209,0.83956 8.03756,3.07875 2.71834,3.40912 3.55785,3.37526 3.55785,-0.14349 0,-4.44658 2.85965,-13.12066 6.58233,-19.96592 3.86775,-7.11203 4.01959,-7.66054 1.89499,-6.84525 -0.84837,0.32555 -2.43983,-0.33284 -3.59371,-1.48672 -1.62272,-1.62272 -1.9327,-2.80838 -1.43201,-5.47732 0.51661,-2.75378 0.32385,-3.40629 -1.00629,-3.40629 -2.72284,0 -8.1848,-6.31883 -9.41679,-10.89408 -1.92212,-7.13823 0.76888,-14.91555 6.11797,-17.68167 3.1088,-1.60763 8.45171,-1.57587 12.23858,0.0727 1.76811,0.76974 1.84066,0.45405 1.1694,-5.08816 -0.77151,-6.36991 -1.77311,-8.38713 -7.73541,-15.57907 -4.16424,-5.02306 -12.8327,-11.2931 -17.09026,-12.36168 -2.29895,-0.577 -2.80105,-0.23091 -4.06955,2.80504 -3.72493,8.91501 -17.85351,12.97476 -27.39079,7.87057 -1.83735,-0.98332 -2.34448,-0.87016 -3.19129,0.71212 -1.28553,2.40204 -0.50206,3.14189 3.3395,3.15358 4.59824,0.014 13.01256,5.30069 16.49684,10.36492 14.99893,21.80019 12.76496,57.75155 -4.57327,73.59772 -2.93713,2.68437 -5.34024,5.32632 -5.34024,5.87099 0,0.83393 3.95304,2.81177 6.15196,3.07804 0.35858,0.0434 1.51843,-1.5907 2.57745,-3.63138 z"
       style="fill:#808080" />
    <path
       id="path3625"
       d="M 197.71875 103.03125 C 196.43057 103.02804 195.7376 103.2093 195.5 103.59375 C 195.15695 104.14882 195.54565 104.86926 196.375 105.1875 C 197.89838 105.77208 206 115.68691 206 116.96875 C 206 117.34979 205.2125 117.27313 204.25 116.78125 C 202.01491 115.63901 196 114.47449 196 115.1875 C 196 115.48545 197.07464 117.15545 198.40625 118.90625 C 201.35988 122.78972 204.48883 130.61674 205.375 136.375 L 206.03125 140.625 L 202.15625 138.0625 C 197.25077 134.81621 188.20216 131.34795 186.84375 132.1875 C 186.25987 132.54835 187.00131 133.60087 188.5625 134.625 C 193.98835 138.1843 197.64431 145.33575 199.4375 155.84375 C 199.78947 157.90625 200.34478 159.59375 200.65625 159.59375 C 200.96773 159.59375 205.3489 158.06376 210.375 156.1875 C 215.4011 154.31123 221.6375 152.44869 224.25 152.0625 C 226.8625 151.67632 229 151.19325 229 150.96875 C 229 150.74424 226.60881 148.17131 223.6875 145.25 C 215.66342 137.22592 213.57666 132.16069 213.53125 120.59375 C 213.51075 115.36875 213.88388 109.90117 214.34375 108.4375 C 215.15577 105.853 215.02603 105.73437 209.84375 104.75 C 203.67834 103.57889 199.86571 103.03661 197.71875 103.03125 z M 140.34375 114.78125 C 138.76649 114.94301 130.53499 120.94239 125 126.0625 C 121.975 128.86076 117.7 131.75707 115.5 132.5 C 110.54631 134.17284 106 137.30876 106 139.03125 C 106 139.74402 110.1625 142.35452 115.25 144.84375 C 120.3375 147.33298 125.40607 150.06948 126.5 150.90625 C 129.20984 152.97905 130 152.18578 130 147.46875 C 130 143.11024 128.86081 140.32775 125.6875 136.84375 C 123.70574 134.66796 123.70165 134.59425 125.5625 134.625 C 126.62087 134.6425 128.36988 135.3175 129.4375 136.125 C 130.50512 136.93251 131.70244 137.59375 132.09375 137.59375 C 132.48506 137.59375 133.79071 134.33125 135 130.34375 C 136.20929 126.35625 138.05326 121.31421 139.09375 119.15625 C 140.13424 116.99829 140.79506 115.04505 140.5625 114.8125 C 140.51923 114.76923 140.4489 114.77047 140.34375 114.78125 z M 267.8125 141.375 L 265.15625 143.84375 C 263.69296 145.2033 261.2625 147.10304 259.75 148.0625 C 256.41456 150.17833 256.2236 151.55201 259.25 151.65625 C 260.4875 151.69885 263.75 152.579 266.5 153.59375 C 271.39942 155.40163 274 155.96461 274 155.21875 C 274 153.98257 270.67563 145.73502 269.375 143.75 L 267.8125 141.375 z M 392.4375 187.53125 C 384.17866 187.69284 367.44396 189.83008 365.78125 191.4375 C 365.38954 191.81618 366.21705 195.25046 367.625 199.09375 C 370.34512 206.5189 372.31416 213.5633 373.46875 220.0625 C 374.83315 227.74269 379.00497 239.2271 382.125 243.9375 C 384.66899 247.77822 388.65386 250.93842 402.875 260.34375 C 412.56523 266.75252 423.16132 274.51462 426.40625 277.5625 C 436.45415 287.00024 444.04143 300.80013 447.0625 315.09375 C 448.85752 323.58653 448.66485 343.31441 446.5625 362.59375 C 442.56016 399.2968 447.35489 419.74069 464.3125 438.15625 C 475.78843 450.61884 495.73754 464.29268 514 472.21875 C 528.63179 478.56907 537.59612 480.05115 544.375 477.21875 C 551.09684 474.41019 561.65272 457.62534 567.40625 440.625 C 569.35133 434.87777 570.78425 430.03424 570.59375 429.84375 C 570.40325 429.65325 563.55394 431.74056 555.375 434.5 C 524.92716 444.77263 510.86364 444.39807 499.8125 432.9375 C 486.13658 418.75491 486.4055 388.33423 500.34375 372.90625 C 505.45917 367.24409 513.44233 363.58435 520.6875 363.59375 C 528.16039 363.60375 556.61943 370.73229 572.8125 376.65625 C 575.74049 377.7274 578.55299 378.34614 579.0625 378.03125 C 581.04415 376.80652 580.08459 353.20269 577.53125 340.40625 C 574.57588 325.59501 572.41782 319.09141 565.25 303.59375 C 562.37201 297.37119 555.8549 287.59375 554.59375 287.59375 C 553.91933 287.59375 552.30825 289.50625 551 291.84375 C 546.48591 299.90923 537.64701 313.11186 532.28125 319.84375 C 524.80155 329.22778 520.97196 331.12337 509.5 331.03125 C 501.32805 330.96565 499.79392 330.61043 492.71875 327.3125 C 475.26297 319.17589 466.01089 303.04405 467.1875 282.71875 C 467.88189 270.72362 471.32461 264.47077 480.28125 258.96875 C 486.37624 255.22463 508.83388 246.91103 517.75 245.09375 C 519.5375 244.72943 521 243.82759 521 243.09375 C 521 241.28531 507.42906 230.09527 497 223.3125 C 489.22022 218.25274 471.47348 208.59375 469.96875 208.59375 C 469.62134 208.59375 468.83244 212.98125 468.21875 218.34375 C 466.64004 232.13865 465.47862 235.4235 460.5 240.21875 C 449.53001 250.78472 427.99045 252.9323 412.28125 245 C 390.90267 234.20497 382.86134 210.34271 394.5625 192.375 C 395.89799 190.32429 397 188.41179 397 188.125 C 397 187.64805 395.19045 187.47739 392.4375 187.53125 z "
       style="fill:#008000" />
    <path
       id="path3597"
       d="M 355.9375 290.5625 C 347.2596 290.53508 337.96203 291.84031 330.78125 294.3125 C 320.89973 297.7145 311.52955 303.40929 305.125 309.9375 L 300.78125 314.40625 L 303.21875 316 C 308.34719 319.36028 309.45839 327.6316 306 336.875 C 303.74603 342.89928 299.71235 347.3228 295.40625 348.46875 C 292.66572 349.19808 292.49242 349.5422 292.25 355.15625 C 292.04183 359.97732 292.50998 362.09596 294.75 366.5 C 296.26588 369.48032 297.98375 372.07906 298.59375 372.28125 C 299.24328 372.49653 299.97936 370.78353 300.34375 368.125 C 302.02958 355.82552 312.12991 346.87853 328.75 342.96875 C 339.23351 340.50256 358.0699 341.48765 368.5 345.03125 C 388.3906 351.78904 400.89365 362.42201 406.78125 377.59375 C 407.95514 380.61875 409.17616 384.89375 409.5 387.09375 C 410.85286 396.28409 411.10079 397.59375 411.53125 397.59375 C 411.77975 397.59375 413.83207 395.95256 416.0625 393.9375 C 422.13811 388.44855 422.59809 387.07044 419.59375 383.5 C 418.20238 381.84645 416.55334 378.63081 415.9375 376.34375 C 413.71986 368.10806 419.46145 353.52342 425.53125 352 C 427.58609 351.48426 428 350.76157 428 347.65625 C 428 338.76652 421.66261 324.89831 413.4375 315.75 C 404.30302 305.59026 387.10544 296.16363 370.28125 292.09375 C 366.12324 291.0879 361.14424 290.57895 355.9375 290.5625 z M 369.5 300.59375 C 375.70985 300.59375 379.53795 301.8283 382.84375 304.90625 C 386.38262 308.2012 388.15625 312.32776 388.15625 317.21875 C 388.15625 328.4979 376.52658 335.27042 364 331.28125 C 358.75796 329.61189 352.35194 322.70136 351.53125 317.84375 C 350.39473 311.11673 354.57945 304.20734 361.3125 301.65625 C 362.8608 301.06962 366.54661 300.59375 369.5 300.59375 z "
       style="fill:#808080" />
    <path
       id="path3571"
       d="m 269,324.25028 c 13.40555,-4.197 25.82631,-10.92946 30.72734,-16.65521 1.89797,-2.21735 6.36304,-6.10964 9.92239,-8.64953 5.97534,-4.26392 14.46223,-13.45955 17.27804,-18.72095 1.03668,-1.93704 0.61646,-3.0498 -3.43114,-9.08582 -2.53687,-3.78314 -4.86767,-8.15434 -5.17956,-9.71379 -0.73388,-3.6694 -1.76212,-3.58932 -3.35717,0.26146 -2.20198,5.31605 -12.85383,15.05313 -21.37913,19.54312 -7.24643,3.81645 -7.69368,4.22928 -5.72396,5.28343 2.47437,1.32425 6.14319,7.99562 6.14319,11.17078 0,7.63316 -4.7763,13.96072 -12.008,15.90801 -4.33795,1.16809 -7.65992,0.63143 -13.16988,-2.12758 l -3.67789,-1.84163 -1.1153,3.37939 c -0.61341,1.85867 -2.89587,5.92124 -5.07211,9.02794 -4.24008,6.0529 -4.66612,7.04407 -2.70682,6.29725 0.6875,-0.26204 6.425,-2.09664 12.75,-4.07687 z"
       style="fill:#808080" />
    <path
       id="path3561"
       d="M 250.34375 24.59375 C 249.62558 24.59375 246.12482 27.240432 242.5625 30.46875 C 231.92732 40.106777 223.73363 43.081448 204 44.5 C 184.82987 45.878044 175.89987 49.693881 164.0625 61.53125 C 154.92399 70.669761 149 84.511124 149 96.71875 C 149 101.17008 149.21536 101.2664 152.96875 98.59375 C 156.36613 96.174603 165.96783 93.59375 171.5 93.59375 C 173.74389 93.59375 178.17636 94.26875 181.34375 95.09375 C 184.51114 95.91875 190.80183 96.605408 195.3125 96.625 C 199.82317 96.64459 206.2 97.363406 209.5 98.21875 C 219.64543 100.84839 220.51399 100.86386 224.71875 98.71875 C 230.96427 95.532523 234.63737 91.994117 237.4375 86.375 C 239.58017 82.07522 240 79.811515 240 72.96875 C 240 63.774268 240.76664 62.29318 246.46875 60.71875 C 250.44146 59.621833 256.33996 60.706851 261.9375 63.5625 C 266.26821 65.77186 274.31244 74.308754 276.96875 79.53125 C 285.40742 96.122272 285.0194 118.69593 276.0625 132.8125 L 273.0625 137.5625 L 275.625 142.625 C 277.02503 145.41239 278.69651 149.59683 279.375 151.90625 C 280.7855 156.7072 280.19293 156.6113 293.5 154.09375 C 319.60563 149.15485 344.6108 158.46208 357.25 177.84375 C 360.58811 182.9626 361.0221 183.11265 369.03125 181.59375 C 371.95187 181.03986 374.51696 180.42055 374.71875 180.21875 C 374.92055 180.01695 374.19522 178.30436 373.09375 176.4375 C 371.99228 174.57065 369.89579 168.55247 368.4375 163.0625 C 365.48519 151.94804 363.45159 147.43361 359.59375 143.28125 C 355.77279 139.1686 347.23491 135.61658 339.34375 134.875 L 332.5 134.25 L 336 132.8125 C 338.36236 131.84104 341.5745 131.53353 345.875 131.875 L 352.25 132.375 L 351.625 127.96875 C 351.29347 125.54996 350.14047 121.90449 349.0625 119.84375 C 343.62828 109.45519 327.95768 99.377633 319.6875 100.96875 C 317.94028 101.3049 314.5875 101.95708 312.25 102.4375 C 309.9125 102.91793 308 103.21138 308 103.0625 C 308 102.91361 310.14555 101.52632 312.75 100 C 320.2108 95.627686 326.83928 88.864139 328.03125 84.4375 C 329.82397 77.779827 328.76594 77.09375 316.8125 77.09375 C 307.68717 77.09375 305.81975 76.765352 300.71875 74.375 C 297.54597 72.888222 291.92097 69.111494 288.21875 65.96875 C 279.7741 58.800246 272.71684 55.517743 262.78125 54.1875 C 256.51984 53.349181 255.08062 52.860371 255.46875 51.625 C 257.25024 45.954666 257.86034 39.107578 256.96875 34.40625 C 255.99018 29.246266 252.84841 24.59375 250.34375 24.59375 z M 172.34375 100.78125 C 171.51365 100.80556 170.65812 100.87788 169.78125 100.96875 C 158.35871 102.15252 149.61383 108.4734 143.96875 119.65625 C 141.2826 124.97748 134 150.42956 134 154.5 C 134 156.13517 136.86908 159.59375 138.21875 159.59375 C 138.7112 159.59375 141.90269 156.76364 145.3125 153.3125 C 148.72231 149.86135 154.34185 143.7826 157.8125 139.8125 C 161.28314 135.84241 166.23314 131.36001 168.8125 129.84375 C 172.93047 127.42303 174.47534 127.10686 181.5 127.1875 C 187.38049 127.255 190.69351 127.8387 193.96875 129.375 C 196.41941 130.52451 198.75475 131.2362 199.1875 130.96875 C 200.47667 130.172 196.46063 123.34848 192.34375 119.375 C 190.23465 117.33935 186.7 114.9255 184.5 114 C 180.99035 112.52355 180.74517 112.2295 182.5 111.53125 C 183.6 111.09355 186.15746 110.6949 188.1875 110.65625 C 193.56933 110.55376 193.60839 109.1641 188.3125 105.65625 C 182.93067 102.09147 178.15444 100.61105 172.34375 100.78125 z M 85.28125 114.0625 C 84.451084 114.06094 83.728828 114.20809 83.125 114.53125 C 81.964623 115.15226 81 116.4419 81 117.40625 C 81 121.6085 90.360261 134.95999 94.46875 136.625 C 97.730479 137.94685 98.325517 137.74624 101.84375 134.125 C 105.97373 129.87411 105.5873 128.2748 98.96875 121.65625 C 94.288084 116.97558 88.878636 114.06926 85.28125 114.0625 z M 209.25 263.75 C 193.90468 263.62732 180.09016 270.23358 170.8125 282.65625 C 164.96857 290.48122 158.85264 304.85842 160.625 306.625 C 161.09811 307.09657 164.425 307.64568 168 307.84375 C 171.575 308.04181 175.26207 308.30028 176.1875 308.40625 C 177.11294 308.51222 178.07972 307.80625 178.34375 306.84375 C 178.60779 305.88125 179.11722 303.29375 179.46875 301.09375 C 180.77152 292.94036 184.28284 283.50317 186.75 281.5625 C 188.98373 279.80545 189.44991 279.77398 192.0625 281.125 C 193.63618 281.93878 196.18551 284.23465 197.71875 286.21875 C 199.25198 288.20285 201.5369 291.11283 202.8125 292.6875 L 205.125 295.53125 L 210.96875 288.8125 C 215.90793 283.10938 226.9868 273.0723 231.25 270.4375 C 233.11486 269.28495 231.22493 267.98769 225 266.15625 C 219.65896 264.58485 214.36511 263.79089 209.25 263.75 z "
       style="fill:#d40000" />
    <path
       sodipodi:nodetypes="ccsccscccccc"
       inkscape:connector-curvature="0"
       id="path3559"
       d="m 180.15625,253.625 -5.75,3.46875 c -3.16166,1.90385 -6.55468,3.74264 -7.5625,4.0625 -1.00782,0.31987 -4.76634,0.97456 -4.78125,1.625 -1.2586,15.2216 -5.07925,40.52253 -10.90625,40.15625 -3.26507,0 -3.65502,0.35919 -2.40625,2.3125 1.97662,3.09179 6.92208,1.85602 8.625,-1.65625 4.55598,-12.54544 7.92578,-22.53878 17.1875,-30.875 2.7104,-2.39789 7.26536,-5.52655 10.125,-6.9375 l 5.21875,-2.5625 -4.875,-4.78125 z"
       style="fill:#550000" />
    <path
       id="path3549"
       d="m 237.91808,265.40872 c 1.75956,-1.09887 1.78042,-1.3496 0.30021,-3.60869 -3.52927,-5.38635 -27.3794,-24.2104 -30.67465,-24.2104 -0.81843,0 -1.29666,2.08605 -1.43282,6.25 -0.11241,3.4375 -0.6226,8.05 -1.13374,10.25 -0.51115,2.2 -0.9401,4.3375 -0.95322,4.75 -0.0131,0.4125 2.34768,0.75 5.24624,0.75 5.51423,0 18.15642,3.07527 22.6235,5.50326 3.23458,1.7581 3.67782,1.78134 6.02448,0.31583 z"
       style="fill:#550000" />
  </g>
  <g
     transform="translate(-14.954086,-219.4653)"
     id="layer1"
     inkscape:label="Layer 1"
     style="fill:#ffffff">
    <path
       sodipodi:nodetypes="cccccccccccccccccccccccccccccccccccccccccccccccccccccccccccccccccccccccccccccccccccccccccccccccccccccccccccccccccccccccccccccccccccccccccccccccccccccccccccc"
       inkscape:connector-curvature="0"
       id="path3014"
       d="m 307.1875,905.71875 c -14.71172,3.2326 -22.31955,18.30825 -29,30.40625 -4.49318,7.45262 -6.22013,17.19447 -14.625,21.25 -17.76798,12.53713 -38.12863,22.31396 -59.3125,27.46875 -0.3142,-4.64999 6.61897,-9.94743 2.8125,-14.34375 -4.61504,-3.16743 -8.625,3.63785 -12.08529,5.76466 -4.75886,3.82132 -11.03967,10.61276 -17.60221,7.95409 -1.45825,-3.41545 3.35251,-6.22842 4.96875,-8.75 6.89968,-7.22275 16.12499,-11.73841 25.71875,-14.0625 3.45541,-2.64846 -0.33029,-8.46633 -4.34375,-6.28125 -25.81695,3.40362 -48.32781,18.63648 -72.625,26.9375 -2.26497,-1.0872 -0.0214,-5.3822 0.3125,-7.3125 0.69983,-4.83164 5.53748,-9.1608 4.46875,-14.0625 -3.21407,-5.06602 -8.56513,0.90827 -12.25,2.15625 -3.12208,1.37389 -6.62086,2.61142 -10.0625,1.875 4.70771,-1.97528 6.88597,-9.9423 1.125,-11.9375 -6.01239,-2.32388 -13.33293,3.59621 -11.71875,10 -14.010472,8.59332 -28.639706,19.44401 -45.65625,19.84375 -3.977455,-0.2357 -9.543485,-3.35825 -10.75,-5.78125 10.041957,-1.90604 22.179135,-5.00562 27.21875,-14.65625 2.262241,-5.309 -4.47016,-8.56583 -8.90625,-7.375 -8.691717,1.27006 -17.056005,5.16909 -24.21875,10.21875 4.806918,-8.62423 8.067377,-18.4849 16.618819,-24.18222 6.854974,-7.48036 16.669092,-12.99465 21.099931,-22.19278 1.624579,-3.59966 0.229384,-9.53363 -4.6875,-8.65625 -13.149714,2.38383 -19.00283,16.15481 -25.720468,26.14628 -5.128464,10.90567 -16.46923,16.78085 -25.531196,24.10028 -6.453101,5.05244 -14.2669788,8.3473 -20.842086,12.97219 -2.55369492,3.45819 2.527214,7.43068 5.5432678,4.69451 C 17.099482,972.73738 26.522343,966.52557 35.3125,959.625 c -4.139619,8.90878 -9.77205,17.12347 -14.78125,25.34375 -0.902765,4.72442 6.033614,5.59731 7.647675,1.53819 3.313282,-1.50474 6.918628,-11.09571 10.172939,-6.97828 6.622204,7.95413 17.740297,13.23821 27.987462,8.98787 14.523745,-3.9432 27.587521,-12.09399 40.379424,-19.51653 5.38263,4.27985 13.55118,2.55565 18.9375,0.78125 -1.63961,5.42026 -5.57267,13.99062 0.125,18.25 8.03523,3.02658 16.46537,-2.8487 23.90625,-5.40625 9.44559,-4.22777 18.6742,-9.05396 28.3125,-12.75 -5.06354,4.26202 -11.68828,12.72609 -5.90625,19.09375 6.41129,6.45541 16.30824,1.32417 22.3125,-3.125 2.86844,-2.86561 2.3499,-0.93577 2.625,1.78125 1.55762,6.42871 10.26403,4.35012 14.75,2.875 18.181,-5.68964 35.68488,-13.61512 51.40625,-24.1875 -3.09137,4.68634 -9.28262,6.85923 -12.84375,11.53125 -9.49825,10.26876 -17.39725,22.45595 -22.03125,35.59375 -1.55256,4.143 3.01827,8.5437 6.84375,5.5 14.08991,-8.5066 21.61969,-24.14295 28.90625,-38.3125 6.12784,8.37994 18.00317,4.00086 25.48818,0.0528 6.54492,-3.31279 13.42004,-7.93069 19.07432,-11.58404 -2.73396,5.77843 -9.05798,13.70543 -4.40625,19.96875 6.59085,4.87066 15.37199,-0.386 21.90625,-2.84375 14.65417,-6.06584 30.86286,-12.91659 44.4375,-19.21875 -2.47395,6.7757 -9.52748,14.05773 -6.40625,21.6875 4.04945,5.50959 12.09614,1.29037 16.6875,-1.4375 3.22197,-1.83266 6.30211,-3.85806 9.28125,-6.03125 -11.26251,22.08054 -23.40224,43.88534 -34.15625,66.12504 -0.42962,4.5933 6.93936,5.0525 7.4375,0.4687 18.20659,-34.6902 46.69445,-65.69557 83.46875,-80.46874 -2.13196,4.89827 -6.4945,9.57251 -6.71875,15 0.92885,4.27254 6.08451,2.99085 8.46875,0.75 12.46683,-6.41835 24.09662,-14.58749 36.90625,-20.03125 3.79065,-0.22644 -0.4504,4.1045 -1.6875,4.875 -4.66637,5.09457 -11.93334,9.64567 -12.90625,16.90625 0.29815,6.46911 8.91037,5.16179 13.0625,3.875 14.87586,-4.41255 29.286,-12.8292 43.125,-18.21875 -4.73844,4.60775 -10.95448,13.33586 -5.5625,19.53125 6.5432,4.49225 15.48917,1.10289 21.96875,-1.9375 4.07073,-1.64561 7.51574,-6.11909 10.59375,-7.84375 11.21459,6.73753 25.03522,1.91412 34.96875,-4.9375 3.3901,-2.00278 7.21329,-4.41192 10.46875,-5.90625 -5.58554,4.91117 -10.65751,15.68604 -3.53125,21.375 7.61339,3.73906 16.78005,-0.96777 23.40625,-5 3.24806,-1.2653 5.36119,-7.06454 9,-4.125 16.42108,5.23772 32.7501,-4.80599 45.02436,-14.84232 4.13191,-3.182 8.29346,-6.35169 12.22564,-9.81393 -5.31916,10.26858 -11.98388,19.90958 -17.03125,30.125 -0.49864,4.09834 5.59569,5.53495 7.0625,1.5625 2.64026,-4.09774 5.67399,-8.46014 9.34375,-11.3125 6.02954,8.65389 16.67474,15.7423 27.59375,12.21875 9.74307,-3.03334 18.52872,-9.03529 27.5,-13.75 3.03709,-3.21437 -1.87192,-7.93085 -5.14998,-5.15782 -10.47537,4.04906 -19.82916,13.90285 -31.66252,12.25157 -4.52303,-1.08295 -7.92613,-4.49532 -10.90625,-7.875 10.54297,0.9282 25.01422,-1.47982 28.09375,-13.25 1.64375,-5.33733 -4.15031,-9.00596 -8.90625,-7.34375 -8.09207,1.79359 -15.53825,6.07461 -22.28125,10.5625 6.46033,-10.0854 10.72311,-22.02292 20.76517,-29.19847 5.39939,-6.31867 14.53688,-10.60261 16.73483,-19.05153 1.34402,-5.33373 -5.26935,-7.1783 -9,-5.03125 -13.99117,6.08419 -15.58213,24.59105 -27.9645,32.73393 -11.22813,9.7133 -23.10104,18.94227 -35.69175,26.64107 -7.06027,3.19202 -15.67731,6.57511 -23.34375,3.71875 4.61718,-4.07491 5.04961,-14.59461 -2.65625,-15.15625 -1.65521,0.0963 -1.70426,-3.97896 -4.5,-3.5 -17.32807,-1.16302 -31.86976,9.46786 -46.15625,17.375 -5.75944,3.13473 -14.28972,4.19517 -19.5625,0.40625 2.58714,-4.27564 4.60926,-12.7884 -1.71875,-14.71875 -2.1181,0.17588 -2.70945,-0.71527 -3.90625,-2.25 -4.5378,-1.78758 -9.71491,1.45843 -14.36936,1.98785 -19.95433,5.19458 -37.49654,16.70318 -56.94314,23.13715 -3.10773,0.2978 5.08662,-5.45088 5.83601,-7.23343 4.00473,-4.01439 10.27987,-11.11952 5.66399,-16.82907 -5.94814,-4.4387 -13.57815,0.87543 -19.375,3.21875 -7.09549,3.53962 -13.97279,7.47982 -20.84375,11.4375 3.43684,-3.71196 6.33395,-12.64463 -0.9375,-13.65625 -9.25883,0.56619 -17.66616,6.18686 -25.71875,10.4375 -13.40765,8.20068 -25.72044,18.23984 -36.71875,29.4375 5.00475,-10.40073 11.39111,-20.42751 15.75,-31 -0.1361,-4.61402 -6.69569,-4.37374 -8.5,-0.75 -7.7552,6.35493 -15.92691,13.37473 -25.25,16.84375 2.35111,-9.9311 8.98736,-18.09989 14.6875,-26.1875 0.87541,-4.38085 -5.28925,-5.86264 -7.78329,-2.64076 -20.72121,10.75501 -42.01504,21.30789 -64.46671,27.60951 -4.29363,0.4375 -0.56402,-5.5534 -0.0312,-7.40625 4.02649,-7.4485 7.49737,-15.69554 14.21875,-21.15625 14.07466,-2.25693 28.94369,-4.0771 41.65625,-10.59375 3.22227,-2.96923 -1.57748,-8.05825 -5,-5.4375 -8.7947,3.12637 -17.9193,5.39223 -27.125,7.1875 7.91717,-7.49231 17.67132,-15.44826 19.5625,-26.75 0.40603,-5.58731 -6.88301,-6.24926 -9.9375,-2.9375 -10.26201,8.83455 -16.82263,21.12247 -24.90625,31.875 -5.39294,1.36656 -11.77239,-1.04688 -16.75,1.46875 -2.9998,3.19893 1.15784,7.81189 5,6.3125 5.248,-0.65652 5.79678,0.33344 1.3125,3.09375 -11.73649,7.42951 -23.00594,17.42722 -37,19.78125 -5.50316,0.80891 -7.70271,-7.08217 -3.90836,-10.46453 2.82449,-6.89552 6.48518,-13.10103 12.76746,-17.33951 10.53865,-10.22531 21.42681,-21.25363 28.7659,-34.10221 2.70467,-4.39887 1.89837,-11.6805 -4.8125,-10.625 z m -2.25,8.4375 c -4.78801,9.13942 -13.17939,16.15209 -19.65625,24.15625 4.76485,-9.24782 9.92958,-19.5758 19.65625,-24.15625 z m -19.65625,24.1875 c -0.0939,0.1896 -0.072,-0.0374 0,0 z m 427.625,23.34375 c -3.33484,4.57409 -9.44699,6.12331 -14.875,6.28125 4.65588,-2.74903 9.62169,-5.13891 14.875,-6.28125 z m -648.0625,0.59375 c -5.208909,4.12625 -11.763358,6.37175 -18.1875,7.34375 5.248273,-3.64473 12.589429,-6.96829 18.1875,-7.34375 z m 556.28125,2.1875 c -2.06625,3.18155 -2.356,7.55272 -0.5,10.90625 -5.66049,4.69743 -12.87332,10.38816 -20.65625,9.21875 -2.13845,-4.41087 3.80988,-8.44302 6.3125,-11.1875 4.30874,-3.77174 9.04266,-7.54355 14.84375,-8.9375 z m -74,0.625 c -1.78715,3.32412 -0.75715,7.6505 0.875,10.46875 -5.18101,5.62811 -13.3514,10.43059 -21.0625,9 0.96405,-6.98696 8.09857,-11.95726 13.40625,-15.9375 2.08156,-1.26782 4.87872,-3.05281 6.78125,-3.53125 z M 253.1875,986.0625 c -4.06513,7.33049 -7.93106,14.7574 -14,20.6875 3.45475,-7.87939 8.80986,-14.65723 14.25,-21.1875 z"
       style="color:#000000;font-style:normal;font-variant:normal;font-weight:normal;font-stretch:normal;font-size:medium;line-height:normal;font-family:Sans;-inkscape-font-specification:Sans;text-indent:0;text-align:start;text-decoration:none;text-decoration-line:none;letter-spacing:normal;word-spacing:normal;text-transform:none;direction:ltr;block-progression:tb;writing-mode:lr-tb;baseline-shift:baseline;text-anchor:start;display:inline;overflow:visible;visibility:visible;fill:#ffffff;fill-opacity:1;stroke:none;stroke-width:4;marker:none;enable-background:accumulate" />
  </g>
</svg>
