<?xml version="1.0" encoding="UTF-8" standalone="no"?>
<!-- Created with Inkscape (http://www.inkscape.org/) -->

<svg
   xmlns:dc="http://purl.org/dc/elements/1.1/"
   xmlns:cc="http://creativecommons.org/ns#"
   xmlns:rdf="http://www.w3.org/1999/02/22-rdf-syntax-ns#"
   xmlns:svg="http://www.w3.org/2000/svg"
   xmlns="http://www.w3.org/2000/svg"
   xmlns:sodipodi="http://sodipodi.sourceforge.net/DTD/sodipodi-0.dtd"
   xmlns:inkscape="http://www.inkscape.org/namespaces/inkscape"
   id="svg3307"
   version="1.1"
   inkscape:version="0.91 r13725"
   width="1654"
   height="1654"
   sodipodi:docname="KraftyNook_SuperMarioBros_Luigi~.svg">
  <metadata
     id="metadata3313">
    <rdf:RDF>
      <cc:Work
         rdf:about="">
        <dc:format>image/svg+xml</dc:format>
        <dc:type
           rdf:resource="http://purl.org/dc/dcmitype/StillImage" />
        <dc:title></dc:title>
      </cc:Work>
    </rdf:RDF>
  </metadata>
  <defs
     id="defs3311">
    <inkscape:path-effect
       effect="spiro"
       id="path-effect3498"
       is_visible="true" />
  </defs>
  <sodipodi:namedview
     pagecolor="#ffffff"
     bordercolor="#666666"
     borderopacity="1"
     objecttolerance="10"
     gridtolerance="10"
     guidetolerance="10"
     inkscape:pageopacity="0"
     inkscape:pageshadow="2"
     inkscape:window-width="1280"
     inkscape:window-height="715"
     id="namedview3309"
     showgrid="false"
     inkscape:zoom="0.12490468"
     inkscape:cx="585.98762"
     inkscape:cy="798.00426"
     inkscape:window-x="0"
     inkscape:window-y="0"
     inkscape:window-maximized="1"
     inkscape:current-layer="svg3307" />
  <g
     id="g9743">
    <path
       id="path3375"
       d="M 853.46875 36.28125 C 849.14885 36.282182 844.11323 36.365137 837.9375 36.5 C 811.22697 37.08329 807.69678 37.491449 797.03125 41.21875 C 763.70424 52.865711 729.6955 77.595847 707.9375 106.03125 C 688.16105 131.87723 665.99923 172.28268 659.09375 195.125 L 655.59375 206.78125 L 625.5 206.8125 C 591.99523 206.82447 585.70319 207.83607 551.1875 218.9375 L 532.25 225.03125 L 528.96875 216.15625 C 527.15469 211.28059 524.16682 205.27285 522.34375 202.78125 C 516.43023 194.69926 503.55653 184.08512 493.96875 179.375 C 465.44464 165.36221 441.74247 166.70756 414.1875 183.90625 L 406.8125 188.5 L 399.1875 182.84375 C 378.86132 167.72027 353.25266 163.75568 330.71875 172.28125 C 319.83242 176.40003 303.27098 187.60694 295.34375 196.1875 C 288.33898 203.76956 280.15625 218.1161 280.15625 222.84375 C 280.15625 224.83541 277.80851 225.25325 266.34375 225.28125 C 255.87464 225.30682 250.79992 226.07035 245.4375 228.4375 C 233.63889 233.64577 222.13522 243.19749 213.84375 254.6875 C 202.97785 269.74506 199.51141 279.57384 198.25 298.84375 L 197.21875 314.78125 L 188.53125 317.4375 C 159.18969 326.35838 142.6875 343.25738 142.6875 364.4375 C 142.6875 375.77085 148.44866 395.43964 155.03125 406.65625 C 157.94767 411.62577 167.92664 422.22127 181.3125 434.59375 C 202.50402 454.18099 203.26429 454.72831 225.3125 465.09375 L 247.78125 475.65625 L 259.625 492.96875 C 273.26971 512.92118 287.23695 527.33558 303.1875 537.875 L 314.375 545.28125 L 316.25 557.09375 C 319.58542 578.13687 329.79141 592.96436 346.65625 601.28125 C 355.73359 605.75774 372.05915 609.55515 382.875 609.71875 L 389.96875 609.84375 L 401.3125 632.4375 C 430.27 690.21966 512.8065 811.28467 549.09375 849.21875 C 557.75372 858.27182 567.3332 868.62722 570.40625 872.21875 L 576 878.75 L 566.6875 888.46875 C 561.55406 893.80936 552.5096 905.0967 546.625 913.5625 C 537.30456 926.971 534.8392 929.46577 527.5 932.96875 C 516.52398 938.20753 509.60644 944.28715 500.125 956.90625 C 489.34049 971.25964 483.29698 982.16323 478.5625 995.90625 C 474.92205 1006.4732 474.49937 1010.0941 474.5 1030.5 C 474.50063 1049.8698 475.01707 1054.5611 477.8125 1061.7188 C 480.94323 1069.7351 480.99177 1071.1503 479.1875 1090.9688 C 476.90622 1116.0249 478.89263 1144.8008 484.84375 1173.5312 C 490.58567 1201.251 497.68004 1218.9186 513.1875 1244.0312 C 525.1471 1263.399 529.33027 1268.5727 550.0625 1289.5312 L 573.4375 1313.1562 L 568.9375 1325.4688 C 563.92351 1339.1741 563.85225 1348.4471 568.65625 1362.0938 C 571.25339 1369.4714 571.25481 1369.5283 567.53125 1372 C 565.4726 1373.3664 558.39201 1379.5358 551.8125 1385.7188 C 541.50864 1395.4019 538.72593 1399.2531 531.625 1413.5625 C 521.42289 1434.1212 518.80495 1443.4642 518.78125 1459.375 C 518.74506 1483.3864 526.06638 1502.2815 545.25 1527.6562 C 551.32405 1535.6907 559.87811 1549.6219 564.28125 1558.5938 C 573.73283 1577.8525 582.02609 1586.1465 600.40625 1594.75 C 618.62098 1603.276 637.4844 1606.4351 671.21875 1606.625 C 696.02531 1606.7646 701.30776 1606.3276 712.5625 1603.3438 C 729.6892 1598.8031 733.28227 1598.9931 746.71875 1605.1562 C 759.41292 1610.9789 775.89596 1616.0741 789 1618.1875 C 801.05393 1620.1316 834.35183 1620.2102 851.34375 1618.3438 C 871.99872 1616.075 886.99751 1611.7009 906.65625 1602.25 C 939.50166 1586.4596 960.29686 1566.2462 976.90625 1533.9062 C 990.57326 1507.2949 997.55379 1488.9695 1001.625 1469.0625 C 1003.6408 1459.206 1008.174 1444.0651 1011.7188 1435.4062 C 1020.6476 1413.5959 1022.7542 1403.7279 1022.7812 1383.0312 C 1022.8146 1357.5491 1018.6007 1345.0901 1004.625 1329.1562 C 1000.6303 1324.602 993.1882 1312.9206 988.0625 1303.1875 C 982.9368 1293.4544 975.46973 1281.9061 971.5 1277.5312 C 961.36789 1266.3658 946.73734 1256.0779 936.5 1252.9375 C 929.76138 1250.8703 926.74993 1248.8806 923.15625 1244.125 C 920.6032 1240.7464 918.5 1236.976 918.5 1235.75 C 918.5 1234.5241 920.73399 1226.8719 923.46875 1218.75 C 928.25663 1204.5297 928.47647 1202.7834 929.1875 1171.6875 C 929.73767 1147.6278 929.27517 1134.2267 927.375 1119.0938 C 923.3468 1087.0142 921.26561 1089.0116 945.75 1101.25 C 966.23195 1111.4878 966.80848 1111.9351 972.21875 1120.9375 C 980.73857 1135.1139 997.67415 1151.6006 1009.5312 1157.2812 C 1019.266 1161.945 1020.1227 1162.0948 1036.0312 1161.4062 L 1052.4375 1160.6875 L 1054.9688 1164.8438 C 1059.0169 1171.5128 1074.5424 1184.6255 1093.0938 1197.0625 C 1118.6619 1214.2035 1125.7976 1221.263 1142.0938 1245.5 C 1158.1707 1269.411 1166.5029 1278.3863 1178.3438 1284.4688 C 1185.6429 1288.2182 1187.8627 1288.5625 1204.5312 1288.5625 C 1221.9658 1288.5625 1223.1822 1288.3369 1233.4062 1283.4375 C 1261.6015 1269.9263 1277.2875 1238.8106 1272.5625 1205.75 C 1270.6241 1192.1876 1269.2621 1188.4279 1261.875 1176.5938 C 1255.7119 1166.72 1256.2099 1164.8293 1265.0312 1164.7812 C 1273.3467 1164.7371 1301.6142 1158.2921 1323.7812 1151.375 C 1356.881 1141.046 1368.062 1134.8864 1387.0625 1116.4062 C 1396.4005 1107.3239 1404.8428 1097.4774 1407.5938 1092.5 C 1412.0669 1084.4062 1412.282 1083.2076 1412.25 1064.8125 C 1412.2196 1047.2602 1411.8264 1044.6999 1407.75 1035.125 L 1403.2812 1024.625 L 1407 1015.125 C 1409.946 1007.5716 1410.6875 1002.6044 1410.6875 990.96875 C 1410.6875 977.59188 1410.2636 975.48092 1405.625 966.3125 C 1402.8327 960.79318 1397.1287 952.89152 1392.9688 948.78125 C 1385.3861 941.28892 1369.336 932.59575 1363.125 932.59375 C 1360.7483 932.59287 1358.9902 930.74753 1356.8438 926.0625 C 1352.6912 916.99882 1342.8014 906.91523 1333.3438 902.125 C 1326.7806 898.80077 1322.9958 898.03085 1311.8125 897.78125 C 1299.8616 897.51451 1297.304 896.96147 1290.4688 892.9375 C 1278.8973 886.12536 1271.8619 884.38172 1259.6875 885.375 C 1243.9962 886.65523 1229.5389 892.20287 1199.2188 908.5625 C 1169.9843 924.33633 1153.7511 931.25486 1137.9062 934.75 C 1120.5422 938.5803 1118.879 938.44292 1109.4062 932.09375 C 1098.4241 924.73287 1088.4614 921.8125 1074.1875 921.8125 C 1061.5813 921.8125 1050.0524 924.66223 1038.9062 930.5 C 1032.6521 933.77562 1030.1579 934.23844 1023.1562 933.46875 C 1011.8542 932.22635 987.11827 923.99606 955.28125 910.875 C 923.62957 897.83036 912.92459 892.67166 893.34375 881.0625 C 871.99308 868.40412 855.06469 860.79584 841.71875 857.90625 C 835.29124 856.51461 830.03125 854.9244 830.03125 854.375 C 830.04721 852.56959 833.3089 841.84375 833.84375 841.84375 C 834.13132 841.84375 837.09868 842.95488 840.4375 844.3125 C 845.08129 846.20076 850.25155 846.63785 862.375 846.15625 C 880.28794 845.44466 885.88483 843.36364 898.21875 832.78125 C 904.76334 827.16618 906.05895 826.62271 909.78125 828 C 917.41955 830.82616 934.33346 829.8006 944.0625 825.90625 C 955.86678 821.18128 967.47311 812.73097 973.15625 804.75 C 977.3265 798.8937 977.75 797.13528 977.75 785.53125 C 977.75 770.91099 976.14437 772.18769 996.71875 770.28125 C 1043.8655 765.91257 1083.3003 737.61047 1105.6875 692.0625 C 1115.3286 672.44693 1116.6445 665.45606 1115.5312 640.125 L 1114.5938 618.875 L 1122.5 614.96875 C 1144.6091 604.06559 1167.2178 570.11123 1177.9062 531.75 C 1182.3934 515.64621 1182.7705 484.45186 1178.6562 469.75 C 1172.173 446.58415 1155.1531 420.48659 1136.4375 405 C 1127.6452 397.72475 1103.9571 382.09375 1101.7188 382.09375 C 1101.0303 382.09375 1100.023 377.42741 1099.5 371.71875 C 1094.2261 314.14822 1074.8897 252.59185 1040.9688 185.46875 C 1017.1582 138.35216 998.906 112.71151 970.15625 85.96875 C 941.94956 59.731024 915.42001 45.512865 882.34375 38.90625 C 872.70758 36.981545 866.42845 36.278453 853.46875 36.28125 z M 582.375 374.40625 C 583.30597 374.40625 589.28547 376.28813 595.65625 378.59375 C 604.07479 381.64045 607.25 383.51769 607.25 385.5 C 607.25 387.36166 606.11399 388.16533 603.6875 388.03125 C 598.72549 387.75694 578.08277 384.96474 577.59375 384.5 C 576.56292 383.52033 580.88138 374.40625 582.375 374.40625 z "
       style="fill:#000000" />
    <path
       id="path3373"
       d="M 981.875 1368.9375 C 980.8351 1368.8994 979.57669 1374.0234 977.53125 1384.9062 C 971.05697 1419.3528 954.32532 1466.6518 939.8125 1491.5312 C 923.79958 1518.9826 899.39534 1543.3115 876.0625 1555.125 C 854.3154 1566.1356 843.04702 1568.4161 810.28125 1568.375 C 782.16115 1568.34 781.66955 1568.2805 768.125 1563.375 C 760.59066 1560.6461 753.96954 1558.4062 753.40625 1558.4062 C 750.99682 1558.4062 759.4563 1567.7348 764.78125 1570.9375 C 774.64238 1576.8686 783.34465 1578.2026 812.78125 1578.3125 C 835.17095 1578.3955 842.84943 1577.8516 852.28125 1575.5 C 867.95746 1571.5915 879.55558 1566.4262 895.84375 1556.0938 C 929.24013 1534.9088 950.79388 1502.9312 963.3125 1456 C 966.21933 1445.1029 971.57941 1428.6967 975.21875 1419.5625 C 982.98947 1400.0596 985.56641 1388.2412 984.1875 1378.125 C 983.36896 1372.1197 982.68381 1368.9671 981.875 1368.9375 z M 722.34375 1544.5938 C 721.34737 1544.5938 713.72069 1546.7825 705.375 1549.4688 C 691.37412 1553.9751 688.18321 1554.388 664.15625 1555 C 636.39419 1555.707 628.48915 1554.7263 612 1548.4375 C 606.77239 1546.4439 602.5 1545.295 602.5 1545.9062 C 602.5 1547.9479 614.28524 1558.0381 619.875 1560.7812 C 629.72712 1565.6165 632.87031 1565.9619 664.90625 1565.5938 C 696.429 1565.2314 696.55255 1565.2319 710.34375 1560.1562 C 723.99433 1555.1324 724.15625 1554.9828 724.15625 1549.8125 C 724.15625 1546.9004 723.35135 1544.5938 722.34375 1544.5938 z "
       style="fill:#aa4400" />
    <path
       id="path3369"
       d="M 963.375 506.8125 C 962.5326 506.80867 958.66336 509.84005 954.40625 513.875 C 944.88973 522.89487 936.41689 527.44668 926.375 528.90625 C 918.04811 530.11655 912.45523 528.35638 904.53125 522 C 893.59284 513.22538 881.57413 517.22435 874.4375 532 C 867.74469 545.85629 871.44425 564.61216 883.4375 577.59375 C 891.5266 586.34954 897.06919 589.51757 907.28125 591.21875 C 917.05832 592.8475 922.0138 591.89737 935.3125 585.875 C 949.67616 579.37035 962.51069 571.38595 971.40625 563.40625 C 977.60497 557.84558 978.28915 556.55735 977.4375 552.25 C 976.12922 545.63185 964.53573 507.88288 963.5 506.875 C 963.47144 506.8472 963.43116 506.81276 963.375 506.8125 z M 511.90625 611.375 C 511.82387 611.37004 511.76895 611.38642 511.75 611.40625 C 511.44678 611.7235 511.58062 615.61553 512.03125 620.0625 C 512.82476 627.89418 513.28425 628.56275 526.78125 641.0625 C 544.72452 657.67999 554.09212 662.28715 571.71875 663.1875 C 586.26696 663.93061 595.25866 661.7851 610.75 653.875 C 621.36339 648.45569 620.21173 648.03668 638.84375 664.1875 C 656.56629 679.54997 679.64302 691.9852 698.75 696.5 C 711.1032 699.41897 732.79891 699.38118 743.21875 696.40625 C 768.53772 689.17752 790.30877 668.61679 796.3125 646.28125 C 799.29644 635.18014 798.44444 627.42237 793.53125 621.34375 C 789.38882 616.2186 784.23597 616.20588 769.3125 621.21875 C 745.71168 629.14622 717.27438 630.01783 671.21875 624.25 C 638.61382 620.16668 638.15059 620.18789 620.40625 625.96875 C 610.86935 629.07575 606.00152 629.64415 589.59375 629.625 C 566.49855 629.5981 556.43487 627.59839 530.9375 617.90625 C 521.33067 614.25451 513.14197 611.44946 511.90625 611.375 z M 901.21875 737.34375 C 897.0185 737.89491 884.38122 747.63536 868.96875 762.5 C 855.11482 775.86162 841.09375 792.97316 841.09375 796.53125 C 841.09375 798.37066 849.97778 802.34035 857.6875 803.9375 C 862.36874 804.90724 871.40302 803.37897 875.40625 800.9375 C 877.33835 799.75909 880.5527 796.02792 882.53125 792.65625 C 884.50963 789.2846 887.18081 786.50652 888.5 786.5 C 889.81903 786.494 893.68608 788.32969 897.0625 790.5625 C 900.43892 792.7953 906.27463 794.95952 910.0625 795.375 C 917.83337 796.2274 929.1693 792.71484 933.4375 788.125 C 936.96118 784.33589 935.67904 781.97917 917.0625 758.09375 C 909.16807 747.96517 902.71875 739.15444 902.71875 738.5 C 902.71875 737.60014 902.18804 737.21656 901.21875 737.34375 z M 891.53125 1270.875 C 890.81185 1270.875 885.2902 1277.6271 879.28125 1285.875 C 862.50643 1308.9 852.56672 1317.0137 824.46875 1330.5938 C 799.35202 1342.7331 779.92133 1349.2812 769.15625 1349.2812 C 764.49714 1349.2812 760.32816 1349.8801 759.875 1350.5938 C 758.23127 1353.1822 762.38003 1363.3454 767.3125 1368.8125 C 775.18354 1377.537 783.9467 1380.5693 800.78125 1380.4062 C 825.03069 1380.1716 836.0275 1375.4156 859.90625 1354.7812 C 866.34135 1349.2204 872.20309 1344.6875 872.9375 1344.6875 C 873.67176 1344.6875 874.25 1346.4903 874.25 1348.7188 C 874.25 1354.6978 849.58566 1378.1966 837.53125 1383.6875 C 832.53432 1385.9636 828.4375 1388.4321 828.4375 1389.1875 C 828.4375 1389.9429 831.11613 1391.401 834.375 1392.4062 C 842.96371 1395.0554 853.31826 1401.1532 861.125 1408.1562 C 869.80488 1415.9425 869.88798 1418.1622 861.28125 1412.875 C 850.42153 1406.2035 839.01009 1401.8691 825.09375 1399.125 C 796.80332 1393.5463 760.20154 1401.1233 741.5 1416.4375 C 723.37486 1431.2799 714.88922 1463.0694 721.90625 1489.7812 C 727.69036 1511.8001 739.3114 1527.9023 756.46875 1537.6875 C 773.89787 1547.6277 780.69373 1549.0374 812.40625 1549.125 C 833.96579 1549.185 843.9081 1548.562 851.125 1546.75 C 887.88073 1537.5216 914.62599 1508.4161 938.21875 1451.9062 C 956.93657 1407.0731 966.47388 1358.469 961.0625 1335.625 C 956.6355 1316.9372 941.32732 1297.6046 924.46875 1289.4062 C 919.17304 1286.831 912.56531 1284.7188 909.78125 1284.7188 C 904.87138 1284.7188 904.67012 1284.9885 902.71875 1293.9375 C 900.86913 1302.4195 897.96875 1306.5336 897.96875 1300.6875 C 897.96875 1295.0929 892.74126 1270.875 891.53125 1270.875 z M 613.96875 1330.9688 C 612.05303 1330.9337 611.96875 1332.1784 611.96875 1336.875 C 611.96875 1353.7128 627.41304 1364.3484 652.15625 1364.5625 C 663.53075 1364.6605 665.76744 1364.1447 676.53125 1358.9688 C 676.85081 1358.815 677.07279 1358.7081 677.375 1358.5625 C 677.375 1358.5625 696.38258 1357.9127 697.15625 1364.7812 C 697.74777 1370.0327 687.05396 1371.8369 683.46875 1372.7812 C 675.81686 1374.7968 674.6784 1377.968 681.09375 1379.4375 C 693.38042 1382.2523 720.79477 1400.7632 717.46875 1404 C 716.93674 1404.5179 709.57324 1401.1035 701.125 1396.4062 C 682.37653 1385.9823 673.47252 1383.9288 653.09375 1385.3438 C 620.24249 1387.6246 600.30783 1394.6869 586.1875 1409.0938 C 574.33107 1421.1907 570.55385 1431.2972 569.6875 1453.0938 C 569.06275 1468.8139 569.35996 1471.0303 573.90625 1484.4375 C 579.75578 1501.6882 582.70794 1506.5975 592.625 1515.625 C 608.94524 1530.4815 630.30699 1536.6901 665.59375 1536.8125 C 687.95723 1536.8905 691.08955 1536.533 703.125 1532.7188 C 710.34617 1530.4299 716.25 1527.8808 716.25 1527.0312 C 716.25 1526.1817 712.69001 1518.1678 708.34375 1509.2188 C 699.41296 1490.8302 696.75587 1477.3475 698.84375 1461.1875 C 702.51912 1432.7391 711.67269 1417.7521 737.8125 1397.5 C 745.93921 1391.2038 752.59375 1385.7055 752.59375 1385.2812 C 752.59375 1384.8572 748.87491 1377.2942 744.3125 1368.4688 L 736 1352.4375 L 723.84375 1352.4062 L 711.65625 1352.375 L 711.4375 1352.5625 L 681.625 1351.6562 L 681.53125 1351.7188 C 678.09253 1350.9369 671.44757 1349.4324 664.125 1347.7812 C 655.8692 1345.9198 642.81797 1341.6547 635.125 1338.3125 C 627.43218 1334.9703 619.08079 1331.8339 616.5625 1331.3438 C 615.44596 1331.1264 614.60732 1330.9803 613.96875 1330.9688 z "
       style="fill:#552200" />
    <path
       id="path3363"
       d="m 766.82128,1312.4095 c 64.80331,-16.4743 108.70263,-68.371 113.17988,-133.7977 0.80883,-11.8212 -1.70267,-56.5104 -3.26329,-58.0662 -0.22247,-0.2218 -3.83401,1.0733 -8.02558,2.8777 -6.68474,2.8777 -9.67595,3.189 -24.34013,2.5341 -19.01913,-0.8492 -28.87979,-3.8436 -44.0202,-13.3667 -19.2228,-12.0912 -37.65636,-34.5355 -47.116,-57.3673 l -4.95727,-11.9652 -0.80061,11.1669 c -1.01993,14.2272 -5.88634,26.5768 -15.18039,38.5237 -8.87012,11.4019 -20.1296,19.9934 -31.83876,24.294 -7.08607,2.6026 -11.46125,3.0975 -23.70084,2.68 -12.73193,-0.4342 -16.44964,-1.1943 -24.49086,-5.0072 -11.74235,-5.5678 -30.30674,-23.2412 -35.65823,-33.9468 -3.53095,-7.0638 -3.84317,-9.4999 -3.84317,-29.9849 0,-21.3833 0.18376,-22.6607 4.48862,-31.1922 5.81761,-11.5298 21.9247,-27.20493 33.77212,-32.8665 8.61936,-4.11896 10.31302,-4.36822 29.68166,-4.36822 18.59679,0 21.28841,0.3566 28.44101,3.76812 10.87947,5.18909 23.16883,17.5997 29.47736,29.768 l 5.28387,10.1921 0.0427,-27.24601 c 0.0679,-42.78185 6.13267,-67.38903 26.95402,-109.36651 6.46243,-13.02867 11.44608,-23.98408 11.07492,-24.34536 -0.37131,-0.36126 -4.76544,-0.15948 -9.7649,0.44841 -9.98706,1.21434 -7.75918,-0.60989 -33.38121,27.33232 -10.89606,11.88274 -13.58879,15.89696 -37.56377,55.99977 -6.69786,11.20338 -14.26285,22.54178 -16.81085,25.19642 -4.27848,4.45727 -5.21482,4.75956 -12.23611,3.9503 -4.18162,-0.48198 -13.59117,-2.28508 -20.90999,-4.00689 -7.31882,-1.72182 -18.63123,-3.85533 -25.13853,-4.74114 -18.74878,-2.55217 -27.62412,-5.57248 -32.31404,-10.99661 -3.30547,-3.82307 -3.95914,-5.80599 -3.16611,-9.60627 2.95786,-14.17556 15.99522,-33.60828 43.36274,-64.6338 17.78305,-20.16008 14.38577,-19.01041 -7.27869,2.46311 -17.67814,17.52242 -34.74922,37.49413 -46.35284,54.2289 l -7.586,10.94035 3.37105,6.10129 c 2.9449,5.33009 3.35983,8.53082 3.28193,25.32234 -0.0774,16.80388 -0.64766,20.86478 -4.53081,32.29138 -7.70562,22.675 -12.24354,29.636 -31.85408,48.8628 l -18.03792,17.6849 0.0158,25.5425 c 0,14.0485 0.72366,31.5784 1.59206,38.9553 6.70434,56.9418 57.44199,123.0103 116.54761,151.7633 13.1072,6.3763 34.80768,13.3669 50.27675,16.1964 18.50119,3.384 55.72241,2.2607 73.31917,-2.2129 z"
       style="fill:#0000ff"
       inkscape:connector-curvature="0" />
    <path
       id="path3361"
       d="M 810.65625 142.375 C 809.27846 142.36737 807.90741 142.38311 806.5 142.4375 C 794.27195 142.91009 791.33746 143.64713 780.34375 148.9375 C 765.28724 156.18291 751.09408 169.39347 741.9375 184.65625 C 732.45148 200.46836 729.81447 209.65687 729.75 227.25 L 729.6875 242.3125 L 741.53125 246.1875 C 757.64371 251.46664 790.15235 266.90868 815 281.09375 C 826.2974 287.54323 836.7033 292.85312 838.09375 292.875 C 839.48404 292.8968 843.5244 290.86 847.09375 288.34375 C 858.94227 279.9908 872.95783 259.99178 879.03125 242.8125 C 881.33766 236.28851 882.15625 229.9193 882.15625 218.40625 C 882.15625 193.29339 876.89245 178.96682 861.90625 163.375 C 848.6563 149.58954 831.32309 142.48945 810.65625 142.375 z M 796.46875 162.15625 C 803.11478 162.20451 827.44347 171.78901 828.15625 175.1875 C 828.44097 176.54524 822.57923 188.79272 815.125 202.40625 C 807.67061 216.01979 801.59375 227.61476 801.59375 228.1875 C 801.59375 228.76026 810.17274 231.9597 820.65625 235.28125 C 831.13977 238.60279 840.44928 242.16995 841.34375 243.21875 C 842.51489 244.59204 840.60984 249.44875 834.5625 260.5625 C 829.94399 269.05008 825.42477 275.93203 824.53125 275.875 C 823.63757 275.8179 807.08593 268.27847 787.75 259.09375 C 768.41407 249.90902 752.59375 242.05141 752.59375 241.65625 C 752.59375 239.4424 793.15856 163.91019 795.03125 162.46875 C 795.21331 162.32861 795.49914 162.22762 795.875 162.1875 C 796.05119 162.16869 796.25436 162.15469 796.46875 162.15625 z M 354.84375 209.875 C 343.07586 209.875 333.53102 214.42964 326.40625 223.5 C 315.78829 237.01743 313.8051 256.67191 320.375 283.0625 C 325.61145 304.0967 328.95797 312.12456 339.46875 329.03125 C 349.51015 345.18292 351.62475 353.92935 345.34375 353.28125 C 333.89828 352.10026 319.4285 335.48335 298.21875 299.1875 C 280.38213 268.66402 277.32999 265.21875 268.09375 265.21875 C 261.91192 265.21875 260.11836 266.07425 253.09375 272.46875 C 241.86033 282.69454 240.65625 285.64322 240.65625 302.8125 C 240.65625 327.42657 247.40926 339.03458 280.03125 370.53125 C 290.52887 380.66675 299.125 390.19426 299.125 391.6875 C 299.125 395.8359 288.70129 395.17158 278.875 390.40625 C 274.35479 388.21414 262.69466 379.46091 252.96875 370.96875 C 234.44597 354.79563 228.55763 351.34375 219.5 351.34375 C 210.74926 351.34375 205.66586 353.98997 196.625 363.3125 C 188.30652 371.89015 188.18009 372.18672 189.0625 379.4375 C 190.182 388.63642 193.16494 392.70878 209.5 407.5 C 220.96288 417.87951 225.54677 420.72407 248.15625 431.46875 C 262.26502 438.17365 276.29478 445.76976 279.34375 448.375 C 282.39274 450.98025 287.16287 457.27762 289.9375 462.34375 C 298.39702 477.78981 324.74872 499.61633 347.8125 510.25 L 358.375 515.09375 L 391.9375 515.59375 L 425.53125 516.09375 L 425.53125 519.5625 C 425.53125 523.16614 420.70878 528.29309 415.25 530.53125 C 413.51194 531.24388 399.29881 532.21694 383.65625 532.6875 L 355.21875 533.5625 L 355.21875 543.65625 C 355.21875 555.413 359.2203 562.70798 368.59375 568 C 373.523 570.78293 376.90723 571.15627 397.71875 571.1875 C 420.58609 571.2218 421.72729 571.06022 438 565.71875 C 447.21328 562.69452 455.59765 559.9664 456.625 559.65625 C 457.9137 559.26723 456.8405 554.42334 453.125 544 C 446.59604 525.68391 444.85979 508.74574 447.53125 489.21875 C 453.41364 446.22211 480.23663 416.04368 525.0625 402.0625 L 533.75 399.375 L 534.875 387.625 C 535.58729 380.1121 537.51935 372.51519 540.25 366.59375 C 544.40618 357.58078 544.46446 357.29345 541.53125 355.28125 C 539.87393 354.1443 530.38566 346.8857 520.46875 339.15625 C 510.55201 331.4268 501.66489 325.31935 500.71875 325.59375 C 497.42671 326.54859 491.66231 340.40844 488.9375 353.90625 L 486.1875 367.46875 L 470.28125 368.34375 C 451.99558 369.3233 442.65737 372.92303 423.1875 386.625 C 411.27027 395.01176 406.5625 396.3401 406.5625 391.25 C 406.5625 383.36103 419.93542 367.44339 433.90625 358.71875 C 438.34619 355.94604 447.26136 351.94432 453.71875 349.8125 L 465.46875 345.9375 L 467.65625 337.5625 C 468.8661 332.96179 473.10003 322.57838 477.0625 314.5 C 483.87475 300.61161 484.44192 298.48239 487.25 275.21875 C 491.28973 241.7521 491.22127 230.83178 487 225.0625 C 482.0865 218.34701 469.75534 212.90548 457.125 211.875 C 448.12031 211.14033 445.2191 211.51512 439.28125 214.3125 C 421.58924 222.64738 415.34743 243.99043 413.40625 302.53125 C 412.42521 332.11704 412.29601 333.00792 409.15625 332.5625 C 404.47883 331.89891 397.50631 321.27135 394.78125 310.59375 C 393.48622 305.51939 391.36399 288.22505 390.03125 272.15625 C 387.38116 240.20395 385.09761 229.456 379.15625 220.71875 C 374.05354 213.21479 366.57987 209.875 354.84375 209.875 z M 1263.625 924.90625 C 1255.7485 924.78019 1240.1141 931.2467 1208.5312 946.96875 C 1176.4893 962.91935 1163.1656 967.79067 1138.125 972.71875 C 1118.4045 976.5998 1104.7112 981.38894 1092.3125 988.71875 C 1087.3056 991.67869 1082.1266 994.09375 1080.8125 994.09375 C 1078.0788 994.09375 1075.7274 989.40562 1077.7812 988.0625 C 1078.5312 987.57203 1081.1613 983.61079 1083.6562 979.25 C 1089.5729 968.90898 1087.9148 966.4159 1075.125 966.4375 C 1062.9511 966.4581 1052.4167 971.50204 1042.5312 982.03125 C 1033.0455 992.13481 1018.5352 1018.6286 1011.8125 1038.1562 C 1007.4906 1050.7106 1007 1054.1661 1007 1070.625 C 1007 1090.1359 1008.854 1098.4445 1014.9688 1106.0625 C 1019.8374 1112.1283 1029.1045 1117.0847 1035.5625 1117.0938 L 1041.2188 1117.125 L 1040 1108.2812 C 1039.3206 1103.4184 1039.4163 1092.8469 1040.2188 1084.8125 C 1041.0213 1076.7781 1041.6962 1069.3008 1041.7188 1068.1875 C 1041.7437 1066.8928 1043.3148 1066.3452 1046.0938 1066.6562 C 1050.184 1067.1144 1050.4965 1067.7141 1051.5312 1076.8438 C 1055.5631 1112.418 1076.288 1140.9369 1117.7188 1167.9375 C 1143.3949 1184.6709 1160.2434 1200.9922 1170.625 1219.1875 C 1178.9684 1233.8105 1188.7519 1245.772 1194.0938 1247.875 C 1200.8879 1250.5498 1213.2419 1249.5361 1218.875 1245.8438 L 1218.875 1245.8125 C 1226.8239 1240.6021 1231.6743 1230.9443 1232.5938 1218.4375 C 1233.2704 1209.2336 1232.8187 1206.91 1229.1562 1199.8125 C 1226.8519 1195.3469 1217.2295 1183.1166 1207.75 1172.6562 C 1198.2705 1162.1961 1189.6451 1151.6264 1188.5938 1149.1562 C 1186.8972 1145.1703 1187.0825 1144.2512 1190.2812 1140.9375 C 1195.4291 1135.6048 1203.4852 1133.4611 1247.9375 1125.5938 C 1339.2655 1109.4297 1369.1702 1094.2782 1369.4062 1064.0625 C 1369.4884 1053.5067 1366.0228 1045.6151 1360.125 1043 C 1353.6267 1040.1186 1331.9513 1043.93 1305.875 1052.5 C 1277.5047 1061.8239 1256.6656 1065.1865 1252.125 1061.1875 C 1250.5519 1059.802 1248.8 1059.1219 1248.2188 1059.6875 C 1247.6375 1060.2532 1247.1562 1059.1925 1247.1562 1057.3125 C 1247.1562 1052.7355 1254.7328 1049.5835 1282.7188 1042.5312 C 1326.446 1031.5122 1343.1155 1024.8913 1355.75 1013.5938 C 1364.0379 1006.183 1367.25 999.91316 1367.25 991 C 1367.25 983.35256 1364.2078 977.30806 1357.6875 971.96875 C 1349.3085 965.10739 1345.3257 966.15539 1308.2812 984.78125 C 1273.5316 1002.2533 1250.5264 1011 1239.4062 1011 C 1233.6751 1011 1232.9375 1010.5994 1232.9375 1007.4375 C 1232.9375 1002.0353 1238.7818 997.94572 1251.9062 994.15625 C 1271.313 988.553 1311.5331 966.55794 1322.0938 955.78125 L 1326.75 951.03125 L 1323.6562 943.75 C 1319.8486 934.80883 1315.3592 932.26266 1304.6875 933 C 1294.2601 933.72045 1286.5835 937.72101 1265.3438 953.40625 C 1255.7844 960.4657 1244.0297 967.99994 1239.25 970.15625 C 1229.1398 974.71741 1221.0914 975.28128 1219.625 971.5625 C 1217.8473 967.05407 1220.1108 964.18356 1228.9062 959.71875 C 1237.758 955.22554 1254.6723 943.45819 1265.2188 934.4375 C 1270.0648 930.29249 1270.7802 928.95623 1269.2188 927.125 C 1268.0181 925.71722 1266.2505 924.94827 1263.625 924.90625 z M 1184.625 977.71875 C 1202.2115 977.6269 1208.6598 991.36209 1191.125 1000.1562 C 1183.9912 1003.7341 1181.2597 1004.1431 1160.875 1004.5938 C 1146.3735 1004.9143 1138.1021 1004.5152 1137.4375 1003.4688 C 1133.3469 997.02736 1154.911 983.30331 1176.4375 978.65625 C 1179.3678 978.02366 1182.1126 977.73187 1184.625 977.71875 z M 1180.25 1037.3125 C 1183.2695 1037.2987 1185.7974 1037.4334 1187.5312 1037.75 C 1194.5181 1039.0256 1201.3436 1045.4821 1201.3438 1050.8438 C 1201.3438 1065.4322 1180.4256 1070.3534 1152.3438 1062.375 C 1138.5192 1058.4473 1131.0312 1054.4277 1131.0312 1050.9688 C 1131.0312 1047.5994 1138.8931 1043.0626 1148.5938 1040.8438 C 1157.771 1038.7446 1171.1916 1037.3538 1180.25 1037.3125 z "
       style="fill:#ffffff" />
    <path
       id="path3355"
       d="M 839.84375 78.96875 C 830.53625 78.965934 821.3602 79.79453 815 81.4375 C 802.25638 84.729698 784.22955 93.158145 772.5 101.3125 C 759.35931 110.4477 739.26905 131.2075 729.1875 146.0625 C 711.86124 171.59217 696.46861 207.30619 694.625 226.28125 L 693.71875 235.78125 L 699.84375 237.34375 C 703.22207 238.20655 707.83728 239.34616 710.09375 239.875 L 714.1875 240.84375 L 715.125 227.84375 C 716.4344 209.78767 719.86275 197.86411 729.09375 179.3125 C 735.83679 165.76118 738.99416 161.48401 749.96875 150.8125 C 758.39851 142.61535 766.15546 136.66121 772.34375 133.6875 C 781.72628 129.17887 782.10385 129.15625 808.6875 129.15625 C 835.50137 129.15625 835.58633 129.1351 846 133.9375 C 859.16487 140.00812 876.20743 155.47284 884.1875 168.5625 C 897.32124 190.10578 901.72238 216.87375 895.8125 239.09375 C 889.48327 262.89109 868.07075 295.44476 855.375 300.5625 C 852.73189 301.62793 850.5625 303.1677 850.5625 303.96875 C 850.5625 304.76981 861.68095 315.91062 875.25 328.75 C 929.48905 380.07268 954.13879 418.05449 981.375 492.125 C 990.89579 518.01766 995.62154 534.10762 997.15625 545.9375 L 998.3125 554.78125 L 1019.625 555.15625 C 1047.6718 555.63257 1056.2797 558.27149 1076.5 572.65625 C 1084.7558 578.52944 1091.9097 583.22271 1092.375 583.0625 C 1092.8404 582.90229 1098.5096 577.19675 1105 570.40625 C 1116.6401 558.22814 1123.6112 546.91403 1129.5625 530.46875 C 1133.6668 519.12704 1134.441 491.78798 1131.0312 478.96875 C 1123.4272 450.38085 1099.0152 421.91332 1073.875 412.375 L 1067.25 409.875 L 1066.4062 414.0625 C 1065.9354 416.35723 1064.7867 424.12383 1063.8438 431.3125 C 1062.266 443.33941 1059.9723 448.21875 1055.9062 448.21875 C 1055.3262 448.21875 1054.4385 426.94359 1053.9375 400.9375 C 1053.1165 358.32104 1052.6317 351.8323 1049.0312 335.15625 C 1041.8567 301.92632 1029.1974 270.03237 1002.9375 218.9375 C 978.81259 171.99707 964.73691 150.88946 941.9375 127.53125 C 919.98704 105.04283 890.72501 87.37127 865.59375 81.4375 C 858.61788 79.790416 849.15125 78.971566 839.84375 78.96875 z M 798.375 166.59375 C 797.79157 166.63018 797.33559 166.75854 797.0625 166.96875 C 795.18981 168.41019 755.56649 239.54238 757.5625 240.5 C 760.31361 241.8199 770.47657 246.62777 789.8125 255.8125 C 809.14843 264.99722 822.96875 271.625 822.96875 271.625 C 823.86227 271.68203 826.00649 267.92508 830.625 259.4375 C 836.67234 248.32375 838.20239 247.46704 837.03125 246.09375 C 836.13678 245.04495 828.26477 242.66529 817.78125 239.34375 C 807.29774 236.0222 795.75 231.41651 795.75 230.84375 C 795.75 230.27101 802.38936 216.42604 809.84375 202.8125 C 817.29798 189.19897 823.56597 178.17024 823.28125 176.8125 C 822.57001 173.42131 804.01482 166.24156 798.375 166.59375 z M 609.28125 246.0625 C 584.3931 246.10177 582.52754 246.6352 570.90625 250.4375 C 549.21556 257.53574 531.40625 267.60501 531.40625 272.78125 C 531.40625 274.99766 539.24989 276.77379 573.25 282.21875 C 596.65537 285.96699 610.43441 289.22485 635.6875 297 C 679.16305 310.38564 689.98997 314.71939 735.21875 336.8125 C 786.86462 362.04022 811.40201 376.63014 850.90625 405.5625 C 898.866 440.68749 920.70284 452.62209 937.125 452.75 C 943.21311 452.7974 945.72746 452.1903 946.40625 450.46875 C 949.50948 442.59888 903.30396 374.8237 878.28125 350.53125 C 823.85559 297.69412 754.86119 262.77688 678.84375 249.625 C 661.66033 246.65206 652.99086 246.1316 621.46875 246.09375 C 616.87881 246.08824 612.8367 246.05689 609.28125 246.0625 z M 469.53125 574.75 L 449.5 580.875 C 438.4837 584.23998 429.29233 587.15581 429.0625 587.34375 C 427.47525 588.64163 436.95163 611.40009 447.375 631.3125 C 464.20342 663.46073 509.46004 741.68551 518.90625 754.96875 C 547.49957 795.17716 610.38734 864.8927 616.125 862.75 C 617.41685 862.26755 625.48406 856.61702 634.0625 850.1875 L 649.65625 838.5 L 647.53125 832.65625 C 644.99415 825.65834 639.56722 817.12395 628.46875 802.65625 C 618.37788 789.50224 585.95317 737.89486 581.125 727.3125 C 579.19559 723.08387 574.58446 711.46854 570.90625 701.53125 C 564.54573 684.34768 563.99854 683.46875 559.8125 683.46875 C 552.59781 683.46875 536.00868 677.81346 525.875 671.90625 C 512.27609 663.97899 498.94268 650.64621 493.0625 639.0625 C 488.47718 630.02975 488.04736 627.79546 487.46875 610.625 L 486.84375 592 L 478.1875 583.375 L 469.53125 574.75 z M 689.9375 863.8125 C 688.65294 863.81202 687.73141 863.8588 687.28125 863.96875 C 682.8187 865.05872 662.18521 885.06763 649.03125 901.0625 C 637.65216 914.89912 618.00771 943.56986 619.15625 944.6875 C 619.87312 945.38518 663.67342 953.42398 669.75 953.96875 C 670.68365 954.05235 673.43986 949.97348 675.84375 944.90625 C 682.11484 931.68683 694.67494 912.65947 712.90625 888.84375 C 721.63733 877.43838 728.27737 867.84094 727.65625 867.5 C 725.38984 866.25578 698.92945 863.81588 689.9375 863.8125 z M 821.46875 892.4375 C 816.22232 892.6763 812.20552 894.74678 808 898.25 L 801.1875 903.9375 L 802.03125 913.875 C 803.72017 934.35072 820.86788 959.03886 857.875 994.21875 C 879.37893 1014.6608 896.90144 1028.074 926.5 1046.7188 C 948.09241 1060.3202 960.51385 1067.1805 972.21875 1071.9375 C 984.87326 1077.0804 986.4375 1076.7996 986.4375 1069.5312 C 986.4375 1061.9168 990.22379 1044.0347 994.59375 1031 C 998.02405 1020.7687 1006.7085 1003.2733 1017.9375 984 L 1024.2812 973.15625 L 1008.1875 969.625 C 991.07662 965.86965 954.76646 954.14348 934.46875 945.8125 C 927.71417 943.04021 907.18393 932.28913 888.84375 921.9375 C 850.47137 900.27908 833.01089 891.91215 821.46875 892.4375 z M 784.28125 918.75 C 780.46921 918.75 770.02929 954.82155 766.71875 979.40625 C 759.77314 1030.9869 789.55409 1089.4673 828.96875 1101.625 C 834.41994 1103.3064 843.41499 1104.6705 849.40625 1104.7188 C 859.79006 1104.8018 860.32457 1104.6289 867.15625 1098.5 C 872.6174 1093.6011 873.88255 1091.5964 872.78125 1089.5938 C 872.00055 1088.174 867.30259 1073.8823 862.34375 1057.8438 C 857.3849 1041.8052 851.63835 1025.0061 849.59375 1020.5 C 846.23961 1013.1077 826.16218 986.983 820.03125 982.03125 C 818.67524 980.93601 812.64031 972.65702 806.59375 963.625 C 796.03645 947.85499 788.84043 933.39253 786.59375 923.4375 C 786.0115 920.85774 784.96526 918.75 784.28125 918.75 z "
       style="fill:#00ff00" />
    <path
       id="path3353"
       d="M 548.4375 963.8125 C 547.25977 963.9177 545.8374 964.54796 543.4375 965.65625 C 531.73497 971.06052 519.98856 989.76587 513.875 1012.7188 C 509.91917 1027.5703 510.40649 1038.0055 515.53125 1047.7812 C 519.81446 1055.9521 522.86398 1055.3907 533.8125 1044.2812 C 542.17384 1035.797 551.35523 1020.1576 555.75 1006.9688 C 557.64164 1001.2918 558.23396 994.89538 557.90625 984.0625 C 557.47664 969.86565 557.23578 968.87727 553.3125 966.03125 C 551.06913 964.40391 549.95172 963.67724 548.4375 963.8125 z M 676.96875 999.03125 C 662.29418 999.06577 646.12661 1011.616 636.9375 1030.5312 C 618.70191 1068.0682 657.48347 1107.2825 696.6875 1090.9375 C 705.20669 1087.3856 715.61909 1078.1504 719.90625 1070.3125 C 722.63643 1065.3214 723.32858 1061.3971 723.34375 1050.9688 C 723.35955 1039.7357 722.75017 1036.681 718.9375 1029.125 C 710.56937 1012.5409 695.49243 1000.9876 679.875 999.1875 C 678.91248 999.07656 677.94705 999.02895 676.96875 999.03125 z "
       style="fill:#ffff00" />
    <path
       id="path3343"
       d="M 687.1875 339.1875 C 686.2845 340.14282 672.03125 368.09211 672.03125 368.90625 C 672.03125 369.30287 674.4862 368.63169 677.5 367.40625 C 689.52296 362.51746 697.37121 366.49642 700.46875 379.0625 C 703.71767 392.24175 700.3927 409.5334 689.84375 434.28125 C 680.91565 455.22622 680.95839 454.65586 686.25 471.34375 C 691.75886 488.71663 692.01624 491.28125 688.09375 491.28125 C 686.3372 491.28125 682.75122 487.79775 679 482.4375 C 662.50043 458.86085 636.37531 439.65392 608.53125 430.625 C 597.81436 427.14985 593.8174 426.6875 574.125 426.6875 C 555.81373 426.6875 550.11307 427.24543 542.1875 429.84375 C 501.65307 443.13265 477.21337 487.76874 488.0625 528.71875 C 496.50775 560.5953 528.14755 589.39605 568.53125 602 C 579.3292 605.37007 581.14028 605.45478 645.15625 605.1875 C 681.22102 605.03696 716.76949 604.25851 724.15625 603.46875 C 731.54301 602.679 746.48087 599.60961 757.34375 596.625 C 791.64013 587.20193 804.43554 587.72108 814.90625 599 C 822.10183 606.75105 823.67708 613.13147 823.6875 634.5 C 823.7033 657.04701 820.53391 667.84175 809.4375 683.21875 C 799.85651 696.49567 787.81757 706.17315 770.78125 714.21875 C 758.00144 720.25416 738.96466 725 727.5625 725 C 721.20151 725 719.40625 726.67123 719.40625 732.71875 C 719.40625 738.58754 711.41015 759.98796 706.53125 767.15625 C 695.09291 783.96183 680.40531 784.74584 663.375 769.46875 C 645.55007 753.47898 630.38831 724.90592 625.5625 698.1875 C 624.07472 689.95026 622.77877 686.89668 619.78125 684.71875 C 616.14412 682.07609 615.38482 682.03866 607.625 684.28125 C 603.07239 685.59699 599.34375 687.33134 599.34375 688.125 C 599.34375 691.38475 607.90846 711.41181 615.78125 726.53125 C 628.67166 751.28691 637.98661 765.86318 650.625 781.0625 C 666.24433 799.84665 671.54831 808.37595 675.46875 821.09375 C 677.29371 827.01384 679.01813 832.13306 679.3125 832.46875 C 679.92524 833.16752 737.04464 841.40546 743.25 841.6875 C 745.50158 841.78991 753.34849 841.15612 760.65625 840.28125 C 784.88941 837.38009 783.80067 837.75626 785.90625 831.4375 C 793.63146 808.25322 826.38592 760.34057 847.59375 741.21875 C 870.4905 720.57405 894.88796 704.02128 904.71875 702.46875 C 909.63794 701.69186 910.17935 702.01627 912.9375 707.96875 C 919.1686 721.41632 938.16289 732.66747 961.5 736.71875 C 982.46386 740.35805 999.9128 737.57855 1022.625 727 C 1035.0939 721.19247 1039.6735 717.95651 1051.2188 706.78125 C 1062.0452 696.30151 1066.3434 690.77904 1071.4062 680.84375 C 1079.6202 664.72472 1081.6595 654.91833 1081 634.5 C 1080.519 619.61105 1079.9659 617.06489 1075.3438 607.9375 C 1069.1056 595.61945 1056.3815 583.4625 1043.7188 577.6875 C 1035.3079 573.85161 1033.1008 573.53125 1014.0938 573.53125 C 994.57914 573.53125 993.16183 573.75085 985.65625 577.8125 C 981.3111 580.16388 970.75282 587.93141 962.1875 595.0625 C 943.68315 610.46833 935.35697 614.71514 922.3125 615.53125 C 881.14177 618.10701 846.83725 583.61777 849.25 542.0625 C 850.44926 521.40805 866.04721 500.56452 884.59375 494.875 C 894.91467 491.7089 901.35913 493.12556 913.8125 501.28125 C 918.30887 504.226 923.21706 506.65625 924.71875 506.65625 C 931.94987 506.65625 956.4375 485.16142 956.4375 478.8125 C 956.4375 476.36878 955.24224 475.88475 948.9375 475.875 C 919.09562 475.8289 896.04641 465.27874 854.40625 432.59375 C 843.16921 423.77338 830.78564 414.41066 826.875 411.78125 C 812.76795 402.29603 770.73654 376.91268 759.8125 371.28125 C 744.83389 363.55957 687.9216 338.41085 687.1875 339.1875 z M 789.34375 411.3125 C 793.33229 411.3125 797.74953 411.72465 799.15625 412.25 C 806.79155 415.10138 810.0681 437.33209 805.5 455.125 C 799.63468 477.97147 783.8347 506.93434 773.1875 514.3125 C 765.42753 519.68986 758.81531 519.9382 752.9375 515.125 C 745.57097 509.0926 743.80806 501.73575 746.21875 487.09375 C 750.4887 461.15738 763.62719 430.0558 775.3125 418.1875 C 781.41072 411.99365 782.81733 411.3125 789.34375 411.3125 z M 1001.2188 612.75 C 1012.8351 612.755 1016.6841 613.36289 1020.8125 615.8125 C 1026.1371 618.97195 1027.3825 621.65847 1023.9688 622.625 C 1022.8824 622.93256 1014.8122 624.2476 1006.0312 625.5625 C 990.87155 627.83262 976.95891 631.91972 977 634.0625 C 977.0158 634.60496 981.42589 636.90076 986.84375 639.15625 C 998.21541 643.89042 1001.0308 646.87984 997.375 650.4375 C 995.16214 652.59115 994.01857 652.59635 985.625 650.46875 C 969.49626 646.3804 956.86408 648.04577 950 655.15625 C 946.77321 658.49893 946.15625 660.68088 946.15625 668.90625 C 946.15625 677.65736 946.66048 679.18046 950.90625 683.53125 C 956.4957 689.25889 967.39061 694.92129 977.53125 697.40625 C 987.67221 699.89129 989.327 702.33956 984.28125 707.25 C 979.98398 711.43195 979.6503 711.49274 969.625 709.5625 C 955.44447 706.8322 939.46171 695.32573 931.53125 682.15625 C 922.7049 667.49919 927.6973 647.71394 943.71875 633.9375 C 960.50906 619.49992 978.85611 612.74109 1001.2188 612.75 z "
       style="fill:#ffccaa" />
    <path
       id="path3335"
       d="m 691.58708,760.29117 c 4.62435,-5.34845 10.2642,-21.55395 11.56111,-33.2194 l 0.88009,-7.918 -9.28994,-1.99892 c -5.10943,-1.09942 -18.88878,-5.57978 -30.62069,-9.95636 -11.73192,-4.37657 -21.50298,-7.81915 -21.71361,-7.65018 -0.8409,0.67491 25.18215,53.98709 27.7017,56.75137 3.66226,4.01771 11.59508,8.66216 14.80718,8.66919 1.44354,0.003 4.44691,-2.1018 6.67416,-4.6777 z"
       style="fill:#ff0000"
       inkscape:connector-curvature="0" />
  </g>
  <g
     transform="matrix(2.1897583,0,0,2.1897583,28.232642,-289.70003)"
     id="layer1"
     inkscape:label="Layer 1"
     style="fill:#ffffff">
    <path
       sodipodi:nodetypes="cccccccccccccccccccccccccccccccccccccccccccccccccccccccccccccccccccccccccccccccccccccccccccccccccccccccccccccccccccccccccccccccccccccccccccccccccccccccccccc"
       inkscape:connector-curvature="0"
       id="path3014"
       d="m 307.1875,905.71875 c -14.71172,3.2326 -22.31955,18.30825 -29,30.40625 -4.49318,7.45262 -6.22013,17.19447 -14.625,21.25 -17.76798,12.53713 -38.12863,22.31396 -59.3125,27.46875 -0.3142,-4.64999 6.61897,-9.94743 2.8125,-14.34375 -4.61504,-3.16743 -8.625,3.63785 -12.08529,5.76466 -4.75886,3.82132 -11.03967,10.61276 -17.60221,7.95409 -1.45825,-3.41545 3.35251,-6.22842 4.96875,-8.75 6.89968,-7.22275 16.12499,-11.73841 25.71875,-14.0625 3.45541,-2.64846 -0.33029,-8.46633 -4.34375,-6.28125 -25.81695,3.40362 -48.32781,18.63648 -72.625,26.9375 -2.26497,-1.0872 -0.0214,-5.3822 0.3125,-7.3125 0.69983,-4.83164 5.53748,-9.1608 4.46875,-14.0625 -3.21407,-5.06602 -8.56513,0.90827 -12.25,2.15625 -3.12208,1.37389 -6.62086,2.61142 -10.0625,1.875 4.70771,-1.97528 6.88597,-9.9423 1.125,-11.9375 -6.01239,-2.32388 -13.33293,3.59621 -11.71875,10 -14.010472,8.59332 -28.639706,19.44401 -45.65625,19.84375 -3.977455,-0.2357 -9.543485,-3.35825 -10.75,-5.78125 10.041957,-1.90604 22.179135,-5.00562 27.21875,-14.65625 2.262241,-5.309 -4.47016,-8.56583 -8.90625,-7.375 -8.691717,1.27006 -17.056005,5.16909 -24.21875,10.21875 4.806918,-8.62423 8.067377,-18.4849 16.618819,-24.18222 6.854974,-7.48036 16.669092,-12.99465 21.099931,-22.19278 1.624579,-3.59966 0.229384,-9.53363 -4.6875,-8.65625 -13.149714,2.38383 -19.00283,16.15481 -25.720468,26.14628 -5.128464,10.90567 -16.46923,16.78085 -25.531196,24.10028 -6.453101,5.05244 -14.2669788,8.3473 -20.842086,12.97219 -2.55369492,3.45819 2.527214,7.43068 5.5432678,4.69451 C 17.099482,972.73738 26.522343,966.52557 35.3125,959.625 c -4.139619,8.90878 -9.77205,17.12347 -14.78125,25.34375 -0.902765,4.72442 6.033614,5.59731 7.647675,1.53819 3.313282,-1.50474 6.918628,-11.09571 10.172939,-6.97828 6.622204,7.95413 17.740297,13.23821 27.987462,8.98787 14.523745,-3.9432 27.587521,-12.09399 40.379424,-19.51653 5.38263,4.27985 13.55118,2.55565 18.9375,0.78125 -1.63961,5.42026 -5.57267,13.99062 0.125,18.25 8.03523,3.02658 16.46537,-2.8487 23.90625,-5.40625 9.44559,-4.22777 18.6742,-9.05396 28.3125,-12.75 -5.06354,4.26202 -11.68828,12.72609 -5.90625,19.09375 6.41129,6.45541 16.30824,1.32417 22.3125,-3.125 2.86844,-2.86561 2.3499,-0.93577 2.625,1.78125 1.55762,6.42871 10.26403,4.35012 14.75,2.875 18.181,-5.68964 35.68488,-13.61512 51.40625,-24.1875 -3.09137,4.68634 -9.28262,6.85923 -12.84375,11.53125 -9.49825,10.26876 -17.39725,22.45595 -22.03125,35.59375 -1.55256,4.143 3.01827,8.5437 6.84375,5.5 14.08991,-8.5066 21.61969,-24.14295 28.90625,-38.3125 6.12784,8.37994 18.00317,4.00086 25.48818,0.0528 6.54492,-3.31279 13.42004,-7.93069 19.07432,-11.58404 -2.73396,5.77843 -9.05798,13.70543 -4.40625,19.96875 6.59085,4.87066 15.37199,-0.386 21.90625,-2.84375 14.65417,-6.06584 30.86286,-12.91659 44.4375,-19.21875 -2.47395,6.7757 -9.52748,14.05773 -6.40625,21.6875 4.04945,5.50959 12.09614,1.29037 16.6875,-1.4375 3.22197,-1.83266 6.30211,-3.85806 9.28125,-6.03125 -11.26251,22.08054 -23.40224,43.88534 -34.15625,66.12504 -0.42962,4.5933 6.93936,5.0525 7.4375,0.4687 18.20659,-34.6902 46.69445,-65.69557 83.46875,-80.46874 -2.13196,4.89827 -6.4945,9.57251 -6.71875,15 0.92885,4.27254 6.08451,2.99085 8.46875,0.75 12.46683,-6.41835 24.09662,-14.58749 36.90625,-20.03125 3.79065,-0.22644 -0.4504,4.1045 -1.6875,4.875 -4.66637,5.09457 -11.93334,9.64567 -12.90625,16.90625 0.29815,6.46911 8.91037,5.16179 13.0625,3.875 14.87586,-4.41255 29.286,-12.8292 43.125,-18.21875 -4.73844,4.60775 -10.95448,13.33586 -5.5625,19.53125 6.5432,4.49225 15.48917,1.10289 21.96875,-1.9375 4.07073,-1.64561 7.51574,-6.11909 10.59375,-7.84375 11.21459,6.73753 25.03522,1.91412 34.96875,-4.9375 3.3901,-2.00278 7.21329,-4.41192 10.46875,-5.90625 -5.58554,4.91117 -10.65751,15.68604 -3.53125,21.375 7.61339,3.73906 16.78005,-0.96777 23.40625,-5 3.24806,-1.2653 5.36119,-7.06454 9,-4.125 16.42108,5.23772 32.7501,-4.80599 45.02436,-14.84232 4.13191,-3.182 8.29346,-6.35169 12.22564,-9.81393 -5.31916,10.26858 -11.98388,19.90958 -17.03125,30.125 -0.49864,4.09834 5.59569,5.53495 7.0625,1.5625 2.64026,-4.09774 5.67399,-8.46014 9.34375,-11.3125 6.02954,8.65389 16.67474,15.7423 27.59375,12.21875 9.74307,-3.03334 18.52872,-9.03529 27.5,-13.75 3.03709,-3.21437 -1.87192,-7.93085 -5.14998,-5.15782 -10.47537,4.04906 -19.82916,13.90285 -31.66252,12.25157 -4.52303,-1.08295 -7.92613,-4.49532 -10.90625,-7.875 10.54297,0.9282 25.01422,-1.47982 28.09375,-13.25 1.64375,-5.33733 -4.15031,-9.00596 -8.90625,-7.34375 -8.09207,1.79359 -15.53825,6.07461 -22.28125,10.5625 6.46033,-10.0854 10.72311,-22.02292 20.76517,-29.19847 5.39939,-6.31867 14.53688,-10.60261 16.73483,-19.05153 1.34402,-5.33373 -5.26935,-7.1783 -9,-5.03125 -13.99117,6.08419 -15.58213,24.59105 -27.9645,32.73393 -11.22813,9.7133 -23.10104,18.94227 -35.69175,26.64107 -7.06027,3.19202 -15.67731,6.57511 -23.34375,3.71875 4.61718,-4.07491 5.04961,-14.59461 -2.65625,-15.15625 -1.65521,0.0963 -1.70426,-3.97896 -4.5,-3.5 -17.32807,-1.16302 -31.86976,9.46786 -46.15625,17.375 -5.75944,3.13473 -14.28972,4.19517 -19.5625,0.40625 2.58714,-4.27564 4.60926,-12.7884 -1.71875,-14.71875 -2.1181,0.17588 -2.70945,-0.71527 -3.90625,-2.25 -4.5378,-1.78758 -9.71491,1.45843 -14.36936,1.98785 -19.95433,5.19458 -37.49654,16.70318 -56.94314,23.13715 -3.10773,0.2978 5.08662,-5.45088 5.83601,-7.23343 4.00473,-4.01439 10.27987,-11.11952 5.66399,-16.82907 -5.94814,-4.4387 -13.57815,0.87543 -19.375,3.21875 -7.09549,3.53962 -13.97279,7.47982 -20.84375,11.4375 3.43684,-3.71196 6.33395,-12.64463 -0.9375,-13.65625 -9.25883,0.56619 -17.66616,6.18686 -25.71875,10.4375 -13.40765,8.20068 -25.72044,18.23984 -36.71875,29.4375 5.00475,-10.40073 11.39111,-20.42751 15.75,-31 -0.1361,-4.61402 -6.69569,-4.37374 -8.5,-0.75 -7.7552,6.35493 -15.92691,13.37473 -25.25,16.84375 2.35111,-9.9311 8.98736,-18.09989 14.6875,-26.1875 0.87541,-4.38085 -5.28925,-5.86264 -7.78329,-2.64076 -20.72121,10.75501 -42.01504,21.30789 -64.46671,27.60951 -4.29363,0.4375 -0.56402,-5.5534 -0.0312,-7.40625 4.02649,-7.4485 7.49737,-15.69554 14.21875,-21.15625 14.07466,-2.25693 28.94369,-4.0771 41.65625,-10.59375 3.22227,-2.96923 -1.57748,-8.05825 -5,-5.4375 -8.7947,3.12637 -17.9193,5.39223 -27.125,7.1875 7.91717,-7.49231 17.67132,-15.44826 19.5625,-26.75 0.40603,-5.58731 -6.88301,-6.24926 -9.9375,-2.9375 -10.26201,8.83455 -16.82263,21.12247 -24.90625,31.875 -5.39294,1.36656 -11.77239,-1.04688 -16.75,1.46875 -2.9998,3.19893 1.15784,7.81189 5,6.3125 5.248,-0.65652 5.79678,0.33344 1.3125,3.09375 -11.73649,7.42951 -23.00594,17.42722 -37,19.78125 -5.50316,0.80891 -7.70271,-7.08217 -3.90836,-10.46453 2.82449,-6.89552 6.48518,-13.10103 12.76746,-17.33951 10.53865,-10.22531 21.42681,-21.25363 28.7659,-34.10221 2.70467,-4.39887 1.89837,-11.6805 -4.8125,-10.625 z m -2.25,8.4375 c -4.78801,9.13942 -13.17939,16.15209 -19.65625,24.15625 4.76485,-9.24782 9.92958,-19.5758 19.65625,-24.15625 z m -19.65625,24.1875 c -0.0939,0.1896 -0.072,-0.0374 0,0 z m 427.625,23.34375 c -3.33484,4.57409 -9.44699,6.12331 -14.875,6.28125 4.65588,-2.74903 9.62169,-5.13891 14.875,-6.28125 z m -648.0625,0.59375 c -5.208909,4.12625 -11.763358,6.37175 -18.1875,7.34375 5.248273,-3.64473 12.589429,-6.96829 18.1875,-7.34375 z m 556.28125,2.1875 c -2.06625,3.18155 -2.356,7.55272 -0.5,10.90625 -5.66049,4.69743 -12.87332,10.38816 -20.65625,9.21875 -2.13845,-4.41087 3.80988,-8.44302 6.3125,-11.1875 4.30874,-3.77174 9.04266,-7.54355 14.84375,-8.9375 z m -74,0.625 c -1.78715,3.32412 -0.75715,7.6505 0.875,10.46875 -5.18101,5.62811 -13.3514,10.43059 -21.0625,9 0.96405,-6.98696 8.09857,-11.95726 13.40625,-15.9375 2.08156,-1.26782 4.87872,-3.05281 6.78125,-3.53125 z M 253.1875,986.0625 c -4.06513,7.33049 -7.93106,14.7574 -14,20.6875 3.45475,-7.87939 8.80986,-14.65723 14.25,-21.1875 z"
       style="color:#000000;font-style:normal;font-variant:normal;font-weight:normal;font-stretch:normal;font-size:medium;line-height:normal;font-family:Sans;-inkscape-font-specification:Sans;text-indent:0;text-align:start;text-decoration:none;text-decoration-line:none;letter-spacing:normal;word-spacing:normal;text-transform:none;direction:ltr;block-progression:tb;writing-mode:lr-tb;baseline-shift:baseline;text-anchor:start;display:inline;overflow:visible;visibility:visible;fill:#ffffff;fill-opacity:1;stroke:none;stroke-width:4;marker:none;enable-background:accumulate" />
  </g>
</svg>
