<?xml version="1.0" encoding="UTF-8" standalone="no"?>
<!-- Created with Inkscape (http://www.inkscape.org/) -->

<svg
   xmlns:dc="http://purl.org/dc/elements/1.1/"
   xmlns:cc="http://creativecommons.org/ns#"
   xmlns:rdf="http://www.w3.org/1999/02/22-rdf-syntax-ns#"
   xmlns:svg="http://www.w3.org/2000/svg"
   xmlns="http://www.w3.org/2000/svg"
   xmlns:sodipodi="http://sodipodi.sourceforge.net/DTD/sodipodi-0.dtd"
   xmlns:inkscape="http://www.inkscape.org/namespaces/inkscape"
   id="svg3062"
   version="1.1"
   inkscape:version="0.91 r13725"
   width="1654"
   height="1654"
   sodipodi:docname="KraftyNook_SuperMarioBros_Mario~.svg">
  <metadata
     id="metadata3068">
    <rdf:RDF>
      <cc:Work
         rdf:about="">
        <dc:format>image/svg+xml</dc:format>
        <dc:type
           rdf:resource="http://purl.org/dc/dcmitype/StillImage" />
        <dc:title></dc:title>
      </cc:Work>
    </rdf:RDF>
  </metadata>
  <defs
     id="defs3066">
    <inkscape:path-effect
       effect="spiro"
       id="path-effect3267"
       is_visible="true" />
  </defs>
  <sodipodi:namedview
     pagecolor="#ffffff"
     bordercolor="#666666"
     borderopacity="1"
     objecttolerance="10"
     gridtolerance="10"
     guidetolerance="10"
     inkscape:pageopacity="0"
     inkscape:pageshadow="2"
     inkscape:window-width="1280"
     inkscape:window-height="715"
     id="namedview3064"
     showgrid="false"
     inkscape:zoom="0.14829339"
     inkscape:cx="560.30126"
     inkscape:cy="925.90027"
     inkscape:window-x="0"
     inkscape:window-y="0"
     inkscape:window-maximized="1"
     inkscape:current-layer="svg3062" />
  <g
     id="g9548">
    <path
       id="path3186"
       d="m 832.15916,34.446814 c -35.50229,-0.09857 -45.20748,1.244932 -72.09933,9.96141 -39.81427,12.905035 -97.50929,42.795362 -136.65507,70.793706 -28.49438,20.38013 -69.78191,65.97464 -96.1808,106.23893 -12.58647,19.19724 -37.34879,61.88651 -46.71224,80.51333 -14.28594,28.41921 -37.9607,94.42359 -42.26346,117.7961 l -2.03097,11.0736 -6.28632,1.83754 c -12.38028,3.62254 -34.36339,15.15304 -46.80896,24.56503 -21.28656,16.09803 -37.98913,37.65194 -46.7606,60.3971 -6.64077,17.22012 -8.38987,29.73585 -7.54359,54.11076 0.61124,17.60506 1.42633,23.12652 4.93235,33.4626 4.97174,14.65718 11.79137,27.5795 24.27489,46.03526 8.58817,12.69683 9.13935,14.06181 9.13935,22.58242 0,31.40748 5.81914,64.76006 14.16842,81.23868 5.92486,11.69371 22.01449,34.15571 30.70628,42.89209 15.55676,15.63655 58.27582,40.95015 82.39924,48.83992 4.8875,1.5985 8.89138,3.29583 8.89757,3.7718 0.006,0.47598 -11.31539,5.63564 -25.14531,11.46046 -40.15724,16.91323 -43.88479,18.96312 -66.87684,36.41234 -20.90292,15.86371 -22.24266,16.61594 -31.38328,17.65007 -45.39054,5.13537 -83.97838,36.01815 -88.05693,70.45521 -0.9173,7.74521 -1.2244,8.17956 -8.46236,11.84731 -16.49693,8.35962 -35.63744,30.48682 -48.45307,56.09342 -26.39973,52.7485 -27.60748,114.6817 -3.14317,159.1891 18.21942,33.1462 48.19419,60.622 90.66818,83.0762 17.94127,9.4848 40.69361,18.6973 50.09718,20.2614 10.38499,1.7272 10.2669,1.5491 6.86661,9.236 -4.54843,10.2825 -14.89921,49.0087 -17.60172,65.9096 -4.02117,25.1478 -5.49986,53.4833 -3.96522,75.8712 2.45067,35.7516 9.58449,55.7986 25.58052,72.0027 10.40177,10.5369 18.99142,15.4535 37.42782,21.4218 9.14026,2.9588 15.33798,6.3049 23.40448,12.5727 12.8966,10.0207 35.58406,21.1443 51.59623,25.3387 9.49448,2.487 16.94795,3.0236 45.79347,3.0948 38.35755,0.094 41.9395,-0.5772 64.41067,-11.7989 30.65574,-15.309 48.55568,-31.3738 58.46284,-52.515 7.26769,-15.5089 14.71841,-43.5573 16.15103,-60.7356 l 1.01548,-12.0407 6.81825,-3.6268 c 12.29135,-6.5206 21.62702,-22.0143 27.70819,-45.987 2.02289,-7.9743 4.13545,-18.9047 4.69057,-24.3231 0.55513,-5.4183 1.52303,-10.7424 2.17603,-11.799 0.93334,-1.5101 6.93573,-1.195 28.04669,1.4507 24.49396,3.0697 29.62715,3.2356 58.55955,1.8376 49.29997,-2.3824 85.80246,-8.4922 118.08623,-19.7294 18.84492,-6.5595 26.37153,-10.2398 62.13792,-30.4645 23.10364,-13.0643 30.12634,-17.9332 41.77994,-28.8687 7.7089,-7.2341 15.9303,-14.7903 18.2303,-16.828 l 4.1587,-3.7235 9.7679,9.1394 c 16.3602,15.3035 38.2611,28.3521 58.4145,34.8166 14.5862,4.6785 42.8038,5.7962 56.8187,2.2242 l 10.4934,-2.708 18.0369,7.1085 c 29.465,11.6044 38.7564,12.43 54.7394,4.9808 18.5239,-8.6334 31.9538,-26.0735 48.4531,-62.9601 11.5502,-25.822 13.4167,-31.043 15.0388,-41.6831 1.4179,-9.3008 2.3834,-10.8501 14.652,-24.0816 29.3022,-31.6025 55.6433,-85.7636 62.7182,-128.8696 3.6377,-22.1641 2.514,-61.895 -2.1277,-74.8557 -6.3559,-17.74695 -13.3961,-25.07966 -41.6832,-43.56904 -8.7235,-5.70197 -15.8609,-10.97725 -15.8609,-11.70224 0,-0.72499 -4.9306,-6.6303 -10.9769,-13.10458 -17.7304,-18.98552 -42.4944,-33.8795 -69.0045,-41.48975 -10.4162,-2.99019 -15.7645,-3.43224 -39.1686,-3.4333 -30.5137,-0.001 -43.0426,2.39115 -64.5558,12.33087 -24.3977,11.27243 -48.3708,31.70654 -56.0934,47.82444 l -3.675,7.6403 -7.8338,-8.65579 c -9.7849,-10.78125 -15.6152,-13.73883 -29.5941,-14.94211 l -11.0252,-0.96713 -10.2999,-11.75059 c -5.6709,-6.48458 -10.3498,-12.4034 -10.3483,-13.15293 0,-0.74953 8.4459,-10.80281 18.7139,-22.29228 23.6832,-26.5005 49.4887,-59.61102 72.1477,-92.55408 13.0213,-18.93115 21.567,-33.65519 32.157,-55.27132 14.0672,-28.71391 14.8796,-29.89099 30.2711,-46.4221 23.2197,-24.93899 27.1098,-31.31544 37.4762,-60.97737 5.7917,-16.57215 6.3545,-19.52693 7.3501,-40.3292 0.8893,-18.5807 1.7909,-24.43623 5.2225,-34.13959 l 4.1103,-11.70224 15.9092,-7.93044 c 17.2162,-8.60052 30.4545,-20.41348 38.6851,-34.52645 5.1518,-8.83373 10.2999,-28.68573 10.2999,-39.5555 0,-8.18793 0.034,-8.20495 13.6365,-22.67913 14.6262,-15.56369 23.0005,-28.59431 36.5091,-56.81872 15.1028,-31.5554 20.738,-53.36268 22.0988,-85.25226 1.0036,-23.51775 -1.1768,-37.55106 -8.5107,-54.69105 -21.9193,-51.22762 -76.9716,-92.0606 -131.4809,-97.53477 -10.3104,-1.03543 -10.817,-1.31102 -22.7759,-11.84731 -19.5205,-17.19842 -26.4217,-20.47139 -48.4047,-22.96927 -29.1078,-3.30745 -54.8903,5.26318 -77.4669,25.72558 -4.8169,4.36585 -10.4933,10.78102 -12.621,14.26513 -2.9741,4.87011 -5.1207,6.5718 -9.2844,7.35016 -10.0496,1.87866 -21.6324,8.78695 -34.1396,20.40639 -6.9555,6.4618 -13.0238,10.97411 -13.7332,10.20319 -0.698,-0.75851 -3.0767,-8.44536 -5.3192,-17.0698 -2.2425,-8.62443 -5.3866,-19.4019 -6.9633,-23.98475 C 1000.2453,137.3461 977.58736,102.22463 964.94573,88.992787 943.18249,66.213445 910.10938,46.605815 880.12867,38.653817 865.84899,34.866315 862.21709,34.530219 832.15916,34.446814 z M 608.89785,816.4175 c 2.02959,0 6.97677,4.64543 11.94402,11.21868 1.92162,2.54288 0.95449,2.71241 -15.57074,2.51453 -18.51931,-0.22178 -24.58136,-0.87266 -24.51668,-2.61125 0.0469,-1.26076 24.99823,-11.12196 28.1434,-11.12196 z"
       style="fill:#000000"
       inkscape:connector-curvature="0" />
    <path
       id="path3184"
       d="M 605.40625 489.40625 L 601.4375 494.6875 C 587.97195 512.51758 563.74247 553.54922 562.625 560.40625 C 560.33995 574.42769 587.21429 615.73052 618.0625 645.59375 C 643.78393 670.49389 658.71776 675.99189 669.4375 664.5 C 674.0654 659.53877 674.16874 658.43627 671.15625 641.21875 L 670.125 635.40625 L 680.4375 630.78125 C 689.03838 626.92229 691.10235 625.23481 693.09375 620.46875 C 697.90257 608.95959 692.42137 598.52975 679.34375 594.3125 C 662.80408 588.97884 653.41343 581.01514 639.65625 560.65625 C 635.42975 554.40155 615.02762 512.38734 607.625 494.6875 L 605.40625 489.40625 z M 796.6875 633.65625 C 795.73478 633.68778 795.22676 634.07823 794.78125 634.6875 C 789.80295 641.49573 790.20673 670.34621 795.4375 682 C 802.84648 698.50672 821.08591 711.61059 839.90625 713.9375 L 849.1875 715.09375 L 849.96875 731.34375 C 850.66141 745.61792 851.32129 748.58943 855.34375 755.875 C 864.80674 773.0146 879.64317 780.51834 900.5625 778.75 C 906.77112 778.22518 915.85379 776.35023 920.75 774.59375 C 940.78775 767.40535 938.04445 767.34303 949.59375 775.25 L 960.03125 782.40625 L 976.5625 782.34375 C 989.21191 782.31775 994.55845 781.65965 999.3125 779.5 C 1002.7308 777.94715 1009.6226 773.09623 1014.625 768.71875 L 1023.7188 760.75 L 1042.4688 761.125 C 1059.9182 761.4707 1061.7631 761.24194 1068.9375 757.5625 C 1080.7284 751.51551 1085.5011 743.57708 1086.625 728.28125 L 1087.5312 715.90625 L 1069.7188 716.84375 C 1056.792 717.52495 1047.0359 717.08426 1034.125 715.1875 C 998.14358 709.90141 983.39367 704.21379 966.3125 689.0625 C 960.62819 684.02041 954.57714 679.01942 952.875 677.9375 C 950.90234 676.68364 941.35752 675.67824 926.5625 675.15625 C 889.0991 673.83452 874.49318 669.6667 827.59375 646.96875 C 806.40098 636.71207 799.54566 633.56165 796.6875 633.65625 z M 1195.5938 942.5625 L 1182.4062 949.09375 C 1164.1182 958.15347 1149.9968 972.96803 1140.3125 993.28125 C 1128.6226 1017.8012 1127.951 1021.4729 1128.25 1059.4375 C 1128.5441 1096.7759 1127.1739 1105.4774 1118.9688 1118.8125 C 1113.4912 1127.7148 1109.9375 1137.0251 1109.9375 1142.4375 C 1109.9375 1144.5031 1108.1931 1152.2543 1106.0625 1159.6562 C 1103.9318 1167.0581 1100.5232 1180.083 1098.5 1188.5938 C 1096.4768 1197.1046 1091.9746 1210.4154 1088.4688 1218.1875 C 1084.9631 1225.9595 1082.0937 1233.1973 1082.0938 1234.2812 C 1082.0938 1238.5033 1090.5968 1247.0338 1105.3438 1257.5625 C 1113.8151 1263.6108 1122.295 1268.7712 1124.2188 1269.0312 C 1126.1425 1269.2913 1130.8577 1270.6584 1134.6875 1272.0938 C 1142.2252 1274.9184 1161.5257 1278.6026 1170.3438 1278.9062 C 1173.3564 1279.0099 1179.9589 1278.0395 1185.0312 1276.7188 C 1196.0682 1273.8447 1205.5756 1268.5119 1214.8438 1259.9688 C 1224.6563 1250.924 1229.077 1243.6938 1238.2812 1221.8438 C 1242.7625 1211.2053 1249.0824 1197.645 1252.3125 1191.6875 C 1260.6571 1176.2969 1286.1179 1118.1045 1295.3125 1093.4062 C 1306.9933 1062.0296 1311.6652 1041.851 1311.7812 1022.25 C 1311.8743 1006.5579 1311.6707 1005.5616 1306.0312 993.75 C 1296.3546 973.48305 1276.2696 956.27236 1251.125 946.6875 C 1241.7039 943.09627 1238.4906 942.69907 1218.125 942.625 L 1195.5938 942.5625 z M 576.84375 1204.5625 L 565.25 1215.75 C 557.10628 1223.5932 550.33234 1228.4735 542.53125 1232.125 C 536.41676 1234.9873 530.64118 1237.3438 529.6875 1237.3438 C 528.73381 1237.3438 526.24939 1241.0006 524.1875 1245.4688 C 517.89926 1259.0956 504.16677 1273.9665 487.0625 1285.6875 L 471.625 1296.25 L 470.34375 1304.3125 C 469.64312 1308.7444 466.36154 1325.9666 463.03125 1342.5625 C 455.45646 1380.3103 452.73123 1403.4097 450.5625 1448.6562 C 448.10632 1499.8999 450.66642 1511.804 468.125 1530.5938 C 491.95226 1556.2378 531.34842 1566.0302 569.84375 1555.875 C 594.06194 1549.4863 611.46027 1535.1443 622.125 1512.7812 C 630.58139 1495.049 633.49549 1481.0308 634.5 1452.8125 L 635.3125 1429.2188 L 643.4375 1429.2188 C 650.75243 1429.2188 652.03954 1428.666 656.21875 1423.9062 C 668.9675 1409.3862 677.07151 1365.0585 679.21875 1298.1562 L 680.25 1266.9062 L 674.90625 1261.5625 C 669.8595 1256.5158 661.12374 1252.8317 654.1875 1252.8125 C 652.2346 1252.8125 648.54317 1256.0431 644.28125 1261.5 C 634.77672 1273.6696 631.50961 1286.6653 624.5625 1339.8438 C 621.36601 1364.312 618.26719 1384.3437 617.6875 1384.3438 C 617.10783 1384.3438 615.52527 1381.5465 614.15625 1378.125 C 610.73641 1369.5779 610.93969 1348.8535 614.8125 1310.7812 C 618.42573 1275.2607 623.62855 1256.6404 632.84375 1246.2188 C 635.66801 1243.0248 637.96875 1239.7835 637.96875 1239 C 637.96875 1236.1742 629.68675 1227.8141 620.09375 1220.9688 C 608.6533 1212.8049 595.12864 1206.9603 584.4375 1205.5625 L 576.84375 1204.5625 z "
       style="fill:#552200" />
    <path
       id="path3182"
       d="M 1340.8438 1017.1875 C 1339.3431 1017.1925 1338.6125 1020.0074 1336.75 1030.1875 C 1331.0126 1061.5475 1310.6588 1112.7268 1277.3125 1179.6562 C 1270.6249 1193.0789 1262.4866 1210.6648 1259.2188 1218.75 C 1252.3719 1235.6907 1247.9803 1243.3048 1233.4062 1263.4375 C 1227.6267 1271.4213 1222.9062 1278.5102 1222.9062 1279.1875 C 1222.9062 1280.7247 1226.7985 1281.7977 1233.3438 1282.0312 C 1237.3166 1282.1736 1239.6557 1280.8969 1244.4688 1275.9375 C 1251.8154 1268.3671 1262.0222 1247.7974 1270.9375 1222.625 C 1279.5406 1198.3342 1282.5715 1192.8529 1296.5 1176.2188 C 1314.737 1154.4392 1336.5791 1107.83 1346.0938 1070.4062 C 1352.3809 1045.6771 1350.5716 1022.1645 1342.0312 1017.5938 C 1341.5792 1017.3518 1341.1901 1017.1863 1340.8438 1017.1875 z M 448.09375 1307 C 442.22679 1307.033 440.33766 1308.4849 439.125 1313.9375 C 438.55906 1316.4822 435.96645 1323.0321 433.375 1328.4688 C 423.31866 1349.5663 411.13172 1391.4592 407.375 1417.7812 C 406.32157 1425.162 405.79276 1442.396 406.125 1459.5625 C 406.61823 1485.0474 407.12102 1489.6763 409.90625 1495.75 C 412.67039 1501.7778 422.71408 1512.7813 425.46875 1512.7812 C 425.98322 1512.7812 426.02722 1509.4489 425.5625 1505.4062 C 424.22469 1493.7705 426.98491 1436.3059 429.78125 1417.5938 C 432.71542 1397.9591 437.39872 1374.7196 445.0625 1341.7812 C 448.03279 1329.0151 450.90006 1315.9727 451.4375 1312.7812 C 452.3735 1307.2231 452.23692 1306.9772 448.09375 1307 z "
       style="fill:#aa4400" />
    <path
       id="path3180"
       d="m 943.52386,900.65428 c -0.45419,0.0124 -0.86138,0.0899 -1.25727,0.24178 -4.53856,1.74162 -4.37365,2.04262 19.10077,29.40067 16.26946,18.96106 23.66908,30.96882 22.92091,37.23439 -0.93607,7.83923 -5.36579,9.25021 -54.93282,17.50501 -25.69404,4.27903 -47.62848,7.76759 -48.74321,7.73701 -1.11475,-0.0306 -7.25346,-7.76912 -13.6365,-17.21486 -14.31206,-21.17923 -37.35992,-46.51442 -42.84373,-47.09909 -2.12267,-0.22631 -18.77989,-4.01035 -37.04097,-8.41401 -18.26107,-4.40366 -33.63379,-7.61417 -34.13959,-7.10839 -0.50579,0.5058 2.31292,11.13741 6.28632,23.59791 9.57195,30.01732 11.18793,41.11206 8.84922,61.89614 -2.27272,20.19746 -7.62589,38.95726 -16.24774,57.06046 -12.40801,26.0531 -29.13581,43.4788 -52.75679,54.9329 -16.23252,7.8714 -32.41652,11.1347 -56.48022,11.3637 -23.62166,0.2247 -40.88795,-3.6317 -61.41258,-13.6848 -7.50271,-3.675 -13.82896,-6.4782 -14.0717,-6.238 -0.24276,0.2402 2.058,8.6987 5.07742,18.8107 3.01941,10.112 6.32816,24.6438 7.39852,32.302 l 1.98261,13.9267 8.65579,1.1121 c 11.66903,1.4576 28.31422,7.4113 44.19771,15.8609 17.10679,9.1003 23.89737,14.6547 28.38518,23.1143 3.54333,6.6792 3.95264,6.9412 12.47594,7.9305 7.64234,0.8869 10.80283,2.4237 23.30777,11.3638 11.7008,8.3652 15.29234,11.9328 19.0524,18.8105 l 4.64222,8.4625 0,35.9287 c 0,29.8975 0.38923,36.3271 2.3211,38.2015 1.49479,1.4504 12.2369,3.5522 30.17437,5.9479 28.86469,3.8549 41.57748,4.0297 71.18056,1.0154 31.76979,-3.235 73.58984,-15.0228 111.84826,-31.5766 53.84156,-23.2966 83.11969,-52.1389 113.34729,-111.5099 12.577,-24.7029 17.2557,-39.4488 18.1337,-57.254 l 0.7737,-15.619 -5.3192,-3.1432 c -15.005,-8.8531 -34.9633,-45.6223 -40.8612,-75.2908 -1.3787,-6.9355 -3.111,-13.2632 -3.8685,-14.0717 -0.7574,-0.8085 -1.4023,-8.3085 -1.4023,-16.683 0,-12.40116 0.6003,-16.4413 3.2399,-21.61525 2.4317,-4.76657 2.8663,-7.13068 1.7408,-9.57456 -2.0871,-4.53175 -47.08631,-52.29062 -60.05861,-63.73368 -11.86199,-10.46363 -16.84014,-14.01694 -20.01953,-13.92663 z m -78.24059,97.09957 c 32.12606,-0.57534 56.35297,12.98545 70.21343,39.50715 7.27221,13.915 10.30868,24.7401 11.46046,40.8611 0.78904,11.044 0.36147,15.1871 -2.36946,24.1782 -6.28709,20.6988 -25.42389,42.8091 -45.06813,52.0798 -9.1555,4.3208 -11.7531,4.8127 -27.90162,5.2225 -15.94704,0.4046 -18.68533,0.077 -26.69271,-3.2882 -15.29602,-6.4297 -35.86013,-23.7957 -43.42401,-36.7026 -8.97119,-15.3081 -11.63621,-46.4693 -5.56098,-64.459 6.9717,-20.6443 24.43763,-42.1852 41.73154,-51.4028 7.02869,-3.7462 11.65922,-5.00462 21.08337,-5.70601 2.21157,-0.1646 4.38638,-0.25178 6.52811,-0.29014 z"
       style="fill:#0000ff"
       inkscape:connector-curvature="0" />
    <path
       id="path3176"
       d="M 1047.6562 991.65625 C 1046.5945 992.00208 1044.741 994.32723 1043.5312 996.8125 C 1036.6461 1010.9565 1057.9964 1079.8783 1073.2812 1092.8125 C 1078.8615 1097.5344 1082.0981 1096.0138 1086.7188 1086.4688 C 1089.5816 1080.5549 1089.9381 1077.9487 1089.0625 1069.8125 C 1087.4181 1054.5309 1083.845 1042.806 1075.5312 1025.4375 C 1069.5963 1013.0387 1065.6835 1007.1523 1058.6875 1000.1562 C 1053.6734 995.14218 1048.718 991.31042 1047.6562 991.65625 z M 871.625 1016.5938 C 864.51855 1016.5958 857.40564 1018.0808 851.09375 1021.0312 C 829.1655 1031.282 813.14176 1057.9965 814.65625 1081.7812 C 815.87186 1100.8718 832.38124 1124.5565 850.25 1132.875 C 862.3366 1138.5017 880.1074 1138.3893 891.84375 1132.5938 C 903.30068 1126.9363 916.56871 1113.0932 922.9375 1100.1562 C 927.71886 1090.444 928.125 1088.4606 928.125 1074.875 C 928.125 1061.0751 927.76683 1059.5513 922.875 1050.5312 C 916.375 1038.5459 903.7961 1026.4562 892.125 1021 C 885.82155 1018.0532 878.73145 1016.5917 871.625 1016.5938 z "
       style="fill:#ffff00" />
    <path
       id="path3170"
       d="M 861.53125 139.03125 C 839.65689 138.85901 817.35247 147.7486 798.75 166.5 C 774.41521 191.0296 765.95368 221.78465 774.15625 256 C 779.07966 276.53696 790.90759 299.6412 796.46875 299.59375 C 797.38424 299.58575 805.43874 296.57272 814.375 292.90625 C 842.50859 281.36333 842.09121 282.02769 822.96875 278.75 C 813.93339 277.20128 806.1687 275.35307 805.71875 274.625 C 805.26878 273.89695 805.74224 250.14302 806.75 221.84375 C 808.11131 183.64984 809.12017 169.82838 810.625 168.21875 C 812.33892 166.3855 815.90174 168.59692 833.6875 182.53125 C 845.25813 191.59629 855.21278 199.03125 855.84375 199.03125 C 856.47474 199.03125 858.99642 193.62706 861.4375 187.03125 C 875.09555 150.12712 874.6494 151.0625 879.40625 151.0625 C 883.03268 151.0625 884.37979 152.20252 887.09375 157.625 C 888.90409 161.24205 897.03554 173.60428 905.15625 185.09375 C 928.89307 218.67737 938.15625 233.188 938.15625 236.65625 C 938.15625 238.44214 935.57381 242.53737 932.40625 245.78125 L 926.65625 251.6875 L 932.03125 250.6875 C 934.98604 250.14055 940.35169 248.42439 943.96875 246.875 C 950.41751 244.11265 950.55293 243.91775 950.5 236.625 C 950.409 224.10048 946.37597 205.61148 941.46875 195.125 C 924.49899 158.86147 893.50147 139.28298 861.53125 139.03125 z M 1157.5625 166.59375 C 1147.4012 166.66475 1139.1203 168.92726 1132.0938 173.53125 L 1127.9375 176.25 L 1142.125 180.4375 C 1158.5335 185.29967 1172.8796 192.03277 1182.3438 199.3125 C 1196.6227 210.29605 1205.3444 230.22647 1204 248.8125 C 1203.3786 257.40447 1203.6173 258.11629 1209.4688 265.15625 C 1212.8329 269.20381 1216.6505 274.95875 1217.9375 277.9375 C 1221.1803 285.44324 1221.1064 300.68603 1217.8125 306.84375 L 1215.1875 311.78125 L 1223.2812 314.8125 C 1246.5453 323.50436 1262.8197 325.01315 1280.8125 320.21875 C 1296.7535 315.97107 1299.599 319.41462 1289.5938 330.78125 C 1273.5011 349.06343 1240.0429 353.99002 1211.9688 342.21875 C 1206.4805 339.91767 1200.2201 337.28398 1198.0312 336.375 C 1194.387 334.86141 1192.5574 335.83224 1176.5 348.03125 C 1156.0712 363.5512 1144.5092 369.95719 1119.5625 379.46875 C 1099.7238 387.03272 1066.6485 397.09375 1061.625 397.09375 C 1058.6897 397.09375 1058.4884 397.78181 1059.2188 406.75 C 1059.6517 412.0692 1061.7794 420.61232 1063.9375 425.71875 L 1067.875 435 L 1090.0625 436.125 C 1102.2688 436.7406 1115.6414 437.95809 1119.7812 438.84375 C 1130.5803 441.15401 1146.2848 447.67977 1157.8125 454.65625 C 1169.8044 461.91362 1191.5399 480.12138 1197.4062 487.8125 C 1201.5411 493.23335 1201.8392 493.35265 1209.5625 492.375 C 1213.9153 491.824 1220.7438 490.32268 1224.7188 489.03125 C 1233.8193 486.07459 1244.8971 476.41656 1249 467.875 C 1252.4249 460.74493 1255.6664 448.12658 1254.0625 448.1875 C 1253.5147 448.2082 1249.9237 448.95365 1246.0938 449.84375 C 1236.8228 451.99842 1217.3995 451.92563 1206.3125 449.6875 C 1187.9149 445.97361 1167.8328 433.39384 1164.9375 423.78125 C 1163.54 419.14162 1165.1958 419.2914 1181.125 425.125 C 1188.3521 427.77171 1197.7407 430.87939 1201.9688 432.0625 C 1212.3302 434.96189 1229.9242 434.79098 1239.25 431.6875 C 1279.1798 418.39943 1319.8967 354.92453 1322.9688 301.15625 C 1324.929 266.84293 1309.2739 237.47507 1278.125 217.09375 C 1258.0463 203.95583 1239.7498 197.44516 1216.625 195.1875 C 1206.9897 194.24683 1205.8584 193.69327 1194.1875 184.125 C 1177.0095 170.04181 1169.6264 166.50948 1157.5625 166.59375 z M 1106.125 205.25 C 1087.0115 205.2881 1081.5675 206.95074 1067.75 217.09375 C 1061.1798 221.91671 1060.4693 222.95746 1062.9375 223.84375 C 1064.5369 224.4181 1078.0125 225.35003 1092.9062 225.9375 C 1122.8533 227.11872 1135.6822 229.27895 1158.6562 236.96875 C 1167.154 239.81308 1174.313 241.93705 1174.5625 241.6875 C 1174.8121 241.43795 1174.3003 239.36295 1173.4375 237.09375 C 1170.9044 230.43101 1158.6326 218.48428 1149.8125 214.0625 C 1136.9711 207.6247 1125.0561 205.21233 1106.125 205.25 z M 390.03125 965.09375 C 388.76131 965.09221 387.57988 965.10243 386.5 965.125 C 379.30076 965.2754 376.00012 965.94281 372.25 967.375 C 360.29917 971.93905 350.45856 982.50323 347 994.5625 C 345.61617 999.38758 346.20132 999.77436 356.875 1001.375 C 368.67424 1003.1444 370.53039 1010.4347 359.65625 1012.25 C 324.1378 1018.1792 285.7909 1049.1715 269.53125 1085.0312 C 262.76549 1099.9527 260.44209 1112.8546 260.4375 1135.9688 C 260.4325 1157.0945 262.41908 1169.043 268.09375 1182.2812 C 282.5566 1216.022 324.30133 1251.9122 367.15625 1267.4375 C 386.87686 1274.5818 395.48971 1275.9044 420.6875 1275.5625 L 444.0625 1275.2188 L 457.0625 1268.75 C 470.2944 1262.1448 488.28044 1248.7937 490 1244.3125 C 491.0357 1241.6135 487.90617 1240.0214 478.375 1238.2812 C 472.9269 1237.2864 472.71268 1237.3998 471.75 1242.5312 C 470.62281 1248.5397 468.75275 1250.5718 462.8125 1252.0625 C 457.42884 1253.4139 449.90349 1249.0341 447.46875 1243.1562 C 442.13976 1230.2911 455.80441 1198.3734 474.9375 1178.9375 C 482.95913 1170.7891 485.30286 1169.2186 489.78125 1169.2188 C 493.07691 1169.2188 496.1327 1170.3628 497.8125 1172.2188 C 501.54458 1176.3427 501.60248 1185.3941 497.875 1190.0312 C 496.21705 1192.0939 492.83413 1196.2735 490.375 1199.3438 C 487.91586 1202.4141 486.31595 1205.347 486.8125 1205.8438 C 488.75372 1207.7849 507.74961 1208.2063 515.96875 1206.5 C 533.25279 1202.9118 543.81812 1192.7411 549.09375 1174.5938 C 551.18657 1167.3945 551.53646 1161.4824 550.90625 1144.625 C 549.70757 1112.5622 545.52071 1102.9604 520.46875 1075.5 C 503.93552 1057.3772 499.18078 1050.4454 500.71875 1046.4375 C 502.27819 1042.3737 505.71294 1043.3928 520.03125 1052.3125 L 533.5 1060.75 L 535.40625 1056.5625 C 537.99928 1050.7735 537.81489 1037.1377 535.09375 1030.625 C 527.52117 1012.5013 485.65212 984.92668 444.53125 971 C 430.93672 966.39586 428.00844 965.9738 404.59375 965.34375 C 398.56466 965.18152 393.84107 965.09836 390.03125 965.09375 z M 339.90625 1062.4688 C 342.53493 1062.3535 344.91376 1063.4138 347.1875 1065.6875 C 349.94311 1068.4431 350.26229 1070.0686 349.40625 1076.9062 C 346.10612 1103.267 336.04904 1129.2566 325.4375 1138.8438 C 320.38505 1143.4081 317.96434 1144.4688 312.8125 1144.4688 C 307.44872 1144.4688 305.48845 1143.5197 300.28125 1138.3125 C 294.62024 1132.6515 294.20528 1131.6656 295.15625 1126.3438 C 296.71156 1117.6396 307.61523 1096.4731 318.28125 1081.4688 C 327.24825 1068.8543 334.12315 1062.7219 339.90625 1062.4688 z M 406.90625 1090.3125 C 410.37161 1090.3125 412.81022 1091.5033 415.09375 1094.4062 C 418.81463 1099.1366 418.72069 1100.0926 411.90625 1127.4375 C 406.59441 1148.7527 399.88653 1163.1026 392.6875 1168.5938 C 386.93645 1172.9802 377.71032 1174.6948 372.25 1172.375 C 363.88811 1168.8224 358.82216 1151.9311 362.96875 1141.375 C 366.76472 1131.7113 379.51849 1113.7594 391.1875 1101.625 C 400.17982 1092.2742 402.83881 1090.3125 406.90625 1090.3125 z "
       style="fill:#ffffff" />
    <path
       id="path3164"
       d="M 821.34375 81.625 C 805.25731 81.594054 790.47397 83.082364 779.5625 86.03125 C 754.08397 92.916979 721.33045 108.10327 683 130.8125 C 662.73201 142.82046 648.6899 154.52353 623.25 180.65625 C 591.64427 213.12272 588.32113 217.62042 543.0625 288.78125 C 526.83678 314.2932 495.90615 380.5183 486.6875 409.46875 C 482.24199 423.42947 468.55244 479.64376 464.5625 500.375 C 462.60714 510.53482 460.7518 512.09554 456.0625 507.40625 C 453.75623 505.09996 453.5339 502.57558 454.375 487.875 L 455.34375 470.96875 L 448.78125 471.96875 C 422.53587 475.94061 390.86821 506.84547 378.375 540.6875 C 370.6493 561.61515 372.38468 589.91433 382.71875 612.03125 C 386.50486 620.13422 393.99303 630.75 395.9375 630.75 C 396.12257 630.75 398.37019 627.09313 400.90625 622.625 C 406.49277 612.78241 423.9094 595.7549 434.5 589.78125 C 438.75536 587.38101 447.31488 582.32389 453.53125 578.53125 C 459.74762 574.7386 468.45297 570.64606 472.875 569.46875 C 484.41835 566.39547 516.00458 566.58502 522.125 569.75 C 524.71277 571.0882 527.65234 571.85399 528.65625 571.46875 C 529.66016 571.08351 539.51545 553.89209 550.5625 533.28125 C 567.5914 501.50984 573.94203 491.43888 592.25 466.96875 C 604.12681 451.0944 620.85734 430.88724 629.40625 422.0625 C 659.04347 391.469 703.29615 353.85438 733.90625 333.28125 C 749.93095 322.51101 772.68204 310.4375 776.9375 310.4375 C 780.40611 310.4375 777.96468 303.67797 768.5625 287.25 C 757.84388 268.5219 755.73709 261.20735 754.625 239.25 C 753.51211 217.27675 756.02794 203.89779 764.6875 186.0625 C 777.79989 159.05614 793.25855 142.60914 815.15625 132.3125 C 831.42094 124.66459 841.96521 122.7946 865.375 123.4375 C 886.29097 124.01189 886.4627 124.03734 899.53125 130.34375 C 906.7489 133.82671 917.01086 139.99739 922.34375 144.03125 C 945.93319 161.87461 964.53709 197.29912 967.21875 229.5 C 968.25301 241.91894 968.63085 243.15426 971.71875 243.59375 C 976.9325 244.33584 981.5 238.76868 981.5 231.625 C 981.5 223.33771 977.94899 208.63655 971.375 189.75 C 953.5991 138.6811 942.28005 124.06323 901.03125 98.78125 L 883.25 87.875 L 860.03125 84.46875 C 847.16085 82.588433 833.85542 81.649069 821.34375 81.625 z M 879.90625 159.375 L 860.15625 213.0625 L 816.15625 179.4375 L 811.6875 268.15625 L 836.65625 275.3125 L 835.34375 220.03125 L 868.9375 247 L 886.1875 202.9375 L 912.96875 253.3125 L 930.34375 235.125 L 879.90625 159.375 z M 1052.0938 254.09375 C 1030.8035 254.22017 1010.2299 255.14423 1000.8438 256.78125 C 936.70608 267.96736 856.34099 293.00226 804.28125 318.03125 C 783.27464 328.13068 730.27767 360.43515 705.59375 378.1875 C 691.01017 388.67582 638.28244 436.79802 622.84375 453.71875 C 615.29689 461.99007 612.26979 466.39408 613.34375 467.46875 C 619.06614 473.19489 665.71997 474.72875 686.28125 469.875 C 701.82632 466.20539 724.423 458.59477 746.28125 449.6875 C 770.38437 439.86543 834.31843 409.07852 853.96875 397.8125 C 863.40952 392.39987 880.49575 383.70442 891.90625 378.5 C 903.31672 373.29557 921.68607 363.86747 932.75 357.5625 C 943.81394 351.25753 956.71769 344.79536 961.40625 343.1875 C 966.09479 341.57964 981.04675 334.64063 994.65625 327.78125 C 1039.9696 304.94272 1101.1192 289.65766 1155.1875 287.65625 C 1168.5919 287.16008 1179.5625 286.29435 1179.5625 285.71875 C 1179.5625 285.14313 1178.0086 283.22312 1176.0938 281.46875 C 1164.9814 271.28795 1132.2156 259.16008 1107.625 256.125 C 1095.4012 254.6163 1073.384 253.96733 1052.0938 254.09375 z M 1066.6562 789.375 C 1064.0898 789.41939 1060.6364 789.57369 1056.9062 789.78125 L 1043.3438 790.53125 L 1034.625 805.40625 C 1018.3841 833.11288 1015.9552 836.21547 978.59375 877.1875 C 974.81526 881.33113 974.80348 881.4849 977.6875 883.59375 C 980.38866 885.56889 981.60146 884.9149 991.375 876.25 C 997.2728 871.0212 1012.6229 855.59307 1025.4688 841.96875 C 1049.3604 816.62914 1072.1277 790.44363 1071.0625 789.53125 C 1070.8989 789.39104 1069.2227 789.33061 1066.6562 789.375 z M 850.0625 793.21875 C 847.59086 793.21875 848.02957 827.96938 850.625 837.71875 C 853.82237 849.7292 858.80413 859.04089 864.84375 864.34375 C 869.51167 868.44223 871.35625 869.0625 879.21875 869.0625 C 884.18856 869.0625 891.09843 868.03469 894.5625 866.8125 C 898.02656 865.5903 904.5585 862.12691 909.0625 859.09375 C 913.56649 856.06058 918.0332 853.5625 919 853.5625 C 921.21144 853.5625 929.28826 844.76363 945.40625 824.8125 L 958.03125 809.21875 L 946.96875 803.21875 C 934.81987 796.65687 932.10714 796.42315 920.125 800.90625 C 902.50816 807.49755 882.74712 806.45502 862.4375 797.8125 C 856.52472 795.29638 850.96023 793.21875 850.0625 793.21875 z M 613.4375 875.15625 C 608.90457 875.16258 604.08732 875.26239 598.96875 875.46875 C 578.27959 876.30286 570.57366 877.31941 555.96875 881.09375 C 514.41244 891.83311 466.46339 914.19607 445.5625 932.59375 L 438.21875 939.0625 L 452.59375 944.84375 C 460.50174 948.02973 480.20463 957.29476 496.375 965.40625 C 519.35129 976.93174 527.80684 982.02791 535.0625 988.75 C 540.16894 993.48091 544.77949 997.36787 545.28125 997.40625 C 545.78301 997.44465 553.77694 991.13888 563.0625 983.375 C 585.72452 964.42673 589.07608 962.24945 615.3125 949.46875 C 666.83612 924.36977 687.35647 904.35646 674.65625 891.65625 C 663.06953 880.06952 645.16798 875.11197 613.4375 875.15625 z M 712.09375 892.25 C 711.33435 892.25 710.6875 897.19807 710.6875 903.21875 L 710.6875 914.15625 L 702.03125 923.25 C 695.11422 930.50178 685.27153 937.16802 653.65625 956 C 631.83456 968.99833 612.25078 980.54632 610.125 981.6875 C 600.49822 986.85544 596.50893 993.19629 587.71875 1017.25 C 584.07271 1027.2272 578.54932 1041.4101 575.46875 1048.75 C 572.38816 1056.0901 569.49662 1065.1199 569.03125 1068.8438 L 568.1875 1075.625 L 577.9375 1082.75 C 591.77202 1092.8768 607.21758 1098.7746 635.65625 1104.7812 C 645.63307 1106.8885 655.6784 1105.5464 672.4375 1099.8125 C 682.08506 1096.5117 693.0577 1092.2378 696.84375 1090.3125 C 705.84308 1085.7364 725.53753 1065.6592 732.25 1054.2188 C 739.70185 1041.5182 746.09148 1022.4394 748.6875 1005.2188 C 751.6928 985.28307 751.50456 976.92975 747.6875 962.53125 C 745.90285 955.7993 743.58841 945.95651 742.53125 940.65625 C 739.91515 927.53992 731.71945 911.99569 721.75 901.21875 C 717.19018 896.28964 712.85314 892.25 712.09375 892.25 z M 918.84375 918.84375 C 917.22315 918.47877 870.36468 927.78245 863.4375 929.84375 C 862.75276 930.04751 866.85477 936.83655 872.5625 944.90625 C 891.21664 971.27983 889.83894 969.81943 895.34375 968.8125 C 898.04611 968.3182 912.73458 965.66916 927.96875 962.90625 L 955.65625 957.875 L 938.3125 938.625 C 928.77639 928.02566 920.0178 919.10816 918.84375 918.84375 z "
       style="fill:#ff0000" />
    <path
       id="path3156"
       d="m 979.50099,359.93347 c -4.18806,0 -23.88917,9.04717 -52.17651,23.98475 -13.19162,6.96604 -40.52263,21.26523 -60.73559,31.77013 -20.21296,10.50489 -36.75083,19.66471 -36.75083,20.35803 0,0.6933 2.0004,1.25726 4.40043,1.25726 18.80245,0 42.02167,56.04731 42.02167,101.35493 0,23.17949 -5.94557,34.4678 -18.90733,35.92878 -18.7759,2.11632 -30.99207,-14.95122 -42.36017,-59.18819 -3.69475,-14.37749 -4.34909,-20.13413 -4.40043,-37.86303 -0.0605,-20.86402 0.19263,-22.23959 6.52811,-34.33301 0.31837,-0.60774 -6.64425,2.2664 -15.47404,6.4314 -32.49328,15.32703 -75.96143,31.38012 -107.97975,39.89399 -18.97086,5.04448 -22.75253,5.58461 -41.19962,5.56098 l -20.30967,-0.0483 1.49905,5.56099 c 4.14733,15.46642 25.36576,53.99166 33.4626,60.78394 2.34481,1.96703 10.85346,6.90911 18.95569,10.97689 25.22715,12.66542 32.37976,21.29133 32.35041,39.1203 -0.02,12.08698 -4.91553,22.47702 -15.23226,32.15698 -5.32215,4.99365 -7.9788,8.66128 -7.9788,11.17032 0,5.51278 -5.10479,18.10096 -9.96141,24.46831 -2.33258,3.0582 -8.04184,7.40724 -12.66936,9.67128 -11.89448,5.81941 -22.67955,4.71107 -40.6677,-4.15865 -11.57028,-5.70515 -15.81125,-9.02721 -32.78561,-26.01572 -12.14294,-12.15306 -23.03352,-24.81167 -28.9171,-33.60767 -5.19091,-7.76045 -12.28791,-16.61573 -15.81253,-19.63268 -11.88705,-10.17488 -38.18669,-17.61964 -56.48023,-16.00596 -32.62482,2.87785 -62.54684,23.27624 -77.22511,52.61172 -7.42769,14.84467 -10.20319,26.69231 -10.20319,43.61744 0,64.83905 56.18531,113.69938 130.61053,113.63744 21.80048,-0.0181 38.17665,-2.43433 56.67365,-8.41401 25.61996,-8.28238 23.42712,-8.98611 47.05074,15.23226 35.38667,36.27753 68.29626,57.97455 120.02048,79.15936 37.43667,15.333 70.72764,20.49319 103.19247,16.05431 34.0485,-4.65543 73.17885,-25.06874 101.35493,-52.8535 9.83869,-9.70204 29.88484,-35.0094 28.67532,-36.21892 -1.53239,-1.5324 -15.98416,2.57148 -17.35993,4.93235 -15.25777,26.18325 -46.44374,54.66575 -73.25988,66.87685 -11.60779,5.28576 -36.9256,6.75242 -47.38924,2.75631 -12.41822,-4.74256 -24.39911,-21.3096 -29.20724,-40.42592 -1.3037,-5.18327 -3.09377,-24.66945 -4.11029,-44.77798 -1.54743,-30.61029 -2.74081,-41.3041 -7.06003,-62.283 -0.53127,-2.58048 -1.80028,-3.47045 -4.93235,-3.48165 -18.54867,-0.0664 -43.62915,-29.21837 -50.58075,-58.80134 -5.84154,-24.85906 -0.6828,-60.09813 11.07361,-75.58099 3.70399,-4.87803 4.45013,-5.16145 11.36374,-4.49714 7.69878,0.73975 18.31476,5.49739 47.0991,21.18009 30.77864,16.76926 71.47778,27.90818 102.17698,27.94997 8.73819,0.0124 10.00802,0.51786 20.11625,7.83373 17.06152,12.34836 25.02272,16.3231 44.101,22.09886 27.017,8.17911 42.9509,9.6071 75.9678,6.67318 40.116,-3.56477 53.2734,-9.33708 75.8712,-33.22082 13.1029,-13.84855 19.9685,-24.70637 25.7739,-40.76441 3.7062,-10.25147 4.0709,-13.45978 4.0619,-33.0274 -0.01,-19.68068 -0.3929,-22.79678 -4.3037,-34.04287 -11.6257,-33.4319 -39.9569,-61.18267 -68.7627,-67.36041 -4.7866,-1.02653 -20.3212,-1.51966 -39.3137,-1.20891 l -31.4317,0.53192 -10.3482,4.88399 c -17.8197,8.39643 -38.77129,23.01976 -50.00051,34.91329 -5.83304,6.17814 -14.0827,14.93624 -18.32706,19.43926 -7.70341,8.17286 -12.10749,9.67458 -13.10457,4.49714 -0.88027,-4.57086 7.90174,-21.17298 18.85898,-35.68699 l 10.34826,-13.73321 -4.83564,-19.53597 c -6.19506,-24.92676 -7.99289,-55.09171 -3.91686,-65.76465 6.7604,-17.70187 23.15094,-20.89276 35.7353,-6.96331 7.0864,7.84379 13.346,20.94743 18.5689,39.12029 2.1865,7.60775 4.2724,14.1371 4.6422,14.50691 0.3698,0.3698 1.7331,0.26219 3.0465,-0.24178 7.2474,-2.7811 -3.8188,-37.0047 -19.3909,-59.96189 -7.6828,-11.32634 -25.89422,-29.25559 -29.73921,-29.25559 z M 481.57556,640.98063 c 1.58685,-0.0405 3.62587,0.002 6.28633,0.0483 37.49443,0.65806 73.80647,24.87087 82.83444,55.27132 3.72765,12.55239 2.99995,28.30147 -1.69247,37.71796 -7.21254,14.47367 -22.87645,25.23426 -41.10291,28.19175 -9.74162,1.58071 -21.58602,1.8697 -26.16079,0.62864 -3.2716,-0.88753 -6.27797,-6.11772 -5.17413,-8.99429 0.65517,-1.70731 3.19406,-2.4299 8.89757,-2.46617 6.31508,-0.0402 10.96577,-1.55783 22.63078,-7.35017 13.14516,-6.52732 15.06866,-7.99449 18.18199,-14.16841 4.43462,-8.79414 4.85009,-23.1669 0.7737,-26.74107 -4.80529,-4.21327 -11.72113,-6.96042 -24.37161,-9.71962 -14.92874,-3.25611 -17.79514,-4.61238 -17.79514,-8.41401 0,-2.24552 1.8091,-3.30179 7.83373,-4.59386 4.29725,-0.92158 10.04199,-1.70539 12.76608,-1.74082 l 4.93235,-0.0483 -6.18961,-5.56098 c -3.40429,-3.04269 -15.59009,-10.11879 -27.07956,-15.76418 -16.43691,-8.0763 -20.88995,-10.95961 -20.88995,-13.39471 0,-2.12836 0.55864,-2.77963 5.3192,-2.90138 z"
       style="fill:#ffccaa"
       inkscape:connector-curvature="0" />
    <path
       id="path3134"
       d="m 861.88841,272.72238 c 20.07047,-8.12605 28.52099,-11.1623 37.0678,-13.31838 l 6.43338,-1.62292 -8.6272,-19.32142 c -4.74495,-10.62679 -9.07669,-19.32143 -9.6261,-19.32143 -0.54939,0 -3.74017,8.4861 -7.0906,18.858 -3.35044,10.37189 -6.81246,19.08419 -7.69342,19.36065 -0.88093,0.27644 -7.97629,-4.728 -15.76745,-11.12099 -7.79116,-6.393 -14.65136,-11.62363 -15.24488,-11.62363 -0.59352,0 -0.60845,6.78923 -0.0331,15.08719 1.17974,17.01675 2.62571,29.78751 3.37268,29.78751 0.27563,0 8.01964,-3.04407 17.20894,-6.76458 z"
       style="fill:#ffffff"
       inkscape:connector-curvature="0" />
  </g>
  <g
     transform="matrix(2.2116428,0,0,2.2116428,19.024277,-306.96682)"
     id="layer1"
     inkscape:label="Layer 1"
     style="fill:#ffffff">
    <path
       sodipodi:nodetypes="cccccccccccccccccccccccccccccccccccccccccccccccccccccccccccccccccccccccccccccccccccccccccccccccccccccccccccccccccccccccccccccccccccccccccccccccccccccccccccc"
       inkscape:connector-curvature="0"
       id="path3014"
       d="m 307.1875,905.71875 c -14.71172,3.2326 -22.31955,18.30825 -29,30.40625 -4.49318,7.45262 -6.22013,17.19447 -14.625,21.25 -17.76798,12.53713 -38.12863,22.31396 -59.3125,27.46875 -0.3142,-4.64999 6.61897,-9.94743 2.8125,-14.34375 -4.61504,-3.16743 -8.625,3.63785 -12.08529,5.76466 -4.75886,3.82132 -11.03967,10.61276 -17.60221,7.95409 -1.45825,-3.41545 3.35251,-6.22842 4.96875,-8.75 6.89968,-7.22275 16.12499,-11.73841 25.71875,-14.0625 3.45541,-2.64846 -0.33029,-8.46633 -4.34375,-6.28125 -25.81695,3.40362 -48.32781,18.63648 -72.625,26.9375 -2.26497,-1.0872 -0.0214,-5.3822 0.3125,-7.3125 0.69983,-4.83164 5.53748,-9.1608 4.46875,-14.0625 -3.21407,-5.06602 -8.56513,0.90827 -12.25,2.15625 -3.12208,1.37389 -6.62086,2.61142 -10.0625,1.875 4.70771,-1.97528 6.88597,-9.9423 1.125,-11.9375 -6.01239,-2.32388 -13.33293,3.59621 -11.71875,10 -14.010472,8.59332 -28.639706,19.44401 -45.65625,19.84375 -3.977455,-0.2357 -9.543485,-3.35825 -10.75,-5.78125 10.041957,-1.90604 22.179135,-5.00562 27.21875,-14.65625 2.262241,-5.309 -4.47016,-8.56583 -8.90625,-7.375 -8.691717,1.27006 -17.056005,5.16909 -24.21875,10.21875 4.806918,-8.62423 8.067377,-18.4849 16.618819,-24.18222 6.854974,-7.48036 16.669092,-12.99465 21.099931,-22.19278 1.624579,-3.59966 0.229384,-9.53363 -4.6875,-8.65625 -13.149714,2.38383 -19.00283,16.15481 -25.720468,26.14628 -5.128464,10.90567 -16.46923,16.78085 -25.531196,24.10028 -6.453101,5.05244 -14.2669788,8.3473 -20.842086,12.97219 -2.55369492,3.45819 2.527214,7.43068 5.5432678,4.69451 C 17.099482,972.73738 26.522343,966.52557 35.3125,959.625 c -4.139619,8.90878 -9.77205,17.12347 -14.78125,25.34375 -0.902765,4.72442 6.033614,5.59731 7.647675,1.53819 3.313282,-1.50474 6.918628,-11.09571 10.172939,-6.97828 6.622204,7.95413 17.740297,13.23821 27.987462,8.98787 14.523745,-3.9432 27.587521,-12.09399 40.379424,-19.51653 5.38263,4.27985 13.55118,2.55565 18.9375,0.78125 -1.63961,5.42026 -5.57267,13.99062 0.125,18.25 8.03523,3.02658 16.46537,-2.8487 23.90625,-5.40625 9.44559,-4.22777 18.6742,-9.05396 28.3125,-12.75 -5.06354,4.26202 -11.68828,12.72609 -5.90625,19.09375 6.41129,6.45541 16.30824,1.32417 22.3125,-3.125 2.86844,-2.86561 2.3499,-0.93577 2.625,1.78125 1.55762,6.42871 10.26403,4.35012 14.75,2.875 18.181,-5.68964 35.68488,-13.61512 51.40625,-24.1875 -3.09137,4.68634 -9.28262,6.85923 -12.84375,11.53125 -9.49825,10.26876 -17.39725,22.45595 -22.03125,35.59375 -1.55256,4.143 3.01827,8.5437 6.84375,5.5 14.08991,-8.5066 21.61969,-24.14295 28.90625,-38.3125 6.12784,8.37994 18.00317,4.00086 25.48818,0.0528 6.54492,-3.31279 13.42004,-7.93069 19.07432,-11.58404 -2.73396,5.77843 -9.05798,13.70543 -4.40625,19.96875 6.59085,4.87066 15.37199,-0.386 21.90625,-2.84375 14.65417,-6.06584 30.86286,-12.91659 44.4375,-19.21875 -2.47395,6.7757 -9.52748,14.05773 -6.40625,21.6875 4.04945,5.50959 12.09614,1.29037 16.6875,-1.4375 3.22197,-1.83266 6.30211,-3.85806 9.28125,-6.03125 -11.26251,22.08054 -23.40224,43.88534 -34.15625,66.12504 -0.42962,4.5933 6.93936,5.0525 7.4375,0.4687 18.20659,-34.6902 46.69445,-65.69557 83.46875,-80.46874 -2.13196,4.89827 -6.4945,9.57251 -6.71875,15 0.92885,4.27254 6.08451,2.99085 8.46875,0.75 12.46683,-6.41835 24.09662,-14.58749 36.90625,-20.03125 3.79065,-0.22644 -0.4504,4.1045 -1.6875,4.875 -4.66637,5.09457 -11.93334,9.64567 -12.90625,16.90625 0.29815,6.46911 8.91037,5.16179 13.0625,3.875 14.87586,-4.41255 29.286,-12.8292 43.125,-18.21875 -4.73844,4.60775 -10.95448,13.33586 -5.5625,19.53125 6.5432,4.49225 15.48917,1.10289 21.96875,-1.9375 4.07073,-1.64561 7.51574,-6.11909 10.59375,-7.84375 11.21459,6.73753 25.03522,1.91412 34.96875,-4.9375 3.3901,-2.00278 7.21329,-4.41192 10.46875,-5.90625 -5.58554,4.91117 -10.65751,15.68604 -3.53125,21.375 7.61339,3.73906 16.78005,-0.96777 23.40625,-5 3.24806,-1.2653 5.36119,-7.06454 9,-4.125 16.42108,5.23772 32.7501,-4.80599 45.02436,-14.84232 4.13191,-3.182 8.29346,-6.35169 12.22564,-9.81393 -5.31916,10.26858 -11.98388,19.90958 -17.03125,30.125 -0.49864,4.09834 5.59569,5.53495 7.0625,1.5625 2.64026,-4.09774 5.67399,-8.46014 9.34375,-11.3125 6.02954,8.65389 16.67474,15.7423 27.59375,12.21875 9.74307,-3.03334 18.52872,-9.03529 27.5,-13.75 3.03709,-3.21437 -1.87192,-7.93085 -5.14998,-5.15782 -10.47537,4.04906 -19.82916,13.90285 -31.66252,12.25157 -4.52303,-1.08295 -7.92613,-4.49532 -10.90625,-7.875 10.54297,0.9282 25.01422,-1.47982 28.09375,-13.25 1.64375,-5.33733 -4.15031,-9.00596 -8.90625,-7.34375 -8.09207,1.79359 -15.53825,6.07461 -22.28125,10.5625 6.46033,-10.0854 10.72311,-22.02292 20.76517,-29.19847 5.39939,-6.31867 14.53688,-10.60261 16.73483,-19.05153 1.34402,-5.33373 -5.26935,-7.1783 -9,-5.03125 -13.99117,6.08419 -15.58213,24.59105 -27.9645,32.73393 -11.22813,9.7133 -23.10104,18.94227 -35.69175,26.64107 -7.06027,3.19202 -15.67731,6.57511 -23.34375,3.71875 4.61718,-4.07491 5.04961,-14.59461 -2.65625,-15.15625 -1.65521,0.0963 -1.70426,-3.97896 -4.5,-3.5 -17.32807,-1.16302 -31.86976,9.46786 -46.15625,17.375 -5.75944,3.13473 -14.28972,4.19517 -19.5625,0.40625 2.58714,-4.27564 4.60926,-12.7884 -1.71875,-14.71875 -2.1181,0.17588 -2.70945,-0.71527 -3.90625,-2.25 -4.5378,-1.78758 -9.71491,1.45843 -14.36936,1.98785 -19.95433,5.19458 -37.49654,16.70318 -56.94314,23.13715 -3.10773,0.2978 5.08662,-5.45088 5.83601,-7.23343 4.00473,-4.01439 10.27987,-11.11952 5.66399,-16.82907 -5.94814,-4.4387 -13.57815,0.87543 -19.375,3.21875 -7.09549,3.53962 -13.97279,7.47982 -20.84375,11.4375 3.43684,-3.71196 6.33395,-12.64463 -0.9375,-13.65625 -9.25883,0.56619 -17.66616,6.18686 -25.71875,10.4375 -13.40765,8.20068 -25.72044,18.23984 -36.71875,29.4375 5.00475,-10.40073 11.39111,-20.42751 15.75,-31 -0.1361,-4.61402 -6.69569,-4.37374 -8.5,-0.75 -7.7552,6.35493 -15.92691,13.37473 -25.25,16.84375 2.35111,-9.9311 8.98736,-18.09989 14.6875,-26.1875 0.87541,-4.38085 -5.28925,-5.86264 -7.78329,-2.64076 -20.72121,10.75501 -42.01504,21.30789 -64.46671,27.60951 -4.29363,0.4375 -0.56402,-5.5534 -0.0312,-7.40625 4.02649,-7.4485 7.49737,-15.69554 14.21875,-21.15625 14.07466,-2.25693 28.94369,-4.0771 41.65625,-10.59375 3.22227,-2.96923 -1.57748,-8.05825 -5,-5.4375 -8.7947,3.12637 -17.9193,5.39223 -27.125,7.1875 7.91717,-7.49231 17.67132,-15.44826 19.5625,-26.75 0.40603,-5.58731 -6.88301,-6.24926 -9.9375,-2.9375 -10.26201,8.83455 -16.82263,21.12247 -24.90625,31.875 -5.39294,1.36656 -11.77239,-1.04688 -16.75,1.46875 -2.9998,3.19893 1.15784,7.81189 5,6.3125 5.248,-0.65652 5.79678,0.33344 1.3125,3.09375 -11.73649,7.42951 -23.00594,17.42722 -37,19.78125 -5.50316,0.80891 -7.70271,-7.08217 -3.90836,-10.46453 2.82449,-6.89552 6.48518,-13.10103 12.76746,-17.33951 10.53865,-10.22531 21.42681,-21.25363 28.7659,-34.10221 2.70467,-4.39887 1.89837,-11.6805 -4.8125,-10.625 z m -2.25,8.4375 c -4.78801,9.13942 -13.17939,16.15209 -19.65625,24.15625 4.76485,-9.24782 9.92958,-19.5758 19.65625,-24.15625 z m -19.65625,24.1875 c -0.0939,0.1896 -0.072,-0.0374 0,0 z m 427.625,23.34375 c -3.33484,4.57409 -9.44699,6.12331 -14.875,6.28125 4.65588,-2.74903 9.62169,-5.13891 14.875,-6.28125 z m -648.0625,0.59375 c -5.208909,4.12625 -11.763358,6.37175 -18.1875,7.34375 5.248273,-3.64473 12.589429,-6.96829 18.1875,-7.34375 z m 556.28125,2.1875 c -2.06625,3.18155 -2.356,7.55272 -0.5,10.90625 -5.66049,4.69743 -12.87332,10.38816 -20.65625,9.21875 -2.13845,-4.41087 3.80988,-8.44302 6.3125,-11.1875 4.30874,-3.77174 9.04266,-7.54355 14.84375,-8.9375 z m -74,0.625 c -1.78715,3.32412 -0.75715,7.6505 0.875,10.46875 -5.18101,5.62811 -13.3514,10.43059 -21.0625,9 0.96405,-6.98696 8.09857,-11.95726 13.40625,-15.9375 2.08156,-1.26782 4.87872,-3.05281 6.78125,-3.53125 z M 253.1875,986.0625 c -4.06513,7.33049 -7.93106,14.7574 -14,20.6875 3.45475,-7.87939 8.80986,-14.65723 14.25,-21.1875 z"
       style="color:#000000;font-style:normal;font-variant:normal;font-weight:normal;font-stretch:normal;font-size:medium;line-height:normal;font-family:Sans;-inkscape-font-specification:Sans;text-indent:0;text-align:start;text-decoration:none;text-decoration-line:none;letter-spacing:normal;word-spacing:normal;text-transform:none;direction:ltr;block-progression:tb;writing-mode:lr-tb;baseline-shift:baseline;text-anchor:start;display:inline;overflow:visible;visibility:visible;fill:#ffffff;fill-opacity:1;stroke:none;stroke-width:4;marker:none;enable-background:accumulate" />
  </g>
</svg>
