<?xml version="1.0" encoding="UTF-8" standalone="no"?>
<!-- Created with Inkscape (http://www.inkscape.org/) -->

<svg
   xmlns:dc="http://purl.org/dc/elements/1.1/"
   xmlns:cc="http://creativecommons.org/ns#"
   xmlns:rdf="http://www.w3.org/1999/02/22-rdf-syntax-ns#"
   xmlns:svg="http://www.w3.org/2000/svg"
   xmlns="http://www.w3.org/2000/svg"
   xmlns:sodipodi="http://sodipodi.sourceforge.net/DTD/sodipodi-0.dtd"
   xmlns:inkscape="http://www.inkscape.org/namespaces/inkscape"
   id="svg3542"
   version="1.1"
   inkscape:version="0.91 r13725"
   width="577"
   height="817"
   sodipodi:docname="KraftyNook_SuperMarioBros_Peach~.svg">
  <metadata
     id="metadata3548">
    <rdf:RDF>
      <cc:Work
         rdf:about="">
        <dc:format>image/svg+xml</dc:format>
        <dc:type
           rdf:resource="http://purl.org/dc/dcmitype/StillImage" />
        <dc:title></dc:title>
      </cc:Work>
    </rdf:RDF>
  </metadata>
  <defs
     id="defs3546">
    <inkscape:path-effect
       effect="spiro"
       id="path-effect3033"
       is_visible="true" />
    <inkscape:path-effect
       effect="spiro"
       id="path-effect3028"
       is_visible="true" />
    <inkscape:path-effect
       effect="spiro"
       id="path-effect3022"
       is_visible="true" />
    <inkscape:path-effect
       effect="spiro"
       id="path-effect3630"
       is_visible="true" />
  </defs>
  <sodipodi:namedview
     pagecolor="#ffffff"
     bordercolor="#666666"
     borderopacity="1"
     objecttolerance="10"
     gridtolerance="10"
     guidetolerance="10"
     inkscape:pageopacity="0"
     inkscape:pageshadow="2"
     inkscape:window-width="1280"
     inkscape:window-height="715"
     id="namedview3544"
     showgrid="false"
     inkscape:zoom="0.40063058"
     inkscape:cx="181.3924"
     inkscape:cy="24.423174"
     inkscape:window-x="0"
     inkscape:window-y="0"
     inkscape:window-maximized="1"
     inkscape:current-layer="svg3542" />
  <g
     id="g10521">
    <path
       sodipodi:nodetypes="sssssssscssssccscsscsssssscscsssssssssscccsscccsscsssssssssssssscssssssssssssssssssssssssscsssssssss"
       inkscape:connector-curvature="0"
       id="path3624"
       d="m 213,774.86718 c -29.12478,-2.37027 -55.53184,-9.71226 -65.69726,-18.26589 -1.9881,-1.67288 -5.6318,-3.06495 -10.83607,-4.13993 C 126.08951,750.3179 117.40031,746.74662 108.62633,741.0189 101.06019,736.07967 94,728.80551 94,725.94929 c 0,-0.92989 0.693526,-8.38639 1.541169,-16.57 6.449611,-62.2681 19.810151,-113.46566 40.130051,-153.7783 10.1343,-20.10543 16.80098,-30.30925 28.68995,-43.91195 l 5.95289,-6.81096 -3.28503,-7.95656 c -3.46706,-8.39744 -3.62298,-12.02 -0.76403,-17.7509 1.08246,-2.16984 1.13786,-3.48909 0.25647,-6.10685 -0.90307,-2.68215 -2.08816,-3.71772 -6.02348,-5.26353 -10.387,-4.08005 -19.26515,-13.24278 -23.06104,-23.80024 -6.05927,-26.3652 0.45872,-51.85661 16.61361,-67.99615 8.44789,-8.32015 8.78294,-8.8231 9.45364,-14.19118 l 0.69534,-5.56532 -5.04584,-1.21048 c -12.54899,-3.01045 -22.34423,-15.31855 -26.39615,-33.16775 l -1.50526,-6.63089 8.97065,-0.70176 c 11.6559,-0.91182 18.09802,-2.86311 20.82867,-6.30889 1.87616,-2.36751 2.09798,-3.63363 1.68035,-9.59106 -0.5091,-7.26211 -1.38198,-8.57831 -5.73196,-8.64317 -10.00153,-0.14912 -25.56518,-14.93593 -33.01576,-31.36783 -3.82621,-8.43853 -7.78065,-23.96195 -8.61176,-33.80609 l -0.64845,-7.68058 4.2656,1.46962 c 2.34609,0.80829 4.40311,1.33212 4.57117,1.16406 0.16806,-0.16805 -1.25761,-3.4547 -3.16814,-7.30365 -6.98931,-14.08061 -8.24567,-38.1478 -2.83504,-54.30876 0.3028,-0.90441 2.0789,0.12592 5.46493,3.17024 10.29023,9.2518 19.86753,11.80701 28.24168,7.53484 2.3015,-1.17414 10.27108,-8.04042 17.71016,-15.25839 12.11325,-11.75322 14.60093,-13.67093 23.82357,-18.3652 C 198.46183,132.35872 203.75791,130 204.56701,130 c 1.11215,0 1.29598,-0.671 0.75341,-2.75 -1.168,-4.47555 -0.62109,-12.16476 1.21785,-17.12201 2.10931,-5.68612 7.77598,-11.818463 11.72184,-12.685121 l 2.94094,-0.645938 -0.73062,-15.589467 -0.73063,-15.589467 4.04684,3.441001 c 2.22577,1.892551 6.71997,5.792287 9.98712,8.666079 l 5.94028,5.225077 14.12527,-13.011711 14.12527,-13.011711 13.76771,9.848409 c 7.57224,5.416625 15.96943,11.348913 18.66042,13.182861 l 4.89271,3.334452 5.10729,-1.825201 C 313.20172,80.463392 324.05,76.347617 334.5,72.321085 c 10.45,-4.026531 19.37325,-7.320993 19.82946,-7.321026 0.4562,-3.2e-5 0.56232,1.237441 0.23583,2.749941 -0.32649,1.5125 -1.71188,10.364971 -3.07864,19.672158 -2.27916,15.520272 -2.35295,17.068102 -0.89076,18.683802 4.23203,4.67634 5.63541,16.92693 2.79449,24.39404 -0.83701,2.2 -1.76232,4.75915 -2.05626,5.68699 -0.41024,1.29497 1.17359,2.54559 6.81573,5.3818 8.96143,4.50478 13.4349,7.52607 26.35015,17.79633 11.07722,8.80867 21.04482,14.10953 28.44496,15.12731 9.29386,1.27823 23.03355,-4.02035 36.05456,-13.9041 9.08079,-6.89287 8.39998,-7.42312 7.70795,6.00338 -1.05632,20.49444 -7.32159,39.84839 -16.64192,51.40829 -2.43895,3.025 -4.80145,5.65 -5.25,5.83333 C 434.367,224.01667 434,224.64212 434,225.22324 c 0,1.06441 8.06827,0.55614 12.75,-0.80321 2.0588,-0.59778 2.24936,-0.32472 2.24245,3.21334 -0.0452,23.13401 -15.15171,52.88892 -31.21663,61.48661 -1.74313,0.93289 -1.87035,1.78421 -1.30122,8.707 1.04454,12.70542 2.34197,16.89598 6.6252,21.39859 3.75892,3.95144 3.99362,4.04195 8.95731,3.45407 5.52564,-0.65443 13.7645,-4.07738 21.03044,-8.73741 C 455.6107,312.324 458.0419,311 458.49021,311 c 1.45786,0 -0.39543,23.24688 -2.63083,33 -1.45815,6.36195 -2.10394,12.14593 -1.95504,17.51018 0.38166,13.74953 -4.83551,31.51044 -11.09557,37.77281 -2.20966,2.21049 -2.30998,2.97302 -2.33691,17.76332 -0.0234,12.86333 -0.41529,16.93581 -2.33779,24.29578 -3.47369,13.29841 -8.57963,25.13735 -15.17026,35.17471 -6.96725,10.61092 -7.8658,13.78014 -5.38767,19.0024 2.59478,5.4681 8.26914,7.72597 19.3372,7.69442 4.72266,-0.0135 11.88088,-0.78532 15.90714,-1.71524 4.02627,-0.92991 7.53036,-1.48088 7.78687,-1.22437 1.01467,1.01467 -5.82516,17.40759 -10.17544,24.38733 -8.59065,13.78312 -25.34722,28.51874 -35.85514,31.53075 -2.24222,0.64272 -4.23401,1.28217 -4.4262,1.42101 -0.19218,0.13883 2.70652,5.12018 6.44156,11.06966 12.1926,19.42138 27.17938,53.32662 35.28187,79.81966 5.02242,16.42202 9.07313,34.75004 12.22372,55.30806 l 2.97227,19.39438 -2.49677,4.26042 c -3.10253,5.29406 -8.12092,9.76509 -14.70602,13.10202 -5.78226,2.93009 -18.5881,6.4327 -23.51851,6.4327 -2.24177,0 -4.77321,1.10057 -7.73961,3.36487 -5.57678,4.25686 -16.9617,9.01655 -28.3021,11.83225 -7.2777,1.80698 -11.75893,2.1929 -25.80698,2.22249 -9.35,0.0197 -19.925,-0.1598 -23.5,-0.39888 -5.11345,-0.34196 -8.95313,0.22875 -18,2.67544 -29.6971,8.03147 -72.57667,11.21665 -110,8.17101 z"
       style="fill:#000000" />
    <path
       id="path3622"
       d="M 192.75 370.625 C 155.15511 371.41417 136.48906 411.65906 148.8125 441.5 C 151.5515 447.45778 154.92051 451.24669 160.9375 455.125 C 166.57322 458.75757 168.61262 458.79501 169.3125 455.25 C 169.73841 453.09274 169.13321 451.7456 166.5625 449 C 161.87635 443.99503 160 440.9027 160 438.21875 C 160 436.12471 160.50718 436.39072 164.875 440.875 C 170.90284 447.06356 173.4448 447.83278 178.875 445.0625 C 181.13689 443.90857 184.9612 442.70585 187.375 442.375 C 194.18559 441.44151 194.45963 441.07941 192.9375 434.875 C 192.21392 431.92555 191.65592 425.675 191.6875 421 C 191.79668 404.84144 199.07974 390.69006 212.5625 380.40625 C 214.45815 378.96037 216 377.46887 216 377.09375 C 216 375.6455 206.72351 371.99421 200.5 371 C 197.82896 370.68706 195.25633 370.57239 192.75 370.625 z M 343.40625 372.90625 C 338.07024 372.99886 332.82521 374.01288 328 376.09375 C 311.09814 384.07953 298.90872 401.89776 297.3125 420.9375 C 296.71837 428.02432 298.22947 436.81245 300.6875 440.59375 C 301.91029 442.47483 302.4485 442.61042 305.90625 441.6875 C 309.69364 440.67658 309.80434 440.51536 310.4375 435.0625 C 310.79339 431.99761 311.93121 427.7 312.96875 425.5 L 314.84375 421.5 L 314.3125 427.5 C 314.01788 430.8 314.30466 435.41083 314.9375 437.75 C 315.88702 441.25974 316.72107 442.28388 319.78125 443.5625 C 321.82079 444.41468 326.50764 448.24133 330.1875 452.0625 C 337.6266 459.78725 339.35219 460.29981 348.34375 457.59375 C 350.90616 456.82258 353 456.57993 353 457.03125 C 353 458.29532 346.98204 461.66541 342.25 463.0625 C 338.93725 464.04056 338 464.80462 338 466.5 C 338 467.69628 338.28958 468.97709 338.65625 469.34375 C 340.0498 470.7373 352.0572 469.90311 358.21875 468 C 375.3612 462.70524 389.51684 447.3549 393.09375 430.125 C 393.7236 427.09103 394.03888 420.73495 393.8125 416 C 391.57671 389.76543 366.52898 372.50495 343.40625 372.90625 z M 301.90625 374.21875 L 292.71875 376.625 C 280.61867 379.75575 266.87739 381.995 259.8125 382 L 254.125 382 L 259.375 387.25 C 263.57346 391.45739 264.95338 393.70149 266.3125 398.5625 C 272.1339 419.38326 263.01359 443.44034 246.15625 451.71875 C 238.45521 455.50063 229.58808 455.6075 222.46875 451.96875 C 201.84458 441.42759 203.91214 398.33291 225.6875 384.875 C 227.69851 383.63213 232.0692 381.88222 235.40625 380.96875 L 241.46875 379.3125 L 238.125 377.5625 C 234.93761 375.91424 234.51012 375.89919 230.125 377.53125 C 217.06883 382.39054 207.98878 390.59862 202.15625 402.8125 C 198.68637 410.07878 198.5 411.04582 198.5 420.5 C 198.5 431.17631 199.80489 437.43856 203.75 445.5 C 209.52742 457.30562 217.99031 462.06323 239.5 465.625 C 247.78476 466.99686 276.84922 466.74218 282.1875 465.25 C 283.82637 464.7919 286.93256 461.83072 290.1875 457.625 C 298.96562 446.28277 298.49206 447.1792 296.75 445.21875 C 293.73117 441.82148 291.80517 435.37678 291.28125 426.875 C 290.84312 419.76545 291.13771 416.93814 292.96875 410.875 C 296.00207 400.83071 301.39942 390.81066 307.28125 384.375 L 312.1875 379 L 307.0625 376.625 L 301.90625 374.21875 z M 325.5 485.25 L 320.53125 489.625 C 315.99207 493.61928 315.58446 494.31505 315.84375 497.90625 C 316.22839 503.23351 314.38609 506.36613 306.34375 514 C 299.55099 520.44775 296.36834 523.12837 275.90625 539.40625 C 266.16436 547.15606 265.1538 548.25821 263.5625 553.15625 C 256.12195 576.05833 240.76651 587.89166 218.40625 587.96875 C 212.45826 587.98925 210.32786 587.49053 205.15625 584.90625 C 197.98109 581.32078 194.38927 576.31949 193.34375 568.40625 C 192.98629 565.70078 191.85457 562.27247 190.8125 560.78125 C 187.57371 556.14646 184.97686 546.96965 183.53125 535 C 182.76737 528.675 181.36242 521.25653 180.40625 518.53125 L 178.6875 513.59375 L 174.25 518.53125 C 167.51138 526.09298 153.80362 547.13969 147.21875 560.03125 C 128.22812 597.21024 114.96434 647.20161 109.9375 700.4375 L 107.9375 721.375 L 112.09375 725.59375 C 118.93265 732.56207 131.48615 738 140.71875 738 L 144 738 L 144.03125 727.25 C 144.10805 703.9851 147.53145 670.01018 152.09375 647 C 157.83049 618.0665 168.64104 584.19399 173 581.5 C 174.43247 580.61468 174.44044 580.57703 170 595.25 C 163.49231 616.75397 157.23526 647.97289 154.03125 675 C 153.41184 680.225 152.71067 685.85 152.46875 687.5 C 151.18446 696.25947 149.68398 741.26948 150.625 742.8125 C 152.43955 745.78783 167.59887 752.65888 178.21875 755.3125 C 188.1815 757.80192 205.69809 760.54186 217 761.375 C 229.84607 762.32198 280.81834 761.04091 292 759.5 C 306.61882 757.48542 325.217 753.39727 330.84375 750.9375 L 335.21875 749.03125 L 334.625 742.25 C 334.30821 738.53153 333.79141 731.45 333.46875 726.5 C 331.20126 691.71391 319.18432 624.34516 309.4375 591.78125 C 306.71985 582.70162 306.55852 581.5898 308.03125 582.5 C 311.1145 584.40555 318.68526 604.03028 323.46875 622.5 C 331.75571 654.49703 339.30485 703.38663 340.84375 734.9375 L 341.5 748.375 L 344.5 749.1875 C 350.59733 750.86344 364.87106 751.25898 374.625 750.03125 C 389.45957 748.16401 410.78481 741.37405 414 737.5 C 414.70368 736.65211 414.2271 731.21492 412.5 719.90625 C 404.3742 666.70006 392.07002 622.91859 375.3125 587.75 C 367.45052 571.25027 372.73369 574.32921 381.75 591.5 C 388.6328 604.60771 391.54771 611.6084 397.53125 629.5 C 406.46656 656.21781 416.6398 698.93356 420.125 724.34375 C 420.94277 730.30595 421.79891 733.37304 422.78125 733.75 C 425.37226 734.74426 436.33644 732.12613 442.75 728.96875 C 450.5545 725.12661 454.33864 720.51346 453.59375 715.8125 C 447.68496 678.52246 440.78899 652.5284 429.34375 624.5 C 423.76786 610.84512 409.05644 581.78883 400.125 566.78125 C 380.5337 533.86179 355.45489 505.60351 331.28125 489.1875 L 325.5 485.25 z "
       style="fill:#ff80b2" />
    <path
       id="path3620"
       d="M 199.53125 472.53125 C 196.11047 472.44126 192.56058 472.80281 189.9375 473.59375 C 184.69929 475.17324 178.33934 480.81448 177.34375 484.78125 C 176.5287 488.02865 178.07065 493.79604 184.875 512.8125 C 188.85496 523.93552 190 528.43797 190 533.0625 C 190 536.33322 190.1041 539 190.25 539 C 190.3959 539 193.27607 536.4125 196.625 533.25 C 203.7592 526.51295 211.56873 521.61216 220.25 518.46875 L 226.46875 516.21875 L 222.5 515.125 C 220.3043 514.51544 217.77016 514.00306 216.875 514 C 213.42203 513.9882 212.71686 511.24519 212.3125 496.21875 C 211.78865 476.75208 211.55582 475.58297 208.21875 474.0625 C 206.21571 473.14986 202.95203 472.62124 199.53125 472.53125 z M 285 473.1875 C 284.23901 473.17063 283.49043 473.21081 282.71875 473.28125 C 274.88445 473.99639 272.95562 475.95661 248.40625 508.25 C 238.75601 520.94438 237.68339 522 234.6875 522 C 225.98583 522 210.27613 528.80345 201.5 536.375 L 197.5 539.84375 L 200.3125 540.90625 C 201.8608 541.50183 204.8983 542 207.0625 542 C 209.22669 542 211 542.26065 211 542.59375 C 211 542.92686 209.84596 544.57614 208.4375 546.25 C 205.49098 549.75174 200.61183 559.19026 199.625 563.28125 C 198.62981 567.40693 200.78194 573.97293 204.15625 577.125 C 209.7783 582.37678 221.69946 583.04704 233.875 578.78125 C 245.14118 574.83406 252.03531 566.88169 257.0625 552.0625 L 259.625 544.5 L 279.0625 528.78125 C 289.75214 520.14039 301.14646 510.3352 304.375 507 C 309.65051 501.55019 310.1869 500.622 309.625 497.8125 C 307.8827 489.101 298.93743 477.69434 291.34375 474.46875 C 289.48043 473.67727 287.28297 473.2381 285 473.1875 z "
       style="fill:#ffffff" />
    <path
       id="path3618"
       d="m 199.7734,547.60673 c -0.15037,-0.0587 -2.22822,-1.15702 -4.61744,-2.44071 l -4.34405,-2.33399 0.6491,2.33399 c 0.35701,1.28369 1.35233,4.28782 2.21184,6.67585 l 1.56274,4.34188 2.4056,-4.23514 c 1.32309,-2.32933 2.28258,-4.28318 2.13221,-4.34188 z"
       style="fill:#ffffff" />
    <path
       id="path3616"
       d="M 294.625 135.09375 C 282.46814 135.1559 270.58759 137.46228 259.6875 142 C 255.39785 143.78579 249.60999 146.78466 246.84375 148.6875 C 241.01379 152.6978 239.69859 152.62101 244 148.5 C 245.64426 146.92469 247 145.05758 247 144.375 C 247 142.34398 236.05352 138.83195 228 138.28125 C 219.90123 137.72746 212.22428 139.26932 201.8125 143.5 C 192.40969 147.32071 185.12015 152.7727 172.625 165.3125 C 158.35371 179.63479 155.05236 181.4483 143.5 181.46875 C 136.83955 181.48055 134.52722 181.04547 129.625 178.75 L 123.71875 175.96875 L 124.40625 184.46875 C 125.74672 200.98932 130.57801 213.19442 139.65625 223 C 143.07149 226.68887 145.00305 229.565 144.65625 230.46875 C 143.80042 232.69902 139.26349 233.41064 132.8125 232.34375 C 125.83108 231.18914 125.89488 230.96881 129.5625 243.625 C 136.94782 269.11019 152.33523 282.5499 169.90625 278.90625 C 180.09308 276.79383 187.18815 266.93496 188.6875 252.78125 C 189.1798 248.13389 188.85859 246.08068 187 241.78125 C 183.75613 234.2773 182.01374 227.2948 182 221.5625 C 181.9853 215.45083 183.19099 216.46276 185.46875 224.5 C 189.47377 238.63199 199.05516 251.73674 211.9375 260.75 C 215.55124 263.27839 219.4725 266.2007 220.65625 267.25 C 222.7759 269.12891 222.97291 269.1263 233.65625 266.96875 C 264.57652 260.72425 284.6689 246.26311 298.90625 220 C 302.01561 214.26429 302.98925 213.09564 303 215.0625 C 303.008 216.47702 302.25539 219.82447 301.34375 222.5 C 299.33717 228.38896 300.13668 232.21513 305.9375 244.59375 C 313.27226 260.24573 324.76143 274.26486 334 278.8125 L 338.5 281.03125 L 333.53125 280.75 L 328.53125 280.5 L 327.78125 286.5 C 325.11664 307.57088 323.46154 313.60239 318.0625 321.6875 C 315.89955 324.92655 312.04629 329.06883 309.53125 330.875 C 307.01621 332.68117 305.21594 334.55231 305.53125 335.0625 C 305.84656 335.57269 308.33306 336 311.03125 336 C 317.41079 336 318.82709 338.1054 315.8125 343.0625 C 314.67401 344.9346 313.01702 347.004 312.125 347.65625 C 310.12866 349.11602 310.90282 349.98033 315.1875 351.0625 C 318.39027 351.87142 327.59591 351.71659 328.46875 350.84375 C 328.70641 350.60609 328.51803 347.59982 328.03125 344.15625 C 326.37924 332.46885 330.92004 322.38193 340.25 317.03125 C 343.13679 315.37569 346.22665 314.00517 347.125 314 C 348.02335 313.995 349.04337 312.9875 349.375 311.75 C 350.17798 308.75369 350.00041 292.95402 349.09375 285.6875 C 348.69511 282.4926 348.7676 279.64189 349.25 279.34375 C 349.73239 279.04561 352.68734 278.56187 355.8125 278.28125 C 364.25423 277.52324 369.70002 279.36909 374.84375 284.71875 L 379.1875 289.25 L 387.34375 287.5 C 407.86881 283.1054 421.05818 273.73088 429.09375 257.8125 C 431.78026 252.49055 435 242.38605 435 239.28125 C 435 238.42075 433.5082 238 430.53125 238 C 421.71573 238 409.82131 231.52991 411.34375 227.5625 C 411.66986 226.71267 413.41278 225.12996 415.21875 224.0625 C 425.27655 218.11761 432.73172 209.84045 438.03125 198.71875 C 441.05295 192.37734 444.63365 180.28989 443.75 179.40625 C 443.44453 179.10078 441.27742 179.83751 438.9375 181.03125 C 426.59715 187.32683 415.52845 187.91893 400.96875 183.0625 C 390.0647 179.42543 387.3648 177.78552 373 166.15625 C 359.99089 155.6245 354.40059 152.01976 341.40625 145.8125 C 326.34491 138.61785 310.25525 135.01384 294.625 135.09375 z M 182.59375 280 C 182.50065 280 180.65759 280.9 178.5 282 C 176.34241 283.1 173.95398 284 173.1875 284 C 172.12436 284 171.93592 285.00778 172.375 288.25 C 174.16449 301.46368 174.23912 309.62864 172.625 312.75 C 169.66749 318.4692 162.29427 322.74733 151.59375 324.96875 C 148.51676 325.60753 146 326.36708 146 326.625 C 146 328.05889 150.61406 335.91213 152.875 338.34375 C 156.80677 342.57233 160.78765 344.26715 167.21875 344.4375 C 170.39361 344.5216 173.46867 345.06242 174.0625 345.65625 C 174.83542 346.42917 174.81622 349.64787 173.96875 356.9375 C 173.31765 362.53807 172.99895 367.34269 173.28125 367.625 C 173.56356 367.9073 176.2145 367.41309 179.15625 366.53125 C 191.45013 362.84592 209.31546 365.06904 218.6875 371.4375 C 222.98515 374.35783 222.96741 374.34372 225 372.90625 C 225.95883 372.22815 226.10634 371.69748 225.40625 371.40625 C 224.80388 371.15567 221.22406 368.904 217.46875 366.4375 L 210.65625 361.96875 L 204.9375 363.09375 C 200.20222 364.02536 198.29341 363.92873 193.59375 362.5625 C 183.03828 359.49394 176.1416 350.77803 175.21875 339.28125 C 174.59517 331.51267 176.6578 325.45206 182.125 318.84375 C 185.75995 314.45011 185.96733 313.85798 185.53125 308.84375 C 184.56552 297.73932 182.75613 280 182.59375 280 z M 403.25 290.1875 C 402.46827 290.244 399.42373 290.96368 395.875 291.9375 C 391.8193 293.05044 386.8125 294.22079 384.75 294.53125 L 381 295.09375 L 381 302.28125 C 380.99 309.4372 378.7926 316.12956 374.75 321.40625 C 373.45129 323.10142 373.56492 323.75821 375.65625 327.5 C 382.76394 340.21703 379.32501 354.63416 366.59375 360.875 C 356.84182 364.98648 344.53743 365.52141 334.9375 358.1875 C 331.32651 355.21101 333.60302 357.67947 321.78125 357.59375 L 309.78125 357.5 L 307.78125 360.3125 C 306.68201 361.85642 305.73393 364.51007 305.65625 366.21875 C 305.52627 369.07773 305.93854 369.5166 311 371.65625 C 317.19066 374.27326 318.05246 374.20548 326.625 370.59375 C 335.63431 367.05308 344.75592 366.70625 353.96875 367.34375 C 364.03326 368.53533 374.70813 372.63223 381.78125 378.5 C 398.30901 394.25701 403.46716 419.76828 397.125 438.5 C 388.99167 460.89025 365.71716 476.90044 342.84375 475.84375 C 337.42338 475.59334 335.78544 475.90645 334.09375 477.4375 C 331.07402 480.17031 331.44988 481.26232 336.75 485.0625 C 346.03346 491.71873 362.07429 506.24785 369.59375 514.8125 C 379.6021 526.212 391.15744 540.67343 393.53125 544.75 C 395.7427 548.54775 396.00205 548.57565 403.125 546.125 C 410.9813 543.42203 417.88981 539.73251 423.71875 535.125 C 428.84571 531.07237 441 517.68794 441 516.09375 C 441 515.62515 437.0625 515.05427 432.25 514.8125 C 414.77174 513.93441 403 504.35242 403 491 C 403 485.51114 404.22605 482.5595 410.0625 473.9375 C 419.70048 459.69959 427.13864 440.62634 428.90625 425.65625 C 429.84912 417.67096 428.91625 406.58034 427 403 C 425.13899 399.52266 425.9251 397.32164 430 394.625 C 432.19531 393.17221 435.17357 390.19325 436.625 388 C 439.09651 384.26529 442.35607 373.66857 441.34375 372.65625 C 441.09233 372.40482 438.85012 373.33538 436.375 374.71875 C 431.04655 377.69688 419.98243 379.0343 417.53125 377 C 414.86275 374.78534 415.84803 373.21498 422.96875 368.4375 C 435.73462 359.87253 442.11853 351.01609 444.875 338.09375 C 445.50806 335.12599 445.87528 332.56278 445.6875 332.375 C 445.49973 332.18722 442.69862 332.97693 439.4375 334.125 C 431.50932 336.91608 424.71808 336.33527 418.3125 332.375 C 409.81425 327.12094 407.85485 322.71452 405.28125 303 C 404.38376 296.125 403.54778 290.37972 403.4375 290.21875 C 403.4237 290.19865 403.3617 290.1794 403.25 290.1875 z M 242.28125 385 C 221.12284 385.0357 206.38141 411.95288 214.65625 435.40625 C 219.19197 448.26186 231.29842 453.40311 243.5 447.625 C 255.50931 441.93794 263.18698 428.09571 263.25 412 C 263.3191 394.35667 256.02539 384.97681 242.28125 385 z "
       style="fill:#ffdd55" />
    <path
       id="path3612"
       d="m 244.32579,503.38623 c 4.279,-5.83758 7.60251,-10.79126 7.38558,-11.00819 -0.21692,-0.21693 -4.17823,-0.86304 -8.80289,-1.4358 -7.50775,-0.92983 -18.33485,-3.05133 -23.15848,-4.53775 -1.56504,-0.48227 -1.75,0.30017 -1.75,7.40312 0,12.36144 0.47915,13.72062 5.34929,15.17395 2.28289,0.68125 5.72571,2.06921 7.65071,3.08434 1.925,1.01514 3.9603,1.8656 4.5229,1.8899 0.56259,0.0243 4.52389,-4.732 8.80289,-10.56957 z"
       style="fill:#ff80b2" />
    <path
       id="path3610"
       d="M 295.6875 236.46875 C 294.93919 236.43579 294.01439 237.00436 293.21875 238.15625 C 286.9717 247.2005 273.80679 258.06966 262 263.96875 C 252.72601 268.60236 250.63053 269.27295 234.5 272.90625 C 222.03604 275.71367 218 275.74817 218 273.03125 C 218 272.54284 214.7375 269.98665 210.75 267.34375 C 206.7625 264.70085 201.62256 260.84029 199.34375 258.75 L 195.21875 254.9375 L 194 260.21875 C 193.3297 263.12221 191.68483 267.40479 190.34375 269.75 C 189.00268 272.0952 188.09911 274.3452 188.34375 274.75 C 188.5884 275.15479 189.54526 283.825 190.46875 294 C 193.99329 332.83337 195.66575 338.30222 207.6875 350.25 C 219.60073 362.08994 235.03059 370.65461 247.5 372.3125 C 249.15 372.53187 250.5898 372.76134 250.6875 372.84375 C 250.7852 372.92615 254.34538 372.50149 258.625 371.90625 C 271.93275 370.05531 289.8347 363.32204 300.15625 356.28125 C 302.52851 354.66303 302.66644 354.27442 301.4375 352.59375 C 299.77386 350.31858 300.51952 348.81532 304.84375 345.625 L 308.125 343.1875 L 302.65625 340.6875 C 297.23485 338.2055 294.38575 335.05899 295.34375 332.5625 C 295.61678 331.85099 297.98347 330.23237 300.59375 328.96875 C 313.20861 322.86201 319.33703 310.03593 321.5 285.21875 L 322.125 277.90625 L 316.78125 272.125 C 313.83588 268.94364 309.65074 263.67772 307.5 260.4375 C 303.67119 254.66915 297.02417 240.67034 297 238.3125 C 296.98785 237.12502 296.43581 236.50171 295.6875 236.46875 z M 296.3125 366.1875 C 295.46924 366.20651 293.61978 367.08767 290 369 C 284.05897 372.13864 284.83131 372.76561 292 370.625 C 294.6298 369.83973 296.62355 368.61531 296.8125 367.65625 C 297.00253 366.69174 296.96837 366.17271 296.3125 366.1875 z M 194.125 447 C 189.17482 447 181.26056 449.95624 177.96875 453.03125 C 175.02158 455.78432 174.797 456.40678 175.40625 460.28125 C 176.28468 465.86757 177.9662 472 178.59375 472 C 178.86946 472 180.74066 471.16134 182.78125 470.125 C 188.11939 467.41395 197.20454 465.77309 202.46875 466.5625 L 207 467.21875 L 207 463.75 C 207 461.82989 206.3367 459.69971 205.53125 459.03125 C 204.7258 458.36278 202.4427 455.38013 200.46875 452.40625 C 197.56562 448.03251 196.36163 447 194.125 447 z M 309.40625 447.15625 C 306.24332 447.46742 303.50721 450.8098 296.59375 459.5 C 293.5309 463.35 291.02013 466.95 291.03125 467.5 C 291.04235 468.05 292.93666 469.36878 295.25 470.4375 C 300.23168 472.73896 307.14051 478.89711 310.0625 483.625 C 311.211 485.48331 312.68964 487 313.34375 487 C 313.99786 487 318.54039 482.9824 323.4375 478.0625 L 332.34375 469.125 L 331.1875 465.1875 C 329.54621 459.70939 322.54376 452.1748 316.53125 449.375 C 313.33868 447.88834 311.30401 446.96955 309.40625 447.15625 z "
       style="fill:#ffccaa" />
    <path
       id="path3598"
       d="M 223.28125 102.78125 C 222.3064 102.86318 219.00011 103.96122 217.3125 105 C 215.84576 105.90282 212.64834 107.1791 211.03125 111.03125 C 209.89265 113.74357 209.04018 117.14373 210.46875 121.9375 C 211.57792 125.65949 213.03129 128.25179 215.59375 130.40625 C 216.51168 131.17803 218.30773 132 220.75 132 L 225.25 132 L 224.6875 120.375 C 224.36729 113.98373 223.79019 103.07145 223.53125 102.8125 C 223.49888 102.78013 223.42051 102.76955 223.28125 102.78125 z M 331.78125 107.0625 C 327.91934 107.25011 324.14607 110.06223 321.625 115.375 C 319.85851 119.0976 319.47396 127.60472 320.96875 129.96875 C 321.89944 131.44063 332.96469 135.78789 336.1875 135.9375 C 337.11254 135.9804 338.8338 134.61917 340.03125 132.9375 C 342.2369 128.58379 342.40385 127.82424 343.125 123.90625 C 343.53963 117.69746 343.10492 115.72343 341.40625 112.84375 C 338.67109 108.79823 335.18882 106.89696 331.78125 107.0625 z M 352.125 317 C 338.88938 317.14781 332.09504 329.09308 331.1875 336.75 C 330.60674 341.64997 330.44152 348.9395 338.625 354.78125 C 350.80871 363.47856 357.79447 361.70795 368.8125 354.53125 C 384.20859 344.50288 373.8792 319.1777 354.84375 317.15625 C 353.90378 317.05643 353.00737 316.99015 352.125 317 z M 186.0625 321.71875 C 185.07224 321.75997 183.91062 322.93193 182.28125 325.5 C 177.21316 333.48791 177.08414 344.76648 185.46875 352.34375 C 192.5424 358.73627 198.64228 359.55024 202.34375 357.40625 C 205.10238 355.80837 199.5298 349.05143 194.46875 338.375 C 189.93079 328.80203 188.59318 321.61342 186.0625 321.71875 z M 239.25 389.40625 C 235.73564 389.35931 231.91629 390.80026 227.75 393.6875 C 219.59626 399.33804 213.90145 412.40661 215.375 422.125 C 216.35774 428.60644 219.9065 435.09195 223.90625 437.75 C 230.46332 442.10751 240.45732 439.81367 246.90625 432.46875 C 256.79326 421.20806 257.78491 402.78491 248.96875 393.96875 C 245.98603 390.98602 242.76436 389.45319 239.25 389.40625 z "
       style="fill:#00ccff" />
    <path
       id="path3586"
       d="m 238.93404,352.02633 c -4.74697,-2.50966 -15.55645,-14.80392 -14.20462,-16.15575 0.6753,-0.6753 3.10644,-0.62183 7.38853,0.16253 4.08517,0.74828 10.25094,0.92235 17.13205,0.48366 10.01367,-0.6384 10.7484,-0.5597 10.72664,1.14894 -0.0414,3.25436 -5.37783,11.70434 -8.87452,14.05249 -4.08668,2.74435 -7.40126,2.82829 -12.16808,0.30813 z"
       style="fill:#000000" />
    <path
       id="path3584"
       d="m 248.53316,348.80294 c 1.44499,-0.65838 3.48172,-2.87195 4.52607,-4.91904 l 1.89881,-3.72197 -11.35939,0.14259 -11.3594,0.1426 2.5375,3.32683 c 4.31679,5.6596 8.78627,7.29353 13.75641,5.02899 z"
       style="fill:#ff5555" />
    <path
       id="path3582"
       d="m 268.18579,318.72386 c -3.29122,-3.96567 -4.48665,-9.39641 -4.45173,-20.22386 0.0271,-8.40145 -0.3196,-11.40382 -1.46756,-12.70942 -0.82667,-0.94018 -1.68375,-3.86518 -1.90464,-6.5 -0.28496,-3.39923 -0.13968,-4.20971 0.50024,-2.79058 0.49601,1.1 1.86259,2.86416 3.03684,3.92035 2.11015,1.89799 2.15853,1.89508 4.15699,-0.25 1.11209,-1.19369 2.48403,-2.17035 3.04877,-2.17035 5.29287,0 8.3953,7.94519 8.3953,21.5 0,8.66667 -0.33333,10.66667 -2.5,15 -1.91173,3.82346 -3.10841,5.07072 -5.0856,5.30056 -1.42207,0.1653 -3.09995,-0.31921 -3.72861,-1.0767 z"
       style="fill:#000000" />
    <path
       id="path3580"
       d="m 206.72255,317.24591 c -2.81193,-3.10715 -5.00123,-14.816 -4.36885,-23.36558 0.4688,-6.33801 0.23414,-8.26587 -1.39505,-11.46144 -1.07726,-2.11298 -1.9484,-5.20912 -1.93588,-6.88033 l 0.0228,-3.03856 1.64932,3.34742 c 2.07408,4.20952 3.46937,4.7463 6.74997,2.59677 2.4427,-1.60052 2.72315,-1.60214 4.46485,-0.0259 2.89872,2.62331 4.59035,10.2086 4.59001,20.58174 -2.6e-4,8.13248 -0.36013,10.21975 -2.5,14.5 -2.74763,5.49595 -4.75723,6.53039 -7.27714,3.74591 z"
       style="fill:#000000" />
    <path
       id="path3566"
       d="m 372.11402,313.26446 c 3.33532,-6.88984 3.60398,-14.6357 0.70083,-20.20592 -3.11091,-5.96885 -6.5643,-8.29029 -13.14444,-8.83597 -5.98455,-0.49628 -6.73116,0.009 -5.96186,4.03313 0.46344,2.42434 0.97188,2.7443 4.36097,2.7443 4.05374,0 8.93048,1.73629 8.93048,3.17957 0,0.47219 -1.12796,0.57543 -2.50657,0.22942 -2.84244,-0.7134 -9.49343,0.29225 -9.49343,1.43543 0,0.41459 1.57931,1.32489 3.50958,2.02289 3.81135,1.37819 6.82058,5.85404 6.3011,9.37205 C 364.30457,310.66684 362,310.59842 362,307.15591 362,304.32936 358.28838,300 355.86514,300 355.38931,300 355,302.90766 355,306.46146 l 0,6.46145 3.75,1.05969 c 2.0625,0.58283 4.875,1.70923 6.25,2.50311 3.85818,2.22759 4.64981,1.86914 7.11402,-3.22125 z"
       style="fill:#ffccaa" />
    <path
       sodipodi:nodetypes="sssccccccsccccccccccscccssssssss"
       inkscape:connector-curvature="0"
       id="path3564"
       d="m 267.875,72 c -0.63097,0 -6.89168,5.4 -13.90625,12 -7.01457,6.6 -13.33923,12 -14.0625,12 -0.72328,0 -3.26668,-1.904236 -5.625,-4.21875 L 230,87.59375 230,91.125 c 0.99467,12.18449 0.61882,23.463 1.1875,34.5 l 0.3125,5.6875 6,1.625 c 3.30607,0.90267 8.03107,2.8163 10.5,4.25 5.6441,3.2775 5.87187,3.2968 9.40625,0.46875 l 2.9375,-2.34375 L 257,134.65625 c -6.19097,-1.2382 -12.56411,-6.95021 -14.40625,-15.90625 -0.0136,-0.0458 -0.0468,-0.0811 -0.0625,-0.125 -1.4685,-10.04642 3.074,-19.609897 10.65625,-24.84375 9.64005,-6.474332 24.55965,-0.717302 27.375,10.5625 1.58793,8.14308 1.62,15.03103 -2.96875,21.9375 L 275.0625,130 l 5.71875,-0.75 c 3.14803,-0.4156 9.31875,-0.75 13.71875,-0.75 4.4,0 10.52401,0.3436 13.59375,0.75 l 5.5625,0.71875 c -1.27114,-8.36991 0.88651,-17.02226 6.125,-22.78125 5.00608,-5.29577 10.8753,-7.801409 15.5625,-6.625 2.34178,0.58775 2.50006,0.33789 3.625,-6.71875 0.64288,-4.032737 1.34032,-7.90625 1.5625,-8.59375 0.22218,-0.6875 0.0288,-1.25 -0.4375,-1.25 -0.4663,0 -8.66078,2.939724 -18.1875,6.53125 -9.52672,3.591526 -17.81657,6.332023 -18.4375,6.09375 C 302.84782,96.386727 294.85416,90.747003 285.6875,84.09375 276.52083,77.440497 268.50596,72 267.875,72 z"
       style="fill:#ffcc00" />
    <path
       id="path3558"
       d="m 271.02731,125.47334 c 9.59941,-9.37358 6.09629,-26.310552 -5.991,-28.965365 -4.81629,-1.057836 -11.9427,2.906978 -14.88201,8.279685 -8.86594,16.20589 8.17045,33.08939 20.87301,20.68568 z"
       style="fill:#ff0066" />
    <path
       sodipodi:nodetypes="ccccsc"
       inkscape:connector-curvature="0"
       inkscape:original-d="m 213.28248,461.23173 4.16451,20.37636 36.43948,7.2879 18.44283,-18.88904 c 0,0 -20.86422,1.04952 -32.83929,-0.77426 -9.15626,-1.39448 -26.20753,-8.00096 -26.20753,-8.00096 z"
       inkscape:path-effect="#path-effect3630"
       id="path3628"
       d="m 213.28248,461.23173 4.16451,20.37636 36.43948,7.2879 18.44283,-18.88904 c -10.90395,1.37232 -22.01213,1.11042 -32.83929,-0.77426 -9.02166,-1.5704 -17.84708,-4.26474 -26.20753,-8.00096 z"
       style="fill:#ff0066;stroke:#ff2a7f;stroke-width:1px;stroke-linecap:butt;stroke-linejoin:miter;stroke-opacity:1" />
  </g>
  <g
     transform="translate(-65.235715,-76.455707)"
     id="layer1"
     inkscape:label="Layer 1"
     style="fill:#ffffff">
    <path
       sodipodi:nodetypes="cccccccccccccccccccccccccccccccccccccccccccccccccccccccccccccccccccccccccccccccccccccccccccccccccccccccccccccccccccccccccccccccccccccccccccccccccccccccccccc"
       inkscape:connector-curvature="0"
       id="path3014"
       d="m 307.1875,905.71875 c -14.71172,3.2326 -22.31955,18.30825 -29,30.40625 -4.49318,7.45262 -6.22013,17.19447 -14.625,21.25 -17.76798,12.53713 -38.12863,22.31396 -59.3125,27.46875 -0.3142,-4.64999 6.61897,-9.94743 2.8125,-14.34375 -4.61504,-3.16743 -8.625,3.63785 -12.08529,5.76466 -4.75886,3.82132 -11.03967,10.61276 -17.60221,7.95409 -1.45825,-3.41545 3.35251,-6.22842 4.96875,-8.75 6.89968,-7.22275 16.12499,-11.73841 25.71875,-14.0625 3.45541,-2.64846 -0.33029,-8.46633 -4.34375,-6.28125 -25.81695,3.40362 -48.32781,18.63648 -72.625,26.9375 -2.26497,-1.0872 -0.0214,-5.3822 0.3125,-7.3125 0.69983,-4.83164 5.53748,-9.1608 4.46875,-14.0625 -3.21407,-5.06602 -8.56513,0.90827 -12.25,2.15625 -3.12208,1.37389 -6.62086,2.61142 -10.0625,1.875 4.70771,-1.97528 6.88597,-9.9423 1.125,-11.9375 -6.01239,-2.32388 -13.33293,3.59621 -11.71875,10 -14.010472,8.59332 -28.639706,19.44401 -45.65625,19.84375 -3.977455,-0.2357 -9.543485,-3.35825 -10.75,-5.78125 10.041957,-1.90604 22.179135,-5.00562 27.21875,-14.65625 2.262241,-5.309 -4.47016,-8.56583 -8.90625,-7.375 -8.691717,1.27006 -17.056005,5.16909 -24.21875,10.21875 4.806918,-8.62423 8.067377,-18.4849 16.618819,-24.18222 6.854974,-7.48036 16.669092,-12.99465 21.099931,-22.19278 1.624579,-3.59966 0.229384,-9.53363 -4.6875,-8.65625 -13.149714,2.38383 -19.00283,16.15481 -25.720468,26.14628 -5.128464,10.90567 -16.46923,16.78085 -25.531196,24.10028 -6.453101,5.05244 -14.2669788,8.3473 -20.842086,12.97219 -2.55369492,3.45819 2.527214,7.43068 5.5432678,4.69451 C 17.099482,972.73738 26.522343,966.52557 35.3125,959.625 c -4.139619,8.90878 -9.77205,17.12347 -14.78125,25.34375 -0.902765,4.72442 6.033614,5.59731 7.647675,1.53819 3.313282,-1.50474 6.918628,-11.09571 10.172939,-6.97828 6.622204,7.95413 17.740297,13.23821 27.987462,8.98787 14.523745,-3.9432 27.587521,-12.09399 40.379424,-19.51653 5.38263,4.27985 13.55118,2.55565 18.9375,0.78125 -1.63961,5.42026 -5.57267,13.99062 0.125,18.25 8.03523,3.02658 16.46537,-2.8487 23.90625,-5.40625 9.44559,-4.22777 18.6742,-9.05396 28.3125,-12.75 -5.06354,4.26202 -11.68828,12.72609 -5.90625,19.09375 6.41129,6.45541 16.30824,1.32417 22.3125,-3.125 2.86844,-2.86561 2.3499,-0.93577 2.625,1.78125 1.55762,6.42871 10.26403,4.35012 14.75,2.875 18.181,-5.68964 35.68488,-13.61512 51.40625,-24.1875 -3.09137,4.68634 -9.28262,6.85923 -12.84375,11.53125 -9.49825,10.26876 -17.39725,22.45595 -22.03125,35.59375 -1.55256,4.143 3.01827,8.5437 6.84375,5.5 14.08991,-8.5066 21.61969,-24.14295 28.90625,-38.3125 6.12784,8.37994 18.00317,4.00086 25.48818,0.0528 6.54492,-3.31279 13.42004,-7.93069 19.07432,-11.58404 -2.73396,5.77843 -9.05798,13.70543 -4.40625,19.96875 6.59085,4.87066 15.37199,-0.386 21.90625,-2.84375 14.65417,-6.06584 30.86286,-12.91659 44.4375,-19.21875 -2.47395,6.7757 -9.52748,14.05773 -6.40625,21.6875 4.04945,5.50959 12.09614,1.29037 16.6875,-1.4375 3.22197,-1.83266 6.30211,-3.85806 9.28125,-6.03125 -11.26251,22.08054 -23.40224,43.88534 -34.15625,66.12504 -0.42962,4.5933 6.93936,5.0525 7.4375,0.4687 18.20659,-34.6902 46.69445,-65.69557 83.46875,-80.46874 -2.13196,4.89827 -6.4945,9.57251 -6.71875,15 0.92885,4.27254 6.08451,2.99085 8.46875,0.75 12.46683,-6.41835 24.09662,-14.58749 36.90625,-20.03125 3.79065,-0.22644 -0.4504,4.1045 -1.6875,4.875 -4.66637,5.09457 -11.93334,9.64567 -12.90625,16.90625 0.29815,6.46911 8.91037,5.16179 13.0625,3.875 14.87586,-4.41255 29.286,-12.8292 43.125,-18.21875 -4.73844,4.60775 -10.95448,13.33586 -5.5625,19.53125 6.5432,4.49225 15.48917,1.10289 21.96875,-1.9375 4.07073,-1.64561 7.51574,-6.11909 10.59375,-7.84375 11.21459,6.73753 25.03522,1.91412 34.96875,-4.9375 3.3901,-2.00278 7.21329,-4.41192 10.46875,-5.90625 -5.58554,4.91117 -10.65751,15.68604 -3.53125,21.375 7.61339,3.73906 16.78005,-0.96777 23.40625,-5 3.24806,-1.2653 5.36119,-7.06454 9,-4.125 16.42108,5.23772 32.7501,-4.80599 45.02436,-14.84232 4.13191,-3.182 8.29346,-6.35169 12.22564,-9.81393 -5.31916,10.26858 -11.98388,19.90958 -17.03125,30.125 -0.49864,4.09834 5.59569,5.53495 7.0625,1.5625 2.64026,-4.09774 5.67399,-8.46014 9.34375,-11.3125 6.02954,8.65389 16.67474,15.7423 27.59375,12.21875 9.74307,-3.03334 18.52872,-9.03529 27.5,-13.75 3.03709,-3.21437 -1.87192,-7.93085 -5.14998,-5.15782 -10.47537,4.04906 -19.82916,13.90285 -31.66252,12.25157 -4.52303,-1.08295 -7.92613,-4.49532 -10.90625,-7.875 10.54297,0.9282 25.01422,-1.47982 28.09375,-13.25 1.64375,-5.33733 -4.15031,-9.00596 -8.90625,-7.34375 -8.09207,1.79359 -15.53825,6.07461 -22.28125,10.5625 6.46033,-10.0854 10.72311,-22.02292 20.76517,-29.19847 5.39939,-6.31867 14.53688,-10.60261 16.73483,-19.05153 1.34402,-5.33373 -5.26935,-7.1783 -9,-5.03125 -13.99117,6.08419 -15.58213,24.59105 -27.9645,32.73393 -11.22813,9.7133 -23.10104,18.94227 -35.69175,26.64107 -7.06027,3.19202 -15.67731,6.57511 -23.34375,3.71875 4.61718,-4.07491 5.04961,-14.59461 -2.65625,-15.15625 -1.65521,0.0963 -1.70426,-3.97896 -4.5,-3.5 -17.32807,-1.16302 -31.86976,9.46786 -46.15625,17.375 -5.75944,3.13473 -14.28972,4.19517 -19.5625,0.40625 2.58714,-4.27564 4.60926,-12.7884 -1.71875,-14.71875 -2.1181,0.17588 -2.70945,-0.71527 -3.90625,-2.25 -4.5378,-1.78758 -9.71491,1.45843 -14.36936,1.98785 -19.95433,5.19458 -37.49654,16.70318 -56.94314,23.13715 -3.10773,0.2978 5.08662,-5.45088 5.83601,-7.23343 4.00473,-4.01439 10.27987,-11.11952 5.66399,-16.82907 -5.94814,-4.4387 -13.57815,0.87543 -19.375,3.21875 -7.09549,3.53962 -13.97279,7.47982 -20.84375,11.4375 3.43684,-3.71196 6.33395,-12.64463 -0.9375,-13.65625 -9.25883,0.56619 -17.66616,6.18686 -25.71875,10.4375 -13.40765,8.20068 -25.72044,18.23984 -36.71875,29.4375 5.00475,-10.40073 11.39111,-20.42751 15.75,-31 -0.1361,-4.61402 -6.69569,-4.37374 -8.5,-0.75 -7.7552,6.35493 -15.92691,13.37473 -25.25,16.84375 2.35111,-9.9311 8.98736,-18.09989 14.6875,-26.1875 0.87541,-4.38085 -5.28925,-5.86264 -7.78329,-2.64076 -20.72121,10.75501 -42.01504,21.30789 -64.46671,27.60951 -4.29363,0.4375 -0.56402,-5.5534 -0.0312,-7.40625 4.02649,-7.4485 7.49737,-15.69554 14.21875,-21.15625 14.07466,-2.25693 28.94369,-4.0771 41.65625,-10.59375 3.22227,-2.96923 -1.57748,-8.05825 -5,-5.4375 -8.7947,3.12637 -17.9193,5.39223 -27.125,7.1875 7.91717,-7.49231 17.67132,-15.44826 19.5625,-26.75 0.40603,-5.58731 -6.88301,-6.24926 -9.9375,-2.9375 -10.26201,8.83455 -16.82263,21.12247 -24.90625,31.875 -5.39294,1.36656 -11.77239,-1.04688 -16.75,1.46875 -2.9998,3.19893 1.15784,7.81189 5,6.3125 5.248,-0.65652 5.79678,0.33344 1.3125,3.09375 -11.73649,7.42951 -23.00594,17.42722 -37,19.78125 -5.50316,0.80891 -7.70271,-7.08217 -3.90836,-10.46453 2.82449,-6.89552 6.48518,-13.10103 12.76746,-17.33951 10.53865,-10.22531 21.42681,-21.25363 28.7659,-34.10221 2.70467,-4.39887 1.89837,-11.6805 -4.8125,-10.625 z m -2.25,8.4375 c -4.78801,9.13942 -13.17939,16.15209 -19.65625,24.15625 4.76485,-9.24782 9.92958,-19.5758 19.65625,-24.15625 z m -19.65625,24.1875 c -0.0939,0.1896 -0.072,-0.0374 0,0 z m 427.625,23.34375 c -3.33484,4.57409 -9.44699,6.12331 -14.875,6.28125 4.65588,-2.74903 9.62169,-5.13891 14.875,-6.28125 z m -648.0625,0.59375 c -5.208909,4.12625 -11.763358,6.37175 -18.1875,7.34375 5.248273,-3.64473 12.589429,-6.96829 18.1875,-7.34375 z m 556.28125,2.1875 c -2.06625,3.18155 -2.356,7.55272 -0.5,10.90625 -5.66049,4.69743 -12.87332,10.38816 -20.65625,9.21875 -2.13845,-4.41087 3.80988,-8.44302 6.3125,-11.1875 4.30874,-3.77174 9.04266,-7.54355 14.84375,-8.9375 z m -74,0.625 c -1.78715,3.32412 -0.75715,7.6505 0.875,10.46875 -5.18101,5.62811 -13.3514,10.43059 -21.0625,9 0.96405,-6.98696 8.09857,-11.95726 13.40625,-15.9375 2.08156,-1.26782 4.87872,-3.05281 6.78125,-3.53125 z M 253.1875,986.0625 c -4.06513,7.33049 -7.93106,14.7574 -14,20.6875 3.45475,-7.87939 8.80986,-14.65723 14.25,-21.1875 z"
       style="color:#000000;font-style:normal;font-variant:normal;font-weight:normal;font-stretch:normal;font-size:medium;line-height:normal;font-family:Sans;-inkscape-font-specification:Sans;text-indent:0;text-align:start;text-decoration:none;text-decoration-line:none;letter-spacing:normal;word-spacing:normal;text-transform:none;direction:ltr;block-progression:tb;writing-mode:lr-tb;baseline-shift:baseline;text-anchor:start;display:inline;overflow:visible;visibility:visible;fill:#ffffff;fill-opacity:1;stroke:none;stroke-width:4;marker:none;enable-background:accumulate" />
  </g>
</svg>
