<?xml version="1.0" encoding="UTF-8" standalone="no"?>
<!-- Created with Inkscape (http://www.inkscape.org/) -->

<svg
   xmlns:dc="http://purl.org/dc/elements/1.1/"
   xmlns:cc="http://creativecommons.org/ns#"
   xmlns:rdf="http://www.w3.org/1999/02/22-rdf-syntax-ns#"
   xmlns:svg="http://www.w3.org/2000/svg"
   xmlns="http://www.w3.org/2000/svg"
   xmlns:sodipodi="http://sodipodi.sourceforge.net/DTD/sodipodi-0.dtd"
   xmlns:inkscape="http://www.inkscape.org/namespaces/inkscape"
   id="svg3400"
   version="1.1"
   inkscape:version="0.91 r13725"
   width="851"
   height="1000"
   sodipodi:docname="KraftyNook_SuperMarioBros_Yoshi~.svg">
  <metadata
     id="metadata3406">
    <rdf:RDF>
      <cc:Work
         rdf:about="">
        <dc:format>image/svg+xml</dc:format>
        <dc:type
           rdf:resource="http://purl.org/dc/dcmitype/StillImage" />
        <dc:title></dc:title>
      </cc:Work>
    </rdf:RDF>
  </metadata>
  <defs
     id="defs3404">
    <inkscape:path-effect
       effect="spiro"
       id="path-effect3470"
       is_visible="true" />
    <inkscape:path-effect
       effect="spiro"
       id="path-effect3463"
       is_visible="true" />
    <inkscape:path-effect
       effect="spiro"
       id="path-effect3458"
       is_visible="true" />
  </defs>
  <sodipodi:namedview
     pagecolor="#ffffff"
     bordercolor="#666666"
     borderopacity="1"
     objecttolerance="10"
     gridtolerance="10"
     guidetolerance="10"
     inkscape:pageopacity="0"
     inkscape:pageshadow="2"
     inkscape:window-width="1280"
     inkscape:window-height="715"
     id="namedview3402"
     showgrid="false"
     inkscape:snap-nodes="false"
     inkscape:zoom="0.45170083"
     inkscape:cx="418.17098"
     inkscape:cy="75.123823"
     inkscape:window-x="0"
     inkscape:window-y="0"
     inkscape:window-maximized="1"
     inkscape:current-layer="svg3400" />
  <g
     id="g9938">
    <path
       id="path3450"
       d="m 449.81906,990.26713 c -9.77763,-0.7344 -25.90451,-3.6364 -33.5,-6.02831 -11.41045,-3.59331 -17.96616,-7.1963 -26.27562,-14.441 -8.34265,-7.27362 -11.82307,-13.24775 -13.03236,-22.36994 -0.47146,-3.55638 -1.24898,-5.88171 -1.92157,-5.74684 -25.0149,5.01631 -81.4369,5.3946 -99.67629,0.6683 -22.04912,-5.7135 -34.54689,-21.33861 -34.58229,-43.23588 -0.0113,-6.96316 -0.19536,-7.55511 -3.57665,-11.5 -8.93385,-10.42294 -12.96538,-24.78256 -12.04719,-42.91006 1.8045,-35.62599 15.07353,-59.2078 40.11197,-71.28725 18.14881,-8.75564 38.14138,-11.10455 66.33212,-7.79329 l 5.33211,0.6263 -5.4727,-5.4727 c -3.00999,-3.00998 -6.41767,-7.32499 -7.57264,-9.58891 l -2.09993,-4.11622 -6.56391,2.97622 c -20.8606,9.45865 -39.98809,8.16267 -56.0599,-3.79831 l -3.10485,-2.31069 -4.39515,1.94212 c -16.5693,7.32162 -35.68347,-0.72589 -49.35504,-20.77964 -6.55794,-9.61932 -8.84808,-16.71211 -8.92659,-27.64653 -0.0963,-13.40876 3.69607,-23.08349 14.11148,-36 l 4.83819,-6 -1.32558,-5.5 c -1.62166,-6.72847 -0.95773,-21.93165 1.32958,-30.44555 5.13398,-19.1099 17.68756,-30.45142 36.31931,-32.81265 l 8.6135,-1.09161 0.1429,-16.65073 c 0.16462,-19.18102 1.40706,-32.56356 4.9205,-52.99946 2.03215,-11.81998 6.41424,-30.90665 8.97953,-39.11128 0.43018,-1.37586 -0.92416,-1.71304 -9.26957,-2.3078 -26.6917,-1.90226 -56.7759,-9.04058 -80.13943,-19.01535 -4.19866,-1.79256 -10.78393,-3.8399 -14.63393,-4.54963 C 142.14446,446.3296 113.51147,433.58446 88.319056,415.8059 76.230287,407.27472 57.843684,388.74719 49.965687,377.15857 23.846847,338.73745 22.093639,295.24109 44.837034,249.91883 c 5.463598,-10.88767 9.874884,-16.7855 21.946803,-29.34258 28.229399,-29.36395 61.246483,-48.3914 92.515113,-53.31566 13.20268,-2.07918 12.51934,-1.77778 12.52553,-5.52471 0.003,-1.80476 0.92282,-9.58138 2.04408,-17.28138 7.68205,-52.754425 24.95564,-91.675391 49.2918,-111.06461 8.25493,-6.576909 15.44373,-10.376636 25.69394,-13.58084 6.25963,-1.956752 9.56352,-2.32645 20.46476,-2.289966 12.91499,0.04322 20.61753,1.390214 33.06692,5.782612 3.94775,1.392848 4.22497,1.335807 12.12512,-2.494851 31.563,-15.304395 66.45698,-4.705628 102.40307,31.104112 17.65103,17.584079 25.49652,29.699629 34.48563,53.255123 6.46823,16.94965 12.64118,44.81763 14.08335,63.5798 l 0.6493,8.44715 4.44153,2.63074 c 35.33209,20.92733 59.04696,55.73503 64.81364,95.13073 2.22156,15.17685 1.51927,37.09056 -1.53829,48 -3.06209,10.92559 -12.99927,30.55234 -20.51257,40.51405 l -6.52842,8.65587 1.45101,5.66504 c 2.39806,9.36249 3.8493,23.21096 3.21667,30.69498 -1.35387,16.01625 -7.75483,24.67551 -19.86397,26.8721 -3.61068,0.65498 -3.73767,0.82835 -4.88737,6.67217 -1.26556,6.43271 -6.11759,15.43582 -11.11316,20.62086 l -3.07832,3.19508 2.89293,0.65905 c 6.29495,1.43407 12.28179,3.34197 15.16438,4.83261 8.13394,4.20622 14.22855,16.72374 14.22855,29.22353 0,3.51706 0.19708,6.39466 0.43795,6.39466 0.24087,0 3.50337,-0.76205 7.25,-1.69345 9.9415,-2.47142 39.7262,-2.4719 51.1868,-8.3e-4 19.59779,4.22556 38.06305,11.93808 53.10595,22.18114 7.19879,4.90182 9.02301,5.67287 15.5786,6.58467 10.13044,1.40902 17.16711,0.0337 23.45914,-4.58506 7.15739,-5.25402 21.45756,-12.05359 31.42386,-14.94171 12.02866,-3.48577 24.85264,-3.55859 32.0577,-0.18204 5.95214,2.78939 13.34015,10.41491 16.90359,17.44703 3.67887,7.2599 7.19211,20.12695 8.64317,31.6552 1.49728,11.89539 0.71148,40.36607 -1.62225,58.77633 -8.12116,64.06593 -38.4842,116.92026 -86.75597,151.02006 -7.84466,5.54157 -9.14095,6.90908 -11.60118,12.23866 -1.52335,3.3 -4.85102,8.74756 -7.39483,12.1057 l -4.62511,6.10569 1.57688,7.39431 c 1.83834,8.62033 1.32792,23.1019 -1.05839,30.02821 -1.48948,4.32323 -1.47638,4.39402 1.49724,8.0943 4.17183,5.19129 7.6209,12.37765 9.54711,19.89203 2.45306,9.56967 1.44813,28.32518 -2.19036,40.87976 -1.51428,5.225 -2.6979,10.625 -2.63028,12 0.0676,1.375 0.42098,9.28098 0.78526,17.56885 l 0.66233,15.06884 -4.36861,1.62326 c -11.99108,4.45556 -26.49173,7.30978 -42.12745,8.29211 -9.53603,0.59911 -11.44606,1.11114 -27.74115,7.43668 -22.00286,8.54121 -40.71428,14.61309 -49.05044,15.91689 -15.86512,2.4813 -50.58025,3.7105 -67.94956,2.406 z"
       style="fill:#000000" />
    <path
       id="path3448"
       d="M 260.65625 906.1875 C 259.75528 906.28585 259.83807 907.55913 260.875 910.0625 C 263.87598 917.3075 271.27655 922.68536 281.5 925.03125 C 295.00519 928.13017 337.16324 928.34921 359.375 925.4375 C 365.94713 924.57597 371.64741 923.50884 372.0625 923.09375 C 373.32902 921.82723 366.78085 913.76612 365.03125 914.4375 C 361.53251 915.7801 311.12641 915.03097 297.3125 913.4375 C 282.89111 911.77395 265.70422 908.50308 262.46875 906.78125 C 261.65054 906.34582 261.06578 906.1428 260.65625 906.1875 z M 621.9375 934.96875 C 621.45298 934.96875 618.13417 936.06188 614.5625 937.40625 C 604.15863 941.32226 591.84016 943.1901 574.8125 943.4375 C 561.67693 943.62834 557.80917 944.04404 549.46875 946.28125 C 527.62955 952.13932 495.65982 955.40236 459.3125 955.4375 C 435.83215 955.4602 429.9882 955.15562 423.03125 953.625 C 413.8189 951.59816 402.87793 948.08498 398 945.5625 C 396.24468 944.65479 394.8125 944.2992 394.8125 944.78125 C 394.8125 946.73504 397.06197 951.96875 397.90625 951.96875 C 398.40388 951.96875 400.47383 953.78853 402.5 956.03125 C 410.30142 964.6665 427.60882 970.07643 454.8125 972.375 C 461.73456 972.95987 493.33316 972.04203 505.46875 970.90625 C 521.01654 969.45112 532.13965 966.03085 568.625 951.46875 C 576.6082 948.28248 583.81746 945.96527 584.90625 946.25 C 587.82342 947.01285 606.22823 945.247 615.0625 943.34375 L 622.8125 941.65625 L 622.8125 938.3125 C 622.8125 936.46706 622.42202 934.96875 621.9375 934.96875 z "
       style="fill:#ffe680" />
    <path
       id="path3446"
       d="M 491.21875 388.125 C 490.64213 388.14029 489.11935 389.20276 487.5625 390.6875 C 482.42422 395.58779 470.15074 403.96284 458.5625 410.46875 C 448.75746 415.97352 448.09112 416.51791 450.59375 417.125 C 455.03252 418.20177 489.60836 417.5819 490.78125 416.40625 C 492.85217 414.33043 493.91984 404.34999 492.9375 396.4375 C 492.41493 392.22834 491.73733 388.51859 491.40625 388.1875 C 491.36486 388.14612 491.30112 388.12282 491.21875 388.125 z M 424.21875 433.125 C 421.34256 433.25185 421.8125 434.44758 421.8125 437.34375 C 421.8125 446.32234 428.61615 474.96875 430.75 474.96875 C 431.23083 474.96875 435.13038 472.60625 439.40625 469.71875 C 453.55862 460.16162 468.8125 444.15629 468.8125 438.875 C 468.8125 436.5646 466.82809 435.96084 459 435.9375 C 455.33249 435.9266 446.2375 435.27188 438.8125 434.46875 C 430.71375 433.59274 426.45579 433.02634 424.21875 433.125 z M 453.3125 482.75 L 446.09375 487.09375 C 442.12574 489.48976 438.86324 491.94557 438.84375 492.5625 C 438.78415 494.44927 448.13825 508.13045 454.75 515.8125 C 461.57434 523.74158 478.41648 538.31223 479.78125 537.46875 C 480.24969 537.17924 481.90948 531.87171 483.4375 525.6875 C 487.01162 511.22226 487.38207 496.3028 484.34375 490.65625 C 482.5821 487.3823 481.72617 486.86918 475.84375 485.53125 C 472.24424 484.71256 465.71001 483.76388 461.3125 483.40625 L 453.3125 482.75 z M 537.125 521.3125 C 528.69146 521.45065 519.12312 522.34562 518.15625 523.3125 C 517.85249 523.61626 519.28731 526.91532 521.375 530.65625 C 540.50135 564.92864 567.65859 592.64012 592.09375 602.8125 C 604.51712 607.98436 616.08058 608.99815 621.5625 605.40625 C 625.18443 603.03307 626.06577 599.41324 625.5 589.46875 C 624.91831 579.24435 622.33214 568.76015 617.25 556.0625 C 613.75786 547.33745 613.73237 547.30231 606.03125 542.25 C 586.80283 529.63524 567.09305 522.93292 544.8125 521.4375 C 542.62122 521.29043 539.93618 521.26645 537.125 521.3125 z M 382.90625 777.8125 C 381.73696 777.77481 380.54911 777.96316 378.84375 778.3125 C 375.50526 778.99638 371.88192 779.0116 367.84375 778.34375 C 364.5332 777.79624 361.8125 777.7152 361.8125 778.15625 C 361.8125 778.59731 362.19771 778.96875 362.65625 778.96875 C 364.14745 778.96875 379.80929 794.06428 382.71875 798.3125 C 387.84809 805.80207 387.78121 806.04508 379.09375 810.34375 C 371.8856 813.91043 371.29345 814.03324 370.34375 812.34375 C 367.20314 806.75671 347.60891 788.91082 340.875 785.5 C 337.39591 783.7378 309.23827 782.02375 299.3125 782.96875 C 270.89726 785.67409 253.61708 798.85894 246.84375 822.96875 C 244.01228 833.04742 242.51426 850.35148 243.78125 858.21875 C 245.80643 870.79395 254.60434 882.64316 266.0625 888.21875 C 272.03656 891.12575 287.75635 894.26909 304.3125 895.84375 C 314.78152 896.83946 357.8125 897.23759 357.8125 896.34375 C 357.8125 896.01064 357.1029 892.97314 356.21875 889.59375 C 353.59194 879.55357 354.70899 860.05765 358.59375 848.1875 C 367.56435 820.77719 388.33622 802.45828 418.5625 795.3125 L 425.8125 793.59375 L 411.5625 788.4375 C 403.73039 785.60396 394.27751 781.92762 390.5625 780.28125 C 386.70451 778.57152 384.85506 777.87531 382.90625 777.8125 z M 502.875 793.5625 C 496.0172 793.64262 494.31056 794.03981 493.21875 795.125 C 491.6369 796.69731 491.76989 796.90787 495.28125 798.375 C 507.32685 803.40798 520.07328 815.13664 526.1875 826.84375 C 529.49103 833.16914 532.18145 840.91231 531.375 841.71875 C 530.8898 842.20395 516.68236 845.91453 515.21875 845.9375 C 514.61831 845.9465 513.56123 844.05625 512.875 841.71875 C 508.88021 828.11131 494.19435 815.5848 477.71875 811.75 C 474.3355 810.96253 464.83328 810.47139 452.3125 810.46875 C 434.80651 810.46475 431.2173 810.76257 423.375 812.75 C 399.2163 818.87242 383.15227 832.75897 376.25 853.46875 C 373.10136 862.91605 372.01705 875.84017 373.71875 884.03125 C 376.64916 898.13669 391.10834 919.44545 402.78125 926.90625 C 408.69053 930.68319 420.77308 934.71172 431.65625 936.5 C 442.60408 938.2989 479.56463 937.74088 501.625 935.46875 C 520.99092 933.47413 544.08864 929.58544 549.875 927.34375 C 553.28311 926.02342 559.11355 925.45223 574.8125 924.90625 C 597.47382 924.11813 605.008 922.62945 616.15625 916.6875 C 622.81706 913.13732 623.18113 912.52741 626.03125 898.96875 C 630.66879 876.90695 625.2353 860.14508 611.53125 854.1875 C 608.64759 852.93388 573.57697 825.86053 574.125 825.3125 C 574.29471 825.14279 583.60883 827.43284 594.84375 830.40625 C 606.07868 833.37966 615.47967 835.61408 615.71875 835.375 C 616.68139 834.41235 617.69068 823.18767 617.1875 818.96875 C 616.35893 812.02165 613.9986 805.47042 611.46875 803.09375 C 609.44622 801.19369 606.74896 800.68545 588.75 798.96875 C 548.50195 795.13 528.0692 793.7222 511.625 793.59375 C 508.02263 793.56561 505.16093 793.53579 502.875 793.5625 z "
       style="fill:#d40000" />
    <path
       id="path3440"
       d="M 343.15625 32.4375 C 332.63775 32.51005 322.95142 36.10613 314.46875 43.25 L 310.625 46.5 L 321.5625 46.125 C 335.08121 45.662284 341.57661 46.939181 352 52.15625 C 378.71229 65.526177 399.05288 103.31292 403.875 148.46875 C 406.43594 172.45018 401.72153 196.92206 391 215.40625 C 385.95281 224.10772 373.83568 235.71414 365.59375 239.75 C 353.75157 245.5488 343.04596 246.91539 325.3125 244.90625 C 307.23542 242.85818 295.32733 238.45035 288.8125 231.375 C 277.32873 218.90319 260.05144 206.50031 242.3125 197.96875 C 202.76239 178.94708 165.93939 178.41893 129.28125 196.375 C 118.22551 201.79038 99.8125 213.71641 99.8125 215.46875 C 99.8125 215.76283 101.3783 217.39168 103.28125 219.0625 C 105.18421 220.73331 107.86946 224.43136 109.25 227.28125 C 112.10687 233.17873 114.40783 245.44686 113.40625 249.4375 C 111.52815 256.92044 102.6041 259.51377 96.875 254.21875 C 94.35976 251.89408 93.75882 250.30299 92.9375 244.09375 C 92.01746 237.13817 89.96919 232.96875 87.5 232.96875 C 86.94105 232.96875 85.71939 232.25525 84.78125 231.40625 C 83.21232 229.98639 82.39827 230.56768 74.875 238.65625 C 68.07694 245.96512 65.713939 249.49491 60.8125 259.46875 C 49.256463 282.98392 45.145062 302.76881 47.75 322.34375 C 52.817675 360.42504 79.854257 393.36124 125.0625 416.53125 C 142.25682 425.34363 165.8392 433.50449 172.1875 432.84375 C 173.35344 432.72239 176.3375 433.20517 178.8125 433.90625 C 187.28297 436.30563 215.26209 432.95852 235.3125 427.15625 C 270.22173 417.05407 300.21986 399.00471 326.34375 372.375 C 339.54579 358.91735 339.84717 358.31172 336.59375 352.21875 C 328.57481 337.20099 325.77144 315.09025 329.3125 294.96875 C 331.1622 284.4581 334.60229 273.93042 336.15625 274 C 336.79891 274.0288 340.4625 275.33726 344.3125 276.90625 C 352.29065 280.15759 352.11454 279.54791 348.90625 291.46875 C 340.45638 322.86548 350.08258 351.0047 374.8125 367.1875 C 378.93133 369.88279 382.43423 372.21548 382.59375 372.375 C 382.81842 372.59967 375.46353 386.15977 374.21875 387.8125 C 373.74331 388.44376 361.58608 380.70164 356.3125 376.40625 L 351.21875 372.25 L 344.28125 380.21875 C 336.83504 388.74658 322.95406 401.16243 310.8125 410.1875 C 288.80103 426.54909 262.19513 439.07058 233.90625 446.375 L 221.5 449.59375 L 229.40625 451.28125 C 246.83805 455.00207 258.38978 456.23343 276.8125 456.28125 C 297.19628 456.33415 310.72141 454.69235 326.625 450.28125 C 331.73661 448.86347 336.02528 447.88868 336.1875 448.09375 C 337.00363 449.12542 341.8125 462.15753 341.8125 463.34375 C 341.8125 466.03793 319.06352 471.84564 300.4375 473.90625 C 295.54946 474.44702 291.41544 475.02205 291.25 475.1875 C 289.43932 476.99818 281.43705 511.48705 278.65625 529.4375 C 276.04706 546.28029 275.036 584.15241 276.78125 600.21875 C 281.14302 640.37213 293.38676 672.7586 314.875 700.96875 C 320.51521 708.37332 325.52891 713.69345 326.09375 712.875 C 326.25339 712.64366 328.07671 709.88147 330.125 706.71875 L 333.84375 700.96875 L 331.90625 695.21875 C 326.88237 680.20164 326.44614 660.14765 330.875 648.25 C 334.9813 637.21888 344.67605 626.6361 355.96875 620.875 C 361.52484 618.04049 373.70396 614.9536 382.5 614.15625 L 390.3125 613.46875 L 390.65625 608.96875 C 391.14301 602.36622 389.0629 584.23649 386.8125 575.4375 C 384.07775 564.74475 379.32995 555.55408 374.15625 551 C 371.77388 548.90296 369.8125 546.92722 369.8125 546.59375 C 369.8125 546.08513 377.46054 533.11497 378.34375 532.125 C 379.13601 531.23699 384.87686 535.31726 388.90625 539.625 C 397.04806 548.32926 402.39278 559.87319 405.96875 576.46875 C 408.15823 586.62986 409.53155 614.45024 408.375 625.25 L 407.65625 631.96875 L 395.5 631.96875 C 363.0277 632.01505 347.23918 642.91378 346.03125 666.125 C 345.48514 676.61891 347.39464 686.08686 352.3125 697.375 L 355.75 705.28125 L 349.9375 711.5 C 342.1498 719.82503 338.8125 726.60282 338.8125 734.1875 C 338.8125 737.40683 339.47601 741.31783 340.28125 742.875 C 342.37801 746.92968 347.75725 751.18841 350.03125 750.59375 C 351.3654 750.24486 352.19427 750.823 352.84375 752.53125 C 353.34995 753.86265 353.88014 754.9662 354.03125 754.96875 C 354.18236 754.97175 357.0125 756.0781 360.3125 757.4375 C 366.91585 760.15767 371.67241 760.52361 378.34375 758.84375 C 383.32273 757.59003 384.72737 755.87584 387.28125 747.96875 C 388.25828 744.94375 389.37305 742.10456 389.75 741.6875 C 390.12695 741.27045 392.88205 742.78055 395.875 745.03125 C 414.31476 758.89802 434.08695 760.69265 450.75 750 C 461.5315 743.08153 478.52929 720.59624 480.875 710.15625 C 482.72292 701.93178 483.76018 676.50037 482.8125 662.46875 C 479.05133 606.78005 459.50159 567.08438 421.03125 536.96875 L 417.84375 534.46875 L 422.9375 527.71875 C 425.7351 524.00625 428.55658 520.96698 429.1875 520.96875 C 429.81842 520.97075 433.8 523.89351 438.0625 527.46875 C 442.325 531.04399 445.8125 533.77625 445.8125 533.53125 C 445.8125 533.28625 443.50288 530.44451 440.6875 527.25 C 420.38581 504.21442 407.20521 474.0057 403.90625 443.0625 C 403.35619 437.90309 402.71848 433.49973 402.5 433.28125 C 402.28151 433.06277 400.89333 433.37216 399.40625 433.9375 C 393.9017 436.03033 393.16732 435.47503 391.3125 427.90625 C 390.36317 424.03245 389.50992 420.18689 389.4375 419.34375 C 389.3404 418.21375 392.46704 416.89245 401.3125 414.34375 C 437.13611 404.02162 467.25114 386.9285 488 365.125 C 498.0596 354.55408 504.24552 345.58064 510.28125 332.78125 C 516.94358 318.65305 518.19842 312.88027 518.25 295.96875 C 518.312 275.64285 515.29766 261.1082 507.71875 245.21875 C 497.56706 223.9354 475.433 201.86066 454.65625 192.25 C 448.34641 189.33127 447.82228 188.2443 447.8125 178.09375 C 447.7986 163.69562 440.53821 127.89822 434.3125 111.5 C 430.45758 101.34634 423.25697 87.339008 418.34375 80.46875 C 412.78635 72.697718 396.30405 56.441653 387.03125 49.5625 C 371.56687 38.090041 356.68004 32.344222 343.15625 32.4375 z M 166.03125 218 C 169.34691 217.98587 170.34631 218.50028 172.5 220.3125 C 177.46351 224.48901 177.50068 230.48054 172.59375 235.71875 C 170.92645 237.49861 169.37095 237.96875 165.21875 237.96875 C 158.53614 237.96875 154.66144 240.91408 152.84375 247.40625 C 151.01716 253.9302 147.85372 256.96875 142.875 256.96875 C 139.83271 256.96875 138.05791 256.23338 135.59375 254.03125 C 132.81422 251.54728 132.32865 250.46782 132.40625 246.78125 C 132.59924 237.61339 139.92407 226.38871 148.90625 221.5 C 153.06895 219.23437 155.89297 218.49893 161.8125 218.15625 C 163.56869 218.05459 164.92603 218.00471 166.03125 218 z M 705.53125 529.96875 C 695.77814 529.96875 679.94334 535.42291 669.28125 542.5 L 663.84375 546.125 L 666.65625 550.28125 C 674.84188 562.38427 680.79044 576.15294 683.40625 589.0625 C 685.57159 599.7489 684.88113 614.69284 681.8125 623.96875 C 676.32274 640.56336 662.57833 656.65568 647.8125 663.78125 C 635.78443 669.58565 627.87982 671.25875 612.3125 671.3125 C 598.30419 671.3609 592.76451 670.47669 577.4375 665.8125 C 544.15111 655.68306 511.23411 630.8079 491.34375 600.71875 C 489.25318 597.55625 487.45249 594.96875 487.34375 594.96875 C 487.23501 594.96875 488.8162 600.03125 490.875 606.21875 C 498.16494 628.12778 501.22964 649.00405 501.25 676.96875 C 501.2697 704.06259 499.89836 713.98119 494.625 724.46875 C 482.02002 749.53729 464.79595 766.39127 445.65625 772.4375 C 441.29357 773.81567 436.29036 774.98327 434.53125 775 C 432.04648 775.0236 431.68397 775.23622 432.9375 775.96875 C 435.02605 777.18925 459.25159 783.31357 468.375 784.9375 L 475.4375 786.21875 L 478.875 783.0625 C 480.77155 781.32796 484.3375 778.90182 486.8125 777.6875 C 495.29679 773.52481 514.52184 774.00241 581.21875 780 C 608.47818 782.45125 614.65496 783.28563 617.21875 784.875 C 618.92089 785.93021 620.88292 786.82944 621.5625 786.875 C 622.24209 786.9206 624.19265 784.17587 625.90625 780.78125 C 627.61985 777.38662 630.18725 770.29912 631.59375 765.03125 C 633.86778 756.5141 634.18217 753.14288 634.5 734.46875 L 634.84375 713.46875 L 643.09375 712.375 C 647.70273 711.77719 651.75787 711.70676 652.3125 712.1875 C 652.90422 712.70039 653.30705 721.03077 653.3125 732.875 L 653.3125 752.71875 L 655.375 751.09375 C 685.6155 727.07865 708.93627 690.32612 719.34375 650.3125 C 725.37166 627.13698 729.05014 586.9541 726.90625 567.84375 C 724.95708 550.46907 720.90213 539.08329 714.6875 533.46875 C 711.27946 530.38966 710.17137 529.96875 705.53125 529.96875 z M 252.71875 604.96875 C 239.73802 604.96875 232.40898 612.3812 229.1875 628.78125 C 226.36682 643.14087 229.75467 654.70359 238.90625 661.9375 C 243.50505 665.57264 252.62492 669.31428 259.3125 670.3125 C 262.17289 670.73946 273.98633 670.10741 274.59375 669.5 C 274.75277 669.34097 272.61346 662.44979 269.84375 654.15625 C 265.56834 641.35413 261.57186 624.15718 259.28125 608.71875 L 258.71875 604.96875 L 252.71875 604.96875 z M 222.71875 673.34375 C 222.10675 673.33246 221.60167 673.72628 220.78125 674.46875 C 217.56985 677.37503 213.90196 684.42675 212.25 690.875 C 210.83888 696.38312 210.8349 697.51039 212.28125 703.15625 C 214.17069 710.53143 218.297 717.29397 224.25 722.78125 C 230.01744 728.09749 233.8215 729.96875 239.03125 729.96875 C 244.51011 729.96875 246.66198 728.41233 252.375 720.40625 C 254.90939 716.85468 257.11721 713.96875 257.28125 713.96875 C 257.44529 713.96875 259.43379 717.05018 261.6875 720.84375 C 266.33061 728.65927 270.1054 732.22795 277.3125 735.59375 C 283.36236 738.41911 291.90787 738.70759 299.875 736.34375 C 302.86232 735.45741 307.48983 733.64692 310.125 732.3125 L 314.90625 729.875 L 312.90625 727.0625 C 311.80926 725.52191 310.16527 723.66585 309.25 722.90625 C 306.07029 720.26732 295.03318 705.41356 289.25 695.96875 C 286.05067 690.74375 283.41373 686.37614 283.375 686.28125 C 283.3363 686.18635 280.38427 686.78457 276.8125 687.625 C 261.10848 691.32009 240.39579 686.39576 226.53125 675.65625 C 224.47934 674.06683 223.5056 673.35826 222.71875 673.34375 z "
       style="fill:#37c837" />
    <path
       id="path3430"
       d="M 247.9375 63 C 240.76891 63.245916 233.4616 67.418996 225.84375 75.5625 C 211.32196 91.086346 203.35415 115.81372 200.375 154.53125 L 199.84375 161.625 L 206.1875 162.78125 C 227.39598 166.68907 248.63137 175.96869 271.8125 191.4375 C 286.369 201.15107 294.50586 208.14228 298.46875 214.40625 C 303.04413 221.63838 311.66734 225.24655 328.6875 227 C 338.92694 228.05489 347.79078 227.30723 354.375 224.84375 C 360.90853 222.39925 369.76724 214.64503 374.5625 207.15625 C 386.82473 188.00625 389.54317 158.86386 381.90625 128.625 C 374.36083 98.748465 360.15284 76.676798 343.03125 68.21875 C 335.67349 64.58402 335.0698 64.45151 324.875 64.46875 C 315.48237 64.48463 313.66441 64.808539 308.28125 67.28125 C 304.95621 68.808582 300.95873 71.386389 299.40625 73.03125 C 295.17363 77.515711 291.01163 79.275466 284.78125 79.21875 C 277.67497 79.15406 272.62923 77.001349 266.78125 71.53125 C 260.47477 65.632281 254.26272 62.783015 247.9375 63 z M 243.84375 82.125 C 244.93179 82.069542 246.01711 82.141771 247.09375 82.34375 C 261.76466 85.096024 268.5188 108.11864 262.21875 133.90625 C 260.25148 141.95875 253.16033 157.26738 249.28125 161.84375 C 246.25621 165.41255 239.69383 168.95193 236.3125 168.84375 C 235.2125 168.80855 233.04826 168.40223 231.5 167.9375 C 216.83116 163.53452 209.68605 136.91364 216.875 113.46875 C 222.55108 94.957692 233.32604 82.661095 243.84375 82.125 z M 308.34375 97.375 C 309.79413 97.341491 311.28134 97.548037 312.84375 97.96875 C 328.76548 102.25602 334.08382 128.43709 324.71875 156.4375 C 317.27467 178.69438 306.52844 187.87855 294.25 182.53125 C 282.62073 177.46667 275.89388 154.30882 280.1875 134.09375 C 282.44219 123.47832 288.914 110.71101 295.28125 104.34375 C 299.9546 99.670406 303.9926 97.475526 308.34375 97.375 z M 454.65625 192.25 C 399.845 209.95451 369.06456 244.42905 350.90625 280.59375 C 351.11453 282.56727 351.47002 281.94272 348.90625 291.46875 C 340.45638 322.86548 350.08258 351.0047 374.8125 367.1875 C 378.93133 369.88279 382.43423 372.21548 382.59375 372.375 C 382.81842 372.59967 375.46353 386.15977 374.21875 387.8125 C 373.74331 388.44376 361.58608 380.70164 356.3125 376.40625 L 351.21875 372.25 L 344.28125 380.21875 C 336.83504 388.74658 322.95406 401.16243 310.8125 410.1875 C 288.80103 426.54909 262.19514 439.07058 233.90625 446.375 L 221.5 449.59375 L 229.40625 451.28125 C 246.83805 455.00207 258.38978 456.23343 276.8125 456.28125 C 297.19628 456.33415 310.72141 454.69235 326.625 450.28125 C 331.73661 448.86347 336.02528 447.88868 336.1875 448.09375 C 337.00363 449.12542 341.8125 462.15753 341.8125 463.34375 C 341.8125 466.03793 319.06352 471.84564 300.4375 473.90625 C 295.54946 474.44702 291.41544 475.02205 291.25 475.1875 C 289.43932 476.99818 281.43705 511.48705 278.65625 529.4375 C 276.04706 546.28029 275.036 584.15241 276.78125 600.21875 C 281.14302 640.37213 293.38676 672.7586 314.875 700.96875 C 320.51521 708.37332 325.52891 713.69345 326.09375 712.875 C 326.25339 712.64366 328.07671 709.88147 330.125 706.71875 L 333.84375 700.96875 L 331.90625 695.21875 C 326.88237 680.20164 326.44614 660.14765 330.875 648.25 C 334.9813 637.21888 344.67605 626.6361 355.96875 620.875 C 359.83801 618.90105 366.92992 616.829 373.84375 615.46875 C 350.66985 554.84843 356.94614 489.95694 392.875 435.15625 C 392.40624 429.88829 390.20574 426.57462 389.4375 419.34375 C 389.3404 418.21375 392.46704 416.89245 401.3125 414.34375 C 437.13611 404.02162 467.25114 386.9285 488 365.125 C 498.0596 354.55408 504.24552 345.58064 510.28125 332.78125 C 516.94358 318.65305 518.19842 312.88027 518.25 295.96875 C 518.312 275.64285 515.29766 261.1082 507.71875 245.21875 C 497.56706 223.9354 475.433 201.86066 454.65625 192.25 z M 500.625 531.59375 C 500.59675 531.59799 500.54789 531.59663 500.53125 531.625 C 500.26505 532.07897 497.7605 537.91148 494.9375 544.5625 C 489.91972 556.38442 489.81914 556.74278 491.1875 560.5625 C 497.84053 579.13418 509.10503 596.37285 524.75 612 C 545.71898 632.94509 568.53566 645.97736 593.8125 651.40625 C 602.62242 653.29842 620.72263 653.29104 628.71875 651.40625 C 644.99941 647.56862 657.94081 635.84531 664.03125 619.40625 C 667.35856 610.42533 667.08639 595.3353 663.40625 584.46875 C 660.27401 575.21999 655.30157 565.70605 649.6875 558.21875 C 645.87142 553.12938 645.61637 552.96875 640.84375 552.96875 L 635.90625 552.96875 L 637.40625 557.21875 C 638.23319 559.55625 639.77806 564.78311 640.84375 568.84375 C 648.21719 596.93901 643.53327 615.90291 627.4375 623.09375 C 620.83119 626.04513 605.70503 626.27772 595.8125 623.5625 C 568.58309 616.08879 538.70463 590.88476 515.53125 555.8125 C 511.40889 549.57342 506.4611 541.37897 504.53125 537.625 C 502.72201 534.10566 501.0488 531.53008 500.625 531.59375 z M 726.0625 608.84375 C 726.0625 608.84375 725.35857 609.60628 725.125 610.0625 C 677.55205 702.98678 650.84375 710.75 650.84375 710.75 L 650.8125 711.90625 C 654.66667 712.40226 653.31132 732.19487 653.3125 732.875 L 653.3125 752.71875 L 655.375 751.09375 C 685.6155 727.07865 708.93627 690.32612 719.34375 650.3125 C 722.54592 635.89478 724.8372 621.38461 726.0625 608.84375 z "
       style="fill:#ffffff" />
    <path
       id="path3426"
       d="m 472.21846,561.04127 c -1.50993,-4.62449 -3.26293,-8.00186 -4.65994,-8.97796 -1.2317,-0.86059 -5.05196,-3.94863 -8.48946,-6.86231 -3.4375,-2.91367 -6.25,-5.08728 -6.25,-4.83024 0,0.25705 2.27455,3.06661 5.05455,6.24348 2.78,3.17686 7.58367,9.49938 10.67481,14.05005 3.09114,4.55066 5.72607,8.16509 5.85539,8.03207 0.12933,-0.13302 -0.85408,-3.57781 -2.18535,-7.65509 z"
       style="fill:#000000" />
    <path
       id="path3410"
       d="m 289.58242,38.384528 c -0.21383,-0.213836 -4.72961,-1.12217 -10.03507,-2.018521 -13.29868,-2.246798 -23.68912,-0.81675 -34.92441,4.806692 -4.3688,2.186655 -7.79941,4.112052 -7.62358,4.278661 0.17584,0.166609 2.94465,-0.153206 6.15293,-0.7107 9.59707,-1.667658 22.84882,2.125833 31.54939,9.031435 l 2.38262,1.891073 6.44346,-8.444924 c 3.5439,-4.644709 6.2685,-8.619881 6.05466,-8.833716 z"
       style="fill:#37c837" />
  </g>
  <g
     transform="translate(49.628703,106.91149)"
     id="layer1"
     inkscape:label="Layer 1"
     style="fill:#ffffff">
    <path
       sodipodi:nodetypes="cccccccccccccccccccccccccccccccccccccccccccccccccccccccccccccccccccccccccccccccccccccccccccccccccccccccccccccccccccccccccccccccccccccccccccccccccccccccccccc"
       inkscape:connector-curvature="0"
       id="path3014"
       d="m 307.1875,905.71875 c -14.71172,3.2326 -22.31955,18.30825 -29,30.40625 -4.49318,7.45262 -6.22013,17.19447 -14.625,21.25 -17.76798,12.53713 -38.12863,22.31396 -59.3125,27.46875 -0.3142,-4.64999 6.61897,-9.94743 2.8125,-14.34375 -4.61504,-3.16743 -8.625,3.63785 -12.08529,5.76466 -4.75886,3.82132 -11.03967,10.61276 -17.60221,7.95409 -1.45825,-3.41545 3.35251,-6.22842 4.96875,-8.75 6.89968,-7.22275 16.12499,-11.73841 25.71875,-14.0625 3.45541,-2.64846 -0.33029,-8.46633 -4.34375,-6.28125 -25.81695,3.40362 -48.32781,18.63648 -72.625,26.9375 -2.26497,-1.0872 -0.0214,-5.3822 0.3125,-7.3125 0.69983,-4.83164 5.53748,-9.1608 4.46875,-14.0625 -3.21407,-5.06602 -8.56513,0.90827 -12.25,2.15625 -3.12208,1.37389 -6.62086,2.61142 -10.0625,1.875 4.70771,-1.97528 6.88597,-9.9423 1.125,-11.9375 -6.01239,-2.32388 -13.33293,3.59621 -11.71875,10 -14.010472,8.59332 -28.639706,19.44401 -45.65625,19.84375 -3.977455,-0.2357 -9.543485,-3.35825 -10.75,-5.78125 10.041957,-1.90604 22.179135,-5.00562 27.21875,-14.65625 2.262241,-5.309 -4.47016,-8.56583 -8.90625,-7.375 -8.691717,1.27006 -17.056005,5.16909 -24.21875,10.21875 4.806918,-8.62423 8.067377,-18.4849 16.618819,-24.18222 6.854974,-7.48036 16.669092,-12.99465 21.099931,-22.19278 1.624579,-3.59966 0.229384,-9.53363 -4.6875,-8.65625 -13.149714,2.38383 -19.00283,16.15481 -25.720468,26.14628 -5.128464,10.90567 -16.46923,16.78085 -25.531196,24.10028 -6.453101,5.05244 -14.2669788,8.3473 -20.842086,12.97219 -2.55369492,3.45819 2.527214,7.43068 5.5432678,4.69451 C 17.099482,972.73738 26.522343,966.52557 35.3125,959.625 c -4.139619,8.90878 -9.77205,17.12347 -14.78125,25.34375 -0.902765,4.72442 6.033614,5.59731 7.647675,1.53819 3.313282,-1.50474 6.918628,-11.09571 10.172939,-6.97828 6.622204,7.95413 17.740297,13.23821 27.987462,8.98787 14.523745,-3.9432 27.587521,-12.09399 40.379424,-19.51653 5.38263,4.27985 13.55118,2.55565 18.9375,0.78125 -1.63961,5.42026 -5.57267,13.99062 0.125,18.25 8.03523,3.02658 16.46537,-2.8487 23.90625,-5.40625 9.44559,-4.22777 18.6742,-9.05396 28.3125,-12.75 -5.06354,4.26202 -11.68828,12.72609 -5.90625,19.09375 6.41129,6.45541 16.30824,1.32417 22.3125,-3.125 2.86844,-2.86561 2.3499,-0.93577 2.625,1.78125 1.55762,6.42871 10.26403,4.35012 14.75,2.875 18.181,-5.68964 35.68488,-13.61512 51.40625,-24.1875 -3.09137,4.68634 -9.28262,6.85923 -12.84375,11.53125 -9.49825,10.26876 -17.39725,22.45595 -22.03125,35.59375 -1.55256,4.143 3.01827,8.5437 6.84375,5.5 14.08991,-8.5066 21.61969,-24.14295 28.90625,-38.3125 6.12784,8.37994 18.00317,4.00086 25.48818,0.0528 6.54492,-3.31279 13.42004,-7.93069 19.07432,-11.58404 -2.73396,5.77843 -9.05798,13.70543 -4.40625,19.96875 6.59085,4.87066 15.37199,-0.386 21.90625,-2.84375 14.65417,-6.06584 30.86286,-12.91659 44.4375,-19.21875 -2.47395,6.7757 -9.52748,14.05773 -6.40625,21.6875 4.04945,5.50959 12.09614,1.29037 16.6875,-1.4375 3.22197,-1.83266 6.30211,-3.85806 9.28125,-6.03125 -11.26251,22.08054 -23.40224,43.88534 -34.15625,66.12504 -0.42962,4.5933 6.93936,5.0525 7.4375,0.4687 18.20659,-34.6902 46.69445,-65.69557 83.46875,-80.46874 -2.13196,4.89827 -6.4945,9.57251 -6.71875,15 0.92885,4.27254 6.08451,2.99085 8.46875,0.75 12.46683,-6.41835 24.09662,-14.58749 36.90625,-20.03125 3.79065,-0.22644 -0.4504,4.1045 -1.6875,4.875 -4.66637,5.09457 -11.93334,9.64567 -12.90625,16.90625 0.29815,6.46911 8.91037,5.16179 13.0625,3.875 14.87586,-4.41255 29.286,-12.8292 43.125,-18.21875 -4.73844,4.60775 -10.95448,13.33586 -5.5625,19.53125 6.5432,4.49225 15.48917,1.10289 21.96875,-1.9375 4.07073,-1.64561 7.51574,-6.11909 10.59375,-7.84375 11.21459,6.73753 25.03522,1.91412 34.96875,-4.9375 3.3901,-2.00278 7.21329,-4.41192 10.46875,-5.90625 -5.58554,4.91117 -10.65751,15.68604 -3.53125,21.375 7.61339,3.73906 16.78005,-0.96777 23.40625,-5 3.24806,-1.2653 5.36119,-7.06454 9,-4.125 16.42108,5.23772 32.7501,-4.80599 45.02436,-14.84232 4.13191,-3.182 8.29346,-6.35169 12.22564,-9.81393 -5.31916,10.26858 -11.98388,19.90958 -17.03125,30.125 -0.49864,4.09834 5.59569,5.53495 7.0625,1.5625 2.64026,-4.09774 5.67399,-8.46014 9.34375,-11.3125 6.02954,8.65389 16.67474,15.7423 27.59375,12.21875 9.74307,-3.03334 18.52872,-9.03529 27.5,-13.75 3.03709,-3.21437 -1.87192,-7.93085 -5.14998,-5.15782 -10.47537,4.04906 -19.82916,13.90285 -31.66252,12.25157 -4.52303,-1.08295 -7.92613,-4.49532 -10.90625,-7.875 10.54297,0.9282 25.01422,-1.47982 28.09375,-13.25 1.64375,-5.33733 -4.15031,-9.00596 -8.90625,-7.34375 -8.09207,1.79359 -15.53825,6.07461 -22.28125,10.5625 6.46033,-10.0854 10.72311,-22.02292 20.76517,-29.19847 5.39939,-6.31867 14.53688,-10.60261 16.73483,-19.05153 1.34402,-5.33373 -5.26935,-7.1783 -9,-5.03125 -13.99117,6.08419 -15.58213,24.59105 -27.9645,32.73393 -11.22813,9.7133 -23.10104,18.94227 -35.69175,26.64107 -7.06027,3.19202 -15.67731,6.57511 -23.34375,3.71875 4.61718,-4.07491 5.04961,-14.59461 -2.65625,-15.15625 -1.65521,0.0963 -1.70426,-3.97896 -4.5,-3.5 -17.32807,-1.16302 -31.86976,9.46786 -46.15625,17.375 -5.75944,3.13473 -14.28972,4.19517 -19.5625,0.40625 2.58714,-4.27564 4.60926,-12.7884 -1.71875,-14.71875 -2.1181,0.17588 -2.70945,-0.71527 -3.90625,-2.25 -4.5378,-1.78758 -9.71491,1.45843 -14.36936,1.98785 -19.95433,5.19458 -37.49654,16.70318 -56.94314,23.13715 -3.10773,0.2978 5.08662,-5.45088 5.83601,-7.23343 4.00473,-4.01439 10.27987,-11.11952 5.66399,-16.82907 -5.94814,-4.4387 -13.57815,0.87543 -19.375,3.21875 -7.09549,3.53962 -13.97279,7.47982 -20.84375,11.4375 3.43684,-3.71196 6.33395,-12.64463 -0.9375,-13.65625 -9.25883,0.56619 -17.66616,6.18686 -25.71875,10.4375 -13.40765,8.20068 -25.72044,18.23984 -36.71875,29.4375 5.00475,-10.40073 11.39111,-20.42751 15.75,-31 -0.1361,-4.61402 -6.69569,-4.37374 -8.5,-0.75 -7.7552,6.35493 -15.92691,13.37473 -25.25,16.84375 2.35111,-9.9311 8.98736,-18.09989 14.6875,-26.1875 0.87541,-4.38085 -5.28925,-5.86264 -7.78329,-2.64076 -20.72121,10.75501 -42.01504,21.30789 -64.46671,27.60951 -4.29363,0.4375 -0.56402,-5.5534 -0.0312,-7.40625 4.02649,-7.4485 7.49737,-15.69554 14.21875,-21.15625 14.07466,-2.25693 28.94369,-4.0771 41.65625,-10.59375 3.22227,-2.96923 -1.57748,-8.05825 -5,-5.4375 -8.7947,3.12637 -17.9193,5.39223 -27.125,7.1875 7.91717,-7.49231 17.67132,-15.44826 19.5625,-26.75 0.40603,-5.58731 -6.88301,-6.24926 -9.9375,-2.9375 -10.26201,8.83455 -16.82263,21.12247 -24.90625,31.875 -5.39294,1.36656 -11.77239,-1.04688 -16.75,1.46875 -2.9998,3.19893 1.15784,7.81189 5,6.3125 5.248,-0.65652 5.79678,0.33344 1.3125,3.09375 -11.73649,7.42951 -23.00594,17.42722 -37,19.78125 -5.50316,0.80891 -7.70271,-7.08217 -3.90836,-10.46453 2.82449,-6.89552 6.48518,-13.10103 12.76746,-17.33951 10.53865,-10.22531 21.42681,-21.25363 28.7659,-34.10221 2.70467,-4.39887 1.89837,-11.6805 -4.8125,-10.625 z m -2.25,8.4375 c -4.78801,9.13942 -13.17939,16.15209 -19.65625,24.15625 4.76485,-9.24782 9.92958,-19.5758 19.65625,-24.15625 z m -19.65625,24.1875 c -0.0939,0.1896 -0.072,-0.0374 0,0 z m 427.625,23.34375 c -3.33484,4.57409 -9.44699,6.12331 -14.875,6.28125 4.65588,-2.74903 9.62169,-5.13891 14.875,-6.28125 z m -648.0625,0.59375 c -5.208909,4.12625 -11.763358,6.37175 -18.1875,7.34375 5.248273,-3.64473 12.589429,-6.96829 18.1875,-7.34375 z m 556.28125,2.1875 c -2.06625,3.18155 -2.356,7.55272 -0.5,10.90625 -5.66049,4.69743 -12.87332,10.38816 -20.65625,9.21875 -2.13845,-4.41087 3.80988,-8.44302 6.3125,-11.1875 4.30874,-3.77174 9.04266,-7.54355 14.84375,-8.9375 z m -74,0.625 c -1.78715,3.32412 -0.75715,7.6505 0.875,10.46875 -5.18101,5.62811 -13.3514,10.43059 -21.0625,9 0.96405,-6.98696 8.09857,-11.95726 13.40625,-15.9375 2.08156,-1.26782 4.87872,-3.05281 6.78125,-3.53125 z M 253.1875,986.0625 c -4.06513,7.33049 -7.93106,14.7574 -14,20.6875 3.45475,-7.87939 8.80986,-14.65723 14.25,-21.1875 z"
       style="color:#000000;font-style:normal;font-variant:normal;font-weight:normal;font-stretch:normal;font-size:medium;line-height:normal;font-family:Sans;-inkscape-font-specification:Sans;text-indent:0;text-align:start;text-decoration:none;text-decoration-line:none;letter-spacing:normal;word-spacing:normal;text-transform:none;direction:ltr;block-progression:tb;writing-mode:lr-tb;baseline-shift:baseline;text-anchor:start;display:inline;overflow:visible;visibility:visible;fill:#ffffff;fill-opacity:1;stroke:none;stroke-width:4;marker:none;enable-background:accumulate" />
  </g>
</svg>
