<?xml version="1.0" encoding="utf-8"?>
<!-- Generator: Adobe Illustrator 18.1.1, SVG Export Plug-In . SVG Version: 6.00 Build 0)  -->
<!DOCTYPE svg PUBLIC "-//W3C//DTD SVG 1.1//EN" "http://www.w3.org/Graphics/SVG/1.1/DTD/svg11.dtd">
<svg version="1.1" id="Layer_1" xmlns="http://www.w3.org/2000/svg" xmlns:xlink="http://www.w3.org/1999/xlink" x="0px" y="0px"
	 viewBox="0 0 128 128" enable-background="new 0 0 128 128" xml:space="preserve">
<g>
	<path fill="#49B6D6" d="M120,48h-10.8c-0.6-2-1.2-3.1-1.9-4.6l7.6-7.6c3.1-3.1,3.1-8.2,0-11.3l-11.3-11.3c-3.1-3.1-8.2-3.1-11.3,0
		l-7.6,7.6C83.1,20,82,19.4,80,18.8V8c0-4.4-3.6-8-8-8H56c-4.4,0-8,3.6-8,8v10.8c-2,0.6-3.1,1.2-4.6,1.9l-7.6-7.6
		c-3.1-3.1-8.2-3.1-11.3,0L13.1,24.4c-3.1,3.1-3.1,8.2,0,11.3l7.6,7.6C20,44.9,19.4,46,18.8,48H8c-4.4,0-8,3.6-8,8v16
		c0,4.4,3.6,8,8,8h10.8c0.6,2,1.2,3.1,1.9,4.7l-7.6,7.6c-3.1,3.1-3.1,8.2,0,11.3l11.3,11.3c3.1,3.1,8.2,3.1,11.3,0l7.6-7.6
		c1.5,0.7,2.6,1.4,4.6,1.9V120c0,4.4,3.6,8,8,8h16c4.4,0,8-3.6,8-8v-10.8c2-0.6,3.1-1.2,4.7-1.9l7.6,7.6c3.1,3.1,8.2,3.1,11.3,0
		l11.3-11.3c3.1-3.1,3.1-8.2,0-11.3l-7.6-7.6c0.7-1.5,1.4-2.6,1.9-4.6H120c4.4,0,8-3.6,8-8V56C128,51.6,124.4,48,120,48z M64,84
		c-11,0-20-9-20-20s9-20,20-20c11,0,20,9,20,20S75,84,64,84z"/>
	<g>
		<path fill="#255B6B" d="M80,109.2v4.3c3-0.9,5.2-1.9,7.6-3.2l-3-3C83.1,108,82,108.6,80,109.2z"/>
		<path fill="#255B6B" d="M40.4,110.3c2.4,1.3,4.6,2.3,7.6,3.2v-4.3c-2-0.6-3.1-1.2-4.6-1.9L40.4,110.3z"/>
		<path fill="#255B6B" d="M14.5,80c0.9,3,1.9,5.2,3.2,7.6l3-3C20,83.1,19.4,82,18.8,80H14.5z"/>
		<path fill="#255B6B" d="M14.5,48h4.3c0.6-2,1.2-3.1,1.9-4.7l-3-3C16.5,42.8,15.4,45,14.5,48z"/>
		<path fill="#255B6B" d="M43.4,20.7c1.5-0.7,2.6-1.4,4.6-1.9v-4.3c-3,0.9-5.2,1.9-7.6,3.2L43.4,20.7z"/>
		<path fill="#255B6B" d="M80,18.8c2,0.6,3.1,1.2,4.7,1.9l3-3c-2.4-1.3-4.6-2.3-7.6-3.2V18.8z"/>
		<path fill="#255B6B" d="M113.5,48c-0.9-3-1.9-5.2-3.2-7.6l-3,3c0.7,1.5,1.4,2.6,1.9,4.6H113.5z"/>
		<path fill="#255B6B" d="M107.3,84.6l3,3c1.3-2.4,2.3-4.6,3.2-7.6h-4.3C108.6,82,108,83.1,107.3,84.6z"/>
	</g>
	<path fill="#49B6D6" d="M64,84c-11,0-20-9-20-20c0-5.5,2.3-10.6,5.9-14.2L44.1,44C39,49.1,35.9,56.2,35.9,64
		c0,15.6,12.6,28.2,28.2,28.2c7.8,0,14.8-3.2,19.9-8.2l-5.8-5.8C74.6,81.7,69.5,84,64,84z"/>
	<path fill="#3789A1" d="M64,36c-7.7,0-14.7,3.1-19.8,8.2l5.7,5.7C53.5,46.2,58.5,44,64,44c11,0,20,9,20,20c0,5.5-2.2,10.5-5.9,14.1
		l5.7,5.7C88.9,78.7,92,71.7,92,64C92,48.5,79.5,36,64,36z"/>
	<g>
		<path fill="#3789A1" d="M0,72c0,1.5,0.4,2.9,1.2,4.1C0.4,72.2,0,68.2,0,64V72z"/>
		<path fill="#3789A1" d="M13.1,103.6l5.6,5.6c-2.8-2.9-5.4-6-7.7-9.3C11.4,101.3,12,102.5,13.1,103.6z"/>
		<path fill="#3789A1" d="M0,56v8c0-4.2,0.4-8.2,1.2-12.1C0.4,53.1,0,54.5,0,56z"/>
		<path fill="#3789A1" d="M72,128c1.5,0,2.9-0.4,4.1-1.2c-3.9,0.8-8,1.2-12.1,1.2H72z"/>
		<path fill="#3789A1" d="M56,128h8c-4.2,0-8.2-0.4-12.1-1.2C53.1,127.6,54.5,128,56,128z"/>
		<path fill="#3789A1" d="M13.1,24.4c-1.1,1.1-1.7,2.3-2.1,3.7c2.3-3.3,4.8-6.5,7.7-9.3L13.1,24.4z"/>
		<path fill="#3789A1" d="M24.4,114.9c1.1,1.1,2.3,1.7,3.7,2.1c-3.3-2.3-6.5-4.8-9.3-7.7L24.4,114.9z"/>
		<path opacity="0.1" fill="#3789A1" d="M18.7,18.7C18.7,18.8,18.7,18.8,18.7,18.7L18.7,18.7L18.7,18.7z"/>
		<path opacity="0.1" fill="#3789A1" d="M18.8,109.3L18.8,109.3C18.7,109.2,18.8,109.3,18.8,109.3z"/>
		<path fill="#3789A1" d="M83.8,83.8C78.7,88.9,71.7,92,64,92c-15.5,0-28-12.5-28-28c0-7.7,3.1-14.7,8.2-19.8L18.7,18.8l0,0
			c-2.8,2.8-5.4,6-7.7,9.3c-0.7,2.6,0,5.6,2.1,7.6l7.6,7.6C20,44.9,19.4,46,18.8,48H8c-2.9,0-5.4,1.6-6.8,3.9C0.4,55.8,0,59.8,0,64
			s0.4,8.2,1.2,12.1C2.6,78.4,5.1,80,8,80h10.8c0.6,2,1.2,3.1,1.9,4.7l-7.6,7.6c-2.1,2.1-2.7,5-2.1,7.6c2.3,3.3,4.8,6.5,7.7,9.3
			l0.1,0.1c2.9,2.8,6,5.4,9.3,7.7c2.6,0.7,5.6,0,7.6-2.1l7.6-7.6c1.5,0.7,2.6,1.4,4.6,1.9V120c0,2.9,1.6,5.4,3.9,6.8
			c3.9,0.8,8,1.2,12.1,1.2c4.2,0,8.2-0.4,12.1-1.2c2.3-1.4,3.9-3.9,3.9-6.8v-10.8c2-0.6,3.1-1.2,4.7-1.9l7.6,7.6
			c2.1,2.1,5,2.7,7.6,2.1c3.4-2.3,6.5-4.9,9.3-7.7L83.8,83.8z"/>
		<path opacity="0.1" fill="#3789A1" d="M83.8,83.8C78.7,88.9,71.7,92,64,92c-15.5,0-28-12.5-28-28c0-7.7,3.1-14.7,8.2-19.8
			L18.7,18.8l0,0c-2.8,2.8-5.4,6-7.7,9.3c-0.7,2.6,0,5.6,2.1,7.6l7.6,7.6C20,44.9,19.4,46,18.8,48H8c-2.9,0-5.4,1.6-6.8,3.9
			C0.4,55.8,0,59.8,0,64s0.4,8.2,1.2,12.1C2.6,78.4,5.1,80,8,80h10.8c0.6,2,1.2,3.1,1.9,4.7l-7.6,7.6c-2.1,2.1-2.7,5-2.1,7.6
			c2.3,3.3,4.8,6.5,7.7,9.3l0.1,0.1c2.9,2.8,6,5.4,9.3,7.7c2.6,0.7,5.6,0,7.6-2.1l7.6-7.6c1.5,0.7,2.6,1.4,4.6,1.9V120
			c0,2.9,1.6,5.4,3.9,6.8c3.9,0.8,8,1.2,12.1,1.2c4.2,0,8.2-0.4,12.1-1.2c2.3-1.4,3.9-3.9,3.9-6.8v-10.8c2-0.6,3.1-1.2,4.7-1.9
			l7.6,7.6c2.1,2.1,5,2.7,7.6,2.1c3.4-2.3,6.5-4.9,9.3-7.7L83.8,83.8z"/>
	</g>
</g>
</svg>
