<?xml version="1.0" encoding="utf-8"?>
<!-- Generator: Adobe Illustrator 19.1.0, SVG Export Plug-In . SVG Version: 6.00 Build 0)  -->
<!DOCTYPE svg PUBLIC "-//W3C//DTD SVG 1.1//EN" "http://www.w3.org/Graphics/SVG/1.1/DTD/svg11.dtd">
<svg version="1.1" id="Layer_1" xmlns="http://www.w3.org/2000/svg" xmlns:xlink="http://www.w3.org/1999/xlink" x="0px" y="0px"
	 viewBox="0 0 32 32" style="enable-background:new 0 0 32 32;" xml:space="preserve">
<style type="text/css">
	.st0{fill:#E64D3C;}
	.st1{fill:#EFEEEE;}
	.st2{fill:#364A5E;}
	.st3{fill:#09AD8B;}
	.st4{opacity:0.2;}
	.st5{fill:#010101;}
</style>
<g id="Notepad">
	<path class="st0" d="M32,30c0,1.1-0.9,2-2,2H2c-1.1,0-2-0.9-2-2V4c0-1.1,0.9-2,2-2h28c1.1,0,2,0.9,2,2V30z"/>
	<path class="st1" d="M30,29c0,0.6-0.4,1-1,1H3c-0.6,0-1-0.4-1-1V5c0-0.6,0.4-1,1-1h26c0.6,0,1,0.4,1,1V29z"/>
	<path class="st2" d="M23,5c0,0.6-0.4,1-1,1H10C9.4,6,9,5.6,9,5V1c0-0.6,0.4-1,1-1h12c0.6,0,1,0.4,1,1V5z"/>
	<path class="st3" d="M10.8,9.7c-0.3-0.3-0.7-0.3-1,0l-2,2l-1-1c-0.3-0.3-0.7-0.3-1,0c-0.3,0.3-0.3,0.7,0,1l1.5,1.5
		c0.3,0.3,0.7,0.3,1,0l2.5-2.5C11.1,10.4,11.1,10,10.8,9.7z"/>
	<path class="st3" d="M10.8,16.7c-0.3-0.3-0.7-0.3-1,0l-2,2l-1-1c-0.3-0.3-0.7-0.3-1,0c-0.3,0.3-0.3,0.7,0,1l1.5,1.5
		c0.3,0.3,0.7,0.3,1,0l2.5-2.5C11.1,17.4,11.1,17,10.8,16.7z"/>
	<path class="st3" d="M10.8,22.7c-0.3-0.3-0.7-0.3-1,0l-2,2l-1-1c-0.3-0.3-0.7-0.3-1,0c-0.3,0.3-0.3,0.7,0,1l1.5,1.5
		c0.3,0.3,0.7,0.3,1,0l2.5-2.5C11.1,23.4,11.1,23,10.8,22.7z"/>
	<g class="st4">
		<rect x="13" y="16" class="st5" width="13" height="1"/>
		<rect x="13" y="19" class="st5" width="13" height="1"/>
		<rect x="13" y="10" class="st5" width="13" height="1"/>
		<rect x="13" y="13" class="st5" width="13" height="1"/>
		<rect x="13" y="22" class="st5" width="13" height="1"/>
		<rect x="13" y="25" class="st5" width="13" height="1"/>
	</g>
	<path class="st1" d="M21,3c0,0.6-0.4,1-1,1h-8c-0.6,0-1-0.4-1-1l0,0c0-0.6,0.4-1,1-1h8C20.6,2,21,2.4,21,3L21,3z"/>
</g>
</svg>
