<?xml version="1.0" encoding="utf-8"?>
<!-- Generator: Adobe Illustrator 19.1.0, SVG Export Plug-In . SVG Version: 6.00 Build 0)  -->
<!DOCTYPE svg PUBLIC "-//W3C//DTD SVG 1.1//EN" "http://www.w3.org/Graphics/SVG/1.1/DTD/svg11.dtd">
<svg version="1.1" id="Layer_1" xmlns="http://www.w3.org/2000/svg" xmlns:xlink="http://www.w3.org/1999/xlink" x="0px" y="0px"
	 viewBox="0 0 32 32" style="enable-background:new 0 0 32 32;" xml:space="preserve">
<style type="text/css">
	.st0{fill:#899297;}
	.st1{fill:#F15D5A;}
	.st2{fill:#55B952;}
	.st3{fill:#F39C21;}
	.st4{fill:#4AB4D4;}
	.st5{fill:#2D70B8;}
</style>
<g>
	<rect x="8.3" y="7.1" transform="matrix(-0.1868 -0.9824 0.9824 -0.1868 7.4481 21.2232)" class="st0" width="8.4" height="0.9"/>
	<circle class="st0" cx="11.6" cy="2.7" r="1.8"/>
	
		<rect x="2.7" y="15.4" transform="matrix(-0.9776 0.2103 -0.2103 -0.9776 16.9635 30.3163)" class="st1" width="8.4" height="1.3"/>
	
		<rect x="2.7" y="15.4" transform="matrix(-0.9776 0.2103 -0.2103 -0.9776 16.9635 30.3163)" class="st1" width="8.4" height="1.3"/>
	<circle class="st1" cx="2.4" cy="16.8" r="2.4"/>
	<rect x="15.6" y="18.6" transform="matrix(0.8784 0.4779 -0.4779 0.8784 11.806 -8.2599)" class="st2" width="13" height="0.9"/>
	<circle class="st2" cx="27.3" cy="22" r="1.6"/>
	<rect x="15.6" y="9.5" transform="matrix(0.873 -0.4878 0.4878 0.873 -2.1577 11.9254)" class="st3" width="12.4" height="1.3"/>
	<rect x="15.6" y="9.5" transform="matrix(0.873 -0.4878 0.4878 0.873 -2.1577 11.9254)" class="st3" width="12.4" height="1.3"/>
	<g>
		<path class="st3" d="M29,3.1c-1.6,0-3,1.3-3,3s1.3,3,3,3c1.6,0,3-1.3,3-3S30.7,3.1,29,3.1z M29,7.8c-1,0-1.8-0.8-1.8-1.8
			s0.8-1.8,1.8-1.8c1,0,1.8,0.8,1.8,1.8S30,7.8,29,7.8z"/>
	</g>
	<rect x="15.6" y="9.5" transform="matrix(0.873 -0.4878 0.4878 0.873 -2.1577 11.9254)" class="st3" width="12.4" height="1.3"/>
	
		<rect x="9.9" y="20.3" transform="matrix(-4.528338e-002 0.999 -0.999 -4.528338e-002 35.236 8.5164)" class="st4" width="7.2" height="1.6"/>
	<g>
		<path class="st4" d="M13.1,24c-2,0-3.5,1.6-3.5,3.5s1.6,3.5,3.5,3.5s3.5-1.6,3.5-3.5S15.1,24,13.1,24z M13.1,29.7
			c-1.2,0-2.1-1-2.1-2.1c0-1.2,1-2.1,2.1-2.1s2.1,1,2.1,2.1C15.2,28.7,14.3,29.7,13.1,29.7z"/>
	</g>
	<g>
		<path class="st5" d="M13.8,10.4c-2.3,0-4.1,1.8-4.1,4.1s1.8,4.1,4.1,4.1s4.1-1.8,4.1-4.1S16.1,10.4,13.8,10.4z M13.8,17
			c-1.4,0-2.5-1.1-2.5-2.5s1.1-2.5,2.5-2.5s2.5,1.1,2.5,2.5S15.2,17,13.8,17z"/>
	</g>
</g>
</svg>
