<?xml version="1.0" encoding="utf-8"?>
<!-- Generator: Adobe Illustrator 19.1.0, SVG Export Plug-In . SVG Version: 6.00 Build 0)  -->
<!DOCTYPE svg PUBLIC "-//W3C//DTD SVG 1.1//EN" "http://www.w3.org/Graphics/SVG/1.1/DTD/svg11.dtd">
<svg version="1.1" id="Layer_1" xmlns="http://www.w3.org/2000/svg" xmlns:xlink="http://www.w3.org/1999/xlink" x="0px" y="0px"
	 viewBox="0 0 128 128" style="enable-background:new 0 0 128 128;" xml:space="preserve">
<style type="text/css">
	.st0{opacity:0.79;}
	.st1{fill:#49B4D4;}
	.st2{fill:#49B4D4;stroke:#37879F;stroke-miterlimit:10;}
	.st3{fill:#37879F;}
	.st4{opacity:8.000000e-002;}
	.st5{fill:#0A0C0C;}
</style>
<g class="st0">
	<path class="st1" d="M26.8,51.8C17,51.8,8,57.4,1.7,66.3C1.1,67.1,0,68.6,0,72.4v2.3c0,2.6,1.5,6.1,3.3,6.1h46.9
		c1.9,0,2.9-3.6,2.9-6.1v-2.3c0-3.3-0.9-5.4-1.4-6.2C45.3,57.4,36.7,51.8,26.8,51.8z"/>
	<path class="st2" d="M5.5,38c0,11.4,9.2,20.8,20.7,20.8S46.9,49.5,46.9,38s-3.2-20.8-20.7-20.8C10.5,17.2,5.5,26.5,5.5,38z"/>
	<path class="st3" d="M26.3,56.5c-11.4,0-20.5-9.2-20.5-20.6v2.3c0,11.4,9.1,20.6,20.5,20.6s20.5-9.2,20.5-20.6v-2.3
		C46.7,47.2,37.6,56.5,26.3,56.5z"/>
</g>
<g class="st0">
	<path class="st1" d="M101.7,51.8c-9.8,0-18.8,5.6-25.1,14.5c-0.6,0.8-1.7,2.3-1.7,6.1v2.3c0,2.6,1.5,6.1,3.3,6.1h46.9
		c1.9,0,2.9-3.6,2.9-6.1v-2.3c0-3.3-0.9-5.4-1.4-6.2C120.2,57.4,111.6,51.8,101.7,51.8z"/>
	<path class="st2" d="M80.4,38c0,11.4,9.2,20.8,20.7,20.8s20.7-9.2,20.7-20.8s-3.2-20.8-20.7-20.8C85.4,17.2,80.4,26.5,80.4,38z"/>
	<path class="st3" d="M101.2,56.5c-11.4,0-20.5-9.2-20.5-20.6v2.3c0,11.4,9.1,20.6,20.5,20.6s20.5-9.2,20.5-20.6v-2.3
		C121.6,47.2,112.5,56.5,101.2,56.5z"/>
</g>
<g class="st4">
	<path class="st5" d="M26.8,51.8C17,51.8,8,57.4,1.7,66.3C1.1,67.1,0,68.6,0,72.4v2.3c0,2.6,1.5,6.1,3.3,6.1h46.9
		c1.9,0,2.9-3.6,2.9-6.1v-2.3c0-3.3-0.9-5.4-1.4-6.2C45.3,57.4,36.7,51.8,26.8,51.8z"/>
	<path class="st5" d="M5.5,38c0,11.4,9.2,20.8,20.7,20.8S46.9,49.5,46.9,38s-3.2-20.8-20.7-20.8C10.5,17.2,5.5,26.5,5.5,38z"/>
	<path class="st5" d="M26.3,56.5c-11.4,0-20.5-9.2-20.5-20.6v2.3c0,11.4,9.1,20.6,20.5,20.6s20.5-9.2,20.5-20.6v-2.3
		C46.7,47.2,37.6,56.5,26.3,56.5z"/>
</g>
<g class="st4">
	<path class="st5" d="M101.7,51.8c-9.8,0-18.8,5.6-25.1,14.5c-0.6,0.8-1.7,2.3-1.7,6.1v2.3c0,2.6,1.5,6.1,3.3,6.1h46.9
		c1.9,0,2.9-3.6,2.9-6.1v-2.3c0-3.3-0.9-5.4-1.4-6.2C120.2,57.4,111.6,51.8,101.7,51.8z"/>
	<path class="st5" d="M80.4,38c0,11.4,9.2,20.8,20.7,20.8s20.7-9.2,20.7-20.8s-3.2-20.8-20.7-20.8C85.4,17.2,80.4,26.5,80.4,38z"/>
	<path class="st5" d="M101.2,56.5c-11.4,0-20.5-9.2-20.5-20.6v2.3c0,11.4,9.1,20.6,20.5,20.6s20.5-9.2,20.5-20.6v-2.3
		C121.6,47.2,112.5,56.5,101.2,56.5z"/>
</g>
<g>
	<path class="st1" d="M64.3,71.7c-13.3,0-25.4,7.6-34,19.6c-0.8,1.1-2.3,3.1-2.3,8.2v3.1c0,3.5,2,8.3,4.5,8.3h63.4
		c2.6,0,3.9-4.8,3.9-8.3v-3.1c0-4.5-1.2-7.3-1.9-8.4C89.3,79.2,77.6,71.7,64.3,71.7z"/>
	<path class="st2" d="M35.5,52.9C35.5,68.4,48,81,63.5,81s28-12.5,28-28.1s-4.3-28.1-28-28.1C42.3,24.9,35.5,37.4,35.5,52.9z"/>
	<path class="st3" d="M63.6,77.9C48.2,77.9,36,65.4,36,50.1v3.1C35.9,68.6,48.2,81,63.6,81s27.6-12.5,27.6-27.8v-3.1
		C91.1,65.4,78.9,77.9,63.6,77.9z"/>
</g>
</svg>
