<?xml version="1.0" encoding="utf-8"?>
<!-- Generator: Adobe Illustrator 18.1.1, SVG Export Plug-In . SVG Version: 6.00 Build 0)  -->
<!DOCTYPE svg PUBLIC "-//W3C//DTD SVG 1.1//EN" "http://www.w3.org/Graphics/SVG/1.1/DTD/svg11.dtd">
<svg version="1.1" id="Layer_1" xmlns="http://www.w3.org/2000/svg" xmlns:xlink="http://www.w3.org/1999/xlink" x="0px" y="0px"
	 viewBox="0 0 128 128" enable-background="new 0 0 128 128" xml:space="preserve">
<g>
	<path fill="#49B6D6" d="M108,68c-4-12-13-20-24-20H44c-11,0-20,8-24,20L0,112v8c0,4.4,3.6,8,8,8h112c4.4,0,8-3.6,8-8v-8L108,68z"/>
	<path fill="#49B6D6" d="M124,10.1C105.1,3.9,85,0,64,0C43,0,22.9,3.9,4,10.1c0,0-4,1.1-4,5.9v20c0,2.2,1.8,4,4,4h32
		c2.2,0,4-1.8,4-4V24h48v12c0,2.2,1.8,4,4,4h32c2.2,0,4-1.8,4-4V16C128,11.8,124,10.1,124,10.1z"/>
	<path fill="#3789A1" d="M0,120c0,4.4,3.6,8,8,8h112c4.4,0,8-3.6,8-8v-8H0V120z"/>
	<circle fill="#EAEAEA" cx="64" cy="80" r="24"/>
	<g>
		<circle fill="#2D2D2D" cx="48" cy="80" r="4"/>
		<circle fill="#2D2D2D" cx="52.7" cy="68.7" r="4"/>
		<path fill="#2D2D2D" d="M64,60c-2.2,0-4,1.8-4,4c0,2.2,1.8,4,4,4c2.2,0,4-1.8,4-4C68,61.8,66.2,60,64,60z"/>
		<circle fill="#2D2D2D" cx="75.3" cy="68.7" r="4"/>
		<path fill="#2D2D2D" d="M80,76c-2.2,0-4,1.8-4,4s1.8,4,4,4c2.2,0,4-1.8,4-4C84,77.8,82.2,76,80,76z"/>
		<path fill="#2D2D2D" d="M64,92c-2.2,0-4,1.8-4,4s1.8,4,4,4c2.2,0,4-1.8,4-4S66.2,92,64,92z"/>
		<path fill="#2D2D2D" d="M49.9,88.5c-1.6,1.6-1.6,4.1,0,5.7c1.6,1.6,4.1,1.6,5.7,0c1.6-1.6,1.6-4.1,0-5.7
			C54,86.9,51.4,86.9,49.9,88.5z"/>
	</g>
	<path fill="#2D353C" d="M66.8,88.5l11.1,11.1C79,98.8,80,97.9,81,97c1-1,1.8-2,2.6-3.1L72.5,82.8c-1.6-1.6-4.1-1.6-5.7,0
		C65.3,84.4,65.3,86.9,66.8,88.5z"/>
	<path opacity="0.1" d="M81.8,96.1L81.8,96.1c-0.3,0.3-0.5,0.6-0.8,0.9c-1,1-2,1.8-3.1,2.6L66.8,88.5c-0.2-0.2-0.4-0.5-0.6-0.8
		c-0.9,1.5-0.8,3.5,0.6,4.8l8.6,8.6C77.8,99.8,79.9,98.1,81.8,96.1z"/>
	<g>
		<path fill="#3789A1" d="M88,28v8c0,2.2,1.8,4,4,4h32c2.2,0,4-1.8,4-4v-8H88z"/>
		<path fill="#3789A1" d="M0,28v8c0,2.2,1.8,4,4,4h32c2.2,0,4-1.8,4-4v-8H0z"/>
	</g>
	<path fill="#899297" d="M52,32c0-2.2-1.8-4-4-4c-2.2,0-4,1.8-4,4v16h8V32z"/>
	<path fill="#899297" d="M84,32c0-2.2-1.8-4-4-4c-2.2,0-4,1.8-4,4v16h8V32z"/>
</g>
</svg>
