<?xml version="1.0" encoding="utf-8"?>
<!-- Generator: Adobe Illustrator 19.1.0, SVG Export Plug-In . SVG Version: 6.00 Build 0)  -->
<!DOCTYPE svg PUBLIC "-//W3C//DTD SVG 1.1//EN" "http://www.w3.org/Graphics/SVG/1.1/DTD/svg11.dtd">
<svg version="1.1" id="Layer_1" xmlns="http://www.w3.org/2000/svg" xmlns:xlink="http://www.w3.org/1999/xlink" x="0px" y="0px"
	 viewBox="0 0 64 64" style="enable-background:new 0 0 64 64;" xml:space="preserve">
<style type="text/css">
	.st0{fill-opacity:9.803922e-002;}
	.st1{fill:#CCCCCC;}
	.st2{fill:#2A2A2A;}
	.st3{fill-opacity:0.2;}
	.st4{fill:#BF4441;}
	.st5{fill:#F05C5A;}
	.st6{fill:#999999;}
	.st7{fill:#FFFFFF;}
	.st8{fill:#DDDDDD;}
</style>
<g id="shadow">
	<g id="shape">
		<path id="path" class="st0" d="M61.7,20.7c-0.4-0.9-0.8-1.8-1.3-2.7c-0.3-0.5-0.6-1-0.9-1.5c-1.3-2.1-2.9-4.1-4.7-6
			c-6.1-6.1-13.5-9.2-22.2-9.2s-16,3.1-22.2,9.2S1.3,24,1.3,32.7s3.1,16,9.2,22.2S24,64,32.7,64s16-3.1,22.2-9.2
			c3.4-3.4,5.8-7.1,7.3-11.3c1.2-3.4,1.8-7,1.8-10.9c0-3-0.4-5.8-1.1-8.5c-0.1-0.3-0.2-0.6-0.3-0.9C62.4,22.4,62.1,21.5,61.7,20.7z"
			/>
	</g>
</g>
<g id="bg">
	<g id="shape2">
		<path id="path1" class="st1" d="M59.1,16.6c-0.2-0.3-0.3-0.6-0.5-0.9c-1.3-2.3-3-4.5-5.1-6.5c-4.8-4.8-10.4-7.7-16.8-8.8
			c-1.1-0.2-2.2-0.3-3.3-0.4C32.7,0,32,0,31.3,0c-0.6,0-1.2,0-1.9,0.1C21.6,0.5,14.9,3.5,9.2,9.2c-1.4,1.4-2.6,2.8-3.6,4.3
			c-1,1.4-1.9,2.9-2.6,4.5l0,0C1,22,0,26.5,0,31.3c0,8.7,3.1,16,9.2,22.2c3.8,3.8,8,6.4,12.7,7.8c2.4,0.8,5,1.2,7.6,1.3c0,0,0,0,0,0
			c0.6,0,1.1,0,1.6,0c0.1,0,0.1,0,0.2,0c0.7,0,1.4,0,2-0.1c0.2,0,0.3,0,0.5,0c1.3-0.1,2.6-0.3,3.9-0.5c0.5-0.1,1-0.2,1.6-0.3
			c5.4-1.3,10.1-4.1,14.3-8.2c3.2-3.2,5.6-6.8,7.1-10.7c1.2-3.2,1.9-6.6,2-10.2c0-0.4,0-0.8,0-1.2c0,0,0-0.1,0-0.1c0,0,0,0,0-0.1
			c0-2.7-0.3-5.3-0.9-7.8c-0.1-0.3-0.2-0.6-0.2-0.9c-0.1-0.2-0.1-0.5-0.2-0.7c-0.1-0.3-0.2-0.7-0.4-1.1c-0.3-0.9-0.7-1.9-1.2-2.8
			c-0.1-0.3-0.3-0.5-0.4-0.8C59.3,17,59.2,16.8,59.1,16.6z"/>
	</g>
</g>
<g id="Calque.__203">
	<g id="shape4">
		<path id="path2" class="st2" d="M58.2,31.3c0-7.4-2.6-13.7-7.9-19c-5.2-5.2-11.6-7.9-19-7.9s-13.7,2.6-19,7.9
			c-5.2,5.2-7.9,11.6-7.9,19s2.6,13.7,7.9,19c5.2,5.2,11.6,7.9,19,7.9s13.7-2.6,19-7.9C55.5,45.1,58.2,38.7,58.2,31.3z"/>
	</g>
</g>
<g id="Calque.__204">
	<g id="shape6">
		<path id="path3" class="st3" d="M27.2,52.1l6,6l0,0c6.6-0.4,12.3-3,17-7.8c2-2,3.6-4.1,4.8-6.4L31.3,20.2L27.2,52.1z"/>
	</g>
</g>
<g id="Calque.__205">
	<g id="Symbole.__2039_1">
		<g id="Calque.__209">
			<g id="shape32">
				<path id="path24" class="st4" d="M31.4,20.2l0,0.2v20.2c0.9,0,1.8,0.2,2.6,0.5l0,0L31.4,20.2z"/>
				<path id="path25" class="st5" d="M31.3,40.6L31.3,40.6l0-20.2l-2.5,20.7l0,0C29.6,40.8,30.4,40.6,31.3,40.6z"/>
				<path id="path26" class="st1" d="M31.3,40.6C31.3,40.6,31.3,40.6,31.3,40.6c-0.9,0-1.7,0.2-2.5,0.5c-0.7,0.3-1.4,0.8-2,1.4
					c-0.9,0.9-1.4,1.8-1.7,3C25,46,25,46.5,25,47c0,0.8,0.1,1.6,0.4,2.3c0.9,0.5,1.9,0.7,3,0.7c1.8,0,3.3-0.6,4.5-1.9
					c0.9-0.9,1.4-1.8,1.7-2.9c0.1-0.5,0.2-1,0.2-1.6c0-0.8-0.1-1.6-0.4-2.3c-0.1-0.1-0.3-0.2-0.4-0.2C33.2,40.8,32.3,40.6,31.3,40.6
					z"/>
				<path id="path27" class="st6" d="M35.9,42.6c0,0-0.1-0.1-0.1-0.1c-0.5-0.5-0.9-0.8-1.4-1.1c0.3,0.7,0.4,1.5,0.4,2.3
					c0,0.6-0.1,1.1-0.2,1.6c-0.3,1.1-0.8,2.1-1.7,2.9c-1.2,1.2-2.7,1.9-4.5,1.9c-1.1,0-2.1-0.2-3-0.7c0.3,0.8,0.8,1.5,1.4,2.2
					c1.2,1.2,2.7,1.9,4.5,1.9c1.8,0,3.3-0.6,4.5-1.9c1.2-1.2,1.9-2.7,1.9-4.5C37.7,45.3,37.1,43.8,35.9,42.6z"/>
			</g>
		</g>
	</g>
</g>
<g id="Calque.__206">
	<g id="shape8">
		<path id="path4" class="st7" d="M47.5,14.5c-0.3,0-0.6,0.1-0.8,0.3L41.5,20l0,0c-0.2,0.2-0.3,0.5-0.3,0.8s0.1,0.6,0.3,0.8
			S42,22,42.4,22c0.3,0,0.6-0.1,0.8-0.3l0,0l5.2-5.2l0,0c0.2-0.2,0.3-0.5,0.3-0.8c0-0.3-0.1-0.6-0.3-0.8
			C48.1,14.6,47.9,14.5,47.5,14.5z M55.3,31.4c0-0.3-0.1-0.6-0.3-0.8c-0.2-0.2-0.5-0.3-0.8-0.3h-7.3c-0.3,0-0.6,0.1-0.8,0.3
			c-0.2,0.2-0.3,0.5-0.3,0.8c0,0.3,0.1,0.6,0.3,0.8c0.2,0.2,0.5,0.3,0.8,0.3h7.3c0.3,0,0.6-0.1,0.8-0.3C55.2,32,55.3,31.7,55.3,31.4
			z M30.5,7.9c-0.2,0.2-0.3,0.5-0.3,0.8v7.3c0,0.3,0.1,0.6,0.3,0.8c0.2,0.2,0.5,0.3,0.8,0.3s0.6-0.1,0.8-0.3
			c0.2-0.2,0.3-0.5,0.3-0.8V8.8c0-0.3-0.1-0.6-0.3-0.8c-0.2-0.2-0.5-0.3-0.8-0.3C31,7.6,30.7,7.7,30.5,7.9z M21.1,21.7
			c0.2-0.2,0.3-0.5,0.3-0.8s-0.1-0.6-0.3-0.8l0,0L16,14.9l0,0c-0.2-0.2-0.5-0.3-0.8-0.3c-0.3,0-0.6,0.1-0.8,0.3
			c-0.2,0.2-0.3,0.5-0.3,0.8c0,0.3,0.1,0.6,0.3,0.8l0,0l5.2,5.2l0,0c0.2,0.2,0.5,0.3,0.8,0.3C20.6,22,20.9,21.9,21.1,21.7z
			 M17.3,31.4c0-0.3-0.1-0.6-0.3-0.8c-0.2-0.2-0.5-0.3-0.8-0.3H8.8c-0.3,0-0.6,0.1-0.8,0.3c-0.2,0.2-0.3,0.5-0.3,0.8
			c0,0.3,0.1,0.6,0.3,0.8c0.2,0.2,0.5,0.3,0.8,0.3h7.3c0.3,0,0.6-0.1,0.8-0.3C17.2,32,17.3,31.7,17.3,31.4z"/>
	</g>
</g>
<g id="Calque.__207">
	<g id="shape18">
		<path id="path13" class="st8" d="M41.1,12.4c0.3-0.3,0.5-0.7,0.5-1.1c0-0.4-0.2-0.8-0.5-1.1c-0.3-0.3-0.7-0.5-1.1-0.5
			s-0.8,0.2-1.1,0.5c-0.3,0.3-0.5,0.7-0.5,1.1c0,0.4,0.2,0.8,0.5,1.1c0.3,0.3,0.7,0.5,1.1,0.5C40.5,12.9,40.8,12.7,41.1,12.4z
			 M50.6,22.3c-0.3,0.3-0.5,0.7-0.5,1.1c0,0.4,0.2,0.8,0.5,1.1s0.7,0.5,1.1,0.5s0.8-0.2,1.1-0.5s0.5-0.7,0.5-1.1s-0.2-0.8-0.5-1.1
			c-0.3-0.3-0.7-0.5-1.1-0.5C51.3,21.8,50.9,22,50.6,22.3z M23.9,10.3c-0.3-0.3-0.7-0.5-1.1-0.5S22,10,21.7,10.3
			c-0.3,0.3-0.5,0.7-0.5,1.1c0,0.4,0.2,0.8,0.5,1.1c0.3,0.3,0.7,0.5,1.1,0.5c0.4,0,0.8-0.2,1.1-0.5c0.3-0.3,0.5-0.7,0.5-1.1
			C24.3,11,24.2,10.6,23.9,10.3z M9.4,22.3C9.1,22.6,9,23,9,23.4c0,0.4,0.2,0.8,0.5,1.1c0.3,0.3,0.7,0.5,1.1,0.5s0.8-0.2,1.1-0.5
			c0.3-0.3,0.5-0.7,0.5-1.1s-0.2-0.8-0.5-1.1c-0.3-0.3-0.7-0.5-1.1-0.5S9.7,22,9.4,22.3z"/>
	</g>
</g>
</svg>
