<?xml version="1.0" encoding="utf-8"?>
<!-- Generator: Adobe Illustrator 19.1.0, SVG Export Plug-In . SVG Version: 6.00 Build 0)  -->
<!DOCTYPE svg PUBLIC "-//W3C//DTD SVG 1.1//EN" "http://www.w3.org/Graphics/SVG/1.1/DTD/svg11.dtd">
<svg version="1.1" id="Layer_1" xmlns="http://www.w3.org/2000/svg" xmlns:xlink="http://www.w3.org/1999/xlink" x="0px" y="0px"
	 viewBox="0 0 32 32" style="enable-background:new 0 0 32 32;" xml:space="preserve">
<style type="text/css">
	.st0{fill:#EFEEEE;}
	.st1{opacity:0.2;}
	.st2{fill:#010101;}
	.st3{fill:#364A5E;}
	.st4{opacity:0.1;fill:#010101;}
	.st5{fill:#09AD8B;}
</style>
<g>
	<path class="st0" d="M28.1,0H13L2,11v19.1c0,1,0.8,1.9,1.9,1.9h24.3c1,0,1.9-0.8,1.9-1.9V1.9C30,0.8,29.2,0,28.1,0z"/>
	<g class="st1">
		<path class="st2" d="M6,18h7v-7H6V18z M7,12h5v5H7V12z"/>
		<rect x="15" y="11" class="st2" width="11" height="1"/>
		<rect x="15" y="14" class="st2" width="11" height="1"/>
		<rect x="15" y="17" class="st2" width="11" height="1"/>
		<rect x="16" y="20" class="st2" width="10" height="1"/>
		<polygon class="st2" points="15,24 26,24 26,23 16,23 		"/>
		<rect x="15" y="26" class="st2" width="11" height="1"/>
	</g>
	<path class="st3" d="M2,11h8.8C12,11,13,10,13,8.8V0L2,11z"/>
	<polygon class="st4" points="2,11 2,20 11,11 	"/>
	<path class="st5" d="M14.2,20.6c-0.4-0.4-1-0.4-1.4,0l-3.5,3.5L7.2,22c-0.4-0.4-1-0.4-1.4,0c-0.4,0.4-0.4,1,0,1.4l2.8,2.8
		c0.4,0.4,1,0.4,1.4,0l4.2-4.2C14.6,21.6,14.6,21,14.2,20.6z"/>
</g>
</svg>
