<?xml version="1.0" encoding="utf-8"?>
<!-- Generator: Adobe Illustrator 19.1.0, SVG Export Plug-In . SVG Version: 6.00 Build 0)  -->
<!DOCTYPE svg PUBLIC "-//W3C//DTD SVG 1.1//EN" "http://www.w3.org/Graphics/SVG/1.1/DTD/svg11.dtd">
<svg version="1.1" id="Layer_1" xmlns="http://www.w3.org/2000/svg" xmlns:xlink="http://www.w3.org/1999/xlink" x="0px" y="0px"
	 viewBox="14 -14 128 128" style="enable-background:new 14 -14 128 128;" xml:space="preserve">
<style type="text/css">
	.st0{fill:#434854;}
	.st1{opacity:0.1;}
	.st2{fill:#FFFFFF;}
	.st3{fill:#54B852;}
	.st4{fill:#4AB5D5;}
	.st5{fill:#F05C5A;}
	.st6{opacity:0.14;}
</style>
<g>
	<path class="st0" d="M142,106c0,4.4-3.6,8-8,8H22c-4.4,0-8-3.6-8-8V-6c0-4.4,3.6-8,8-8h112c4.4,0,8,3.6,8,8V106z"/>
	<g class="st1">
		<rect x="14" y="90" class="st2" width="128" height="4"/>
		<rect x="14" y="62" class="st2" width="128" height="4"/>
		<rect x="14" y="34" class="st2" width="128" height="4"/>
		<rect x="14" y="6" class="st2" width="128" height="4"/>
	</g>
	<path class="st3" d="M90,22c0-2.2-1.8-4-4-4H70c-2.2,0-4,1.8-4,4v92h24V22z"/>
	<path class="st4" d="M122,46c0-2.2-1.8-4-4-4h-16c-2.2,0-4,1.8-4,4v68h24V46z"/>
	<path class="st5" d="M58,70c0-2.2-1.8-4-4-4H38c-2.2,0-4,1.8-4,4v44h24V70z"/>
	<g class="st6">
		<rect x="34" y="106" width="24" height="8"/>
		<rect x="98" y="106" width="24" height="8"/>
	</g>
	<rect x="66" y="106" class="st1" width="24" height="8"/>
</g>
</svg>
