<?xml version="1.0" encoding="utf-8"?>
<!-- Generator: Adobe Illustrator 19.1.0, SVG Export Plug-In . SVG Version: 6.00 Build 0)  -->
<!DOCTYPE svg PUBLIC "-//W3C//DTD SVG 1.1//EN" "http://www.w3.org/Graphics/SVG/1.1/DTD/svg11.dtd">
<svg version="1.1" id="Layer_1" xmlns="http://www.w3.org/2000/svg" xmlns:xlink="http://www.w3.org/1999/xlink" x="0px" y="0px"
	 viewBox="0 0 32 32" style="enable-background:new 0 0 32 32;" xml:space="preserve">
<style type="text/css">
	.st0{fill:#364A5E;}
	.st1{fill:#EFEEEE;}
	.st2{opacity:0.2;}
	.st3{fill:#010101;}
	.st4{fill:#E64D3C;}
	.st5{fill:#169BD1;}
	.st6{opacity:0.3;fill:#EFEEEE;}
	.st7{opacity:0.3;fill:#010101;}
</style>
<g>
	<path class="st0" d="M28,0H5H2C0.9,0,0,0.9,0,2v2v25.5C0,31.2,0.8,32,2.5,32C4.2,32,5,31.2,5,29.5V6h23c1.1,0,2-0.9,2-2V2
		C30,0.9,29.1,0,28,0z"/>
	<path class="st1" d="M32,30c0,1.1-0.9,2-2,2c0,0-28.5,0-27.5,0c2,0,2.5-1.3,2.5-2.5C5,27.5,5,5,5,5c0-1.1,0.9-2,2-2h23
		c1.1,0,2,0.9,2,2V30z"/>
	<g class="st2">
		<rect x="19" y="19" class="st3" width="9" height="1"/>
		<rect x="19" y="22" class="st3" width="9" height="1"/>
	</g>
	<g class="st2">
		<rect x="9" y="25" class="st3" width="19" height="1"/>
		<rect x="9" y="28" class="st3" width="19" height="1"/>
	</g>
	<g>
		<rect x="9" y="6" class="st4" width="19" height="2"/>
	</g>
	<g class="st2">
		<rect x="9" y="10" class="st3" width="8" height="1"/>
		<rect x="9" y="13" class="st3" width="8" height="1"/>
		<rect x="9" y="16" class="st3" width="8" height="1"/>
		<rect x="9" y="19" class="st3" width="8" height="1"/>
		<rect x="9" y="22" class="st3" width="8" height="1"/>
	</g>
	<rect x="19" y="10" class="st5" width="9" height="7"/>
	<path class="st6" d="M28,1H2C1.4,1,1,1.4,1,2c0,0,0,27.3,0,27.5C1,30.3,1.7,31,2.5,31C3.3,31,4,30.3,4,29.5c0-0.2,0-26,0-26
		C4,3.2,3.8,3,3.5,3C3.2,3,3,3.2,3,3.5v24v2C3,29.8,2.8,30,2.5,30C2.2,30,2,29.8,2,29.5V2h26v1h1V2C29,1.4,28.6,1,28,1z"/>
	<path class="st7" d="M0,11v18.5C0,31.2,0.8,32,2.5,32C4.2,32,5,31.2,5,29.5V6L0,11z"/>
</g>
</svg>
