<?xml version="1.0" encoding="utf-8"?>
<!-- Generator: Adobe Illustrator 19.1.0, SVG Export Plug-In . SVG Version: 6.00 Build 0)  -->
<!DOCTYPE svg PUBLIC "-//W3C//DTD SVG 1.1//EN" "http://www.w3.org/Graphics/SVG/1.1/DTD/svg11.dtd">
<svg version="1.1" id="Layer_1" xmlns="http://www.w3.org/2000/svg" xmlns:xlink="http://www.w3.org/1999/xlink" x="0px" y="0px"
	 viewBox="14 -14 128 128" style="enable-background:new 14 -14 128 128;" xml:space="preserve">
<style type="text/css">
	.st0{fill:#F7D71C;}
	.st1{opacity:0.1;}
	.st2{fill:#34495E;}
	.st3{fill:#00AD8B;}
</style>
<g>
	<path class="st0" d="M118,103c0,2.2-1.8,5-4,5H18c-2.2,0-3-2.8-3-5V91c0-2.2,0.8-3,3-3h96c2.2,0,4,0.8,4,3V103z"/>
	<g class="st1">
		<path d="M114,88H18c-2.2,0-4,0-4,4h104C118,88,116.2,88,114,88z"/>
		<path d="M18,108h96c2.2,0,4-2,4-4H14C14,106,15.8,108,18,108z"/>
	</g>
	<path class="st0" d="M118,79c0,2.2-1.8,5-4,5H18c-2.2,0-3-2.8-3-5V67c0-2.2,0.8-2,3-2h96c2.2,0,4-0.2,4,2V79z"/>
	<g class="st1">
		<path d="M114,65H18c-2.2,0-4,0-4,3h104C118,65,116.2,65,114,65z"/>
		<path d="M18,84h96c2.2,0,4-1,4-3H14C14,83,15.8,84,18,84z"/>
	</g>
	<path class="st0" d="M118,55c0,2.2-1.8,6-4,6H18c-2.2,0-3-3.8-3-6V43c0-2.2,0.8-4,3-4h96c2.2,0,4,1.8,4,4V55z"/>
	<g class="st1">
		<path d="M114,39H18c-2.2,0-4,0-4,6h104C118,39,116.2,39,114,39z"/>
		<path d="M18,61h96c2.2,0,4-4,4-6H14C14,57,15.8,61,18,61z"/>
	</g>
	<path class="st0" d="M118,31c0,2.2-1.8,5-4,5H18c-2.2,0-3-2.8-3-5V19c0-2.2,0.8-3,3-3h96c2.2,0,4,0.8,4,3V31z"/>
	<g class="st1">
		<path d="M114,16H18c-2.2,0-4,0-4,3h104C118,16,116.2,16,114,16z"/>
		<path d="M18,36h96c2.2,0,4-2,4-4H14C14,34,15.8,36,18,36z"/>
	</g>
	<path class="st0" d="M118,7c0,2.2-1.8,5-4,5H18c-2.2,0-3-2.8-3-5V-5c0-2.2,0.8-3,3-3h96c2.2,0,4,0.8,4,3V7z"/>
	<g class="st1">
		<path d="M114-8H18c-2.2,0-4,0-4,4h104C118-8,116.2-8,114-8z"/>
		<path d="M18,12h96c2.2,0,4-2,4-4H14C14,10,15.8,12,18,12z"/>
	</g>
	<g>
		<g>
			<path class="st1" d="M18,84h48h5.3L59.1,65H18c0,0-3-2-3,2v12C15,83,18,84,18,84z"/>
			<path class="st1" d="M73.8,88H66H18c0,0-3-1-3,3v12c0,4,3,5,3,5h68L73.8,88z"/>
		</g>
		<polygon class="st1" points="44.4,39 38,39 18,61 56.7,61 		"/>
	</g>
	<circle class="st0" cx="90" cy="55" r="52"/>
	<path class="st2" d="M90,3C61.3,3,38,26.3,38,55s23.3,52,52,52c28.7,0,52-23.3,52-52S118.7,3,90,3z M90,99c-24.3,0-44-19.7-44-44
		s19.7-44,44-44c24.3,0,44,19.7,44,44S114.3,99,90,99z"/>
	<path class="st3" d="M90,51c-4.4,0-8-3.6-8-8s3.6-7,8-7c4.4,0,8,1,8,9h8c0-9-4-15.6-12-17.4V25h-9v2.6c-5,1.8-11.5,8-11.5,15.4
		c0,8.8,7.4,16,16.3,16c4.4,0,8.1,3.6,8.1,8s-3.5,8.5-7.9,8.5C85.5,75.5,82,72,82,68h-8c0,6,6,12.6,11,14.4V88h9v-5.6
		c8-1.8,12-8,12-15.4C106,58.2,98.8,51,90,51z"/>
	<g class="st1">
		<path d="M90,107c14.4,0,27.4-5.8,36.8-15.2L53.2,18.2C43.8,27.6,38,40.6,38,55C38,83.7,61.3,107,90,107z"/>
	</g>
</g>
</svg>
