<?xml version="1.0" encoding="utf-8"?>
<!-- Generator: Adobe Illustrator 19.1.0, SVG Export Plug-In . SVG Version: 6.00 Build 0)  -->
<!DOCTYPE svg PUBLIC "-//W3C//DTD SVG 1.1//EN" "http://www.w3.org/Graphics/SVG/1.1/DTD/svg11.dtd">
<svg version="1.1" id="Layer_1" xmlns="http://www.w3.org/2000/svg" xmlns:xlink="http://www.w3.org/1999/xlink" x="0px" y="0px"
	 viewBox="14 -14 128 128" style="enable-background:new 14 -14 128 128;" xml:space="preserve">
<style type="text/css">
	.st0{fill:#EEEEEE;}
	.st1{fill:#A5D6A7;}
	.st2{opacity:0.1;}
	.st3{fill:#4CAF50;}
	.st4{opacity:0.1;enable-background:new    ;}
	.st5{fill:#2E7D32;}
</style>
<g>
	<path class="st0" d="M142,106c0,4.4-3.6,8-8,8H22c-4.4,0-8-3.6-8-8V-6c0-4.4,3.6-8,8-8h112c4.4,0,8,3.6,8,8V106z"/>
	<path class="st1" d="M14,70l28-28l24,24l44-44l32,32v52c0,0,0,8-8,8s-112,0-112,0s-8,0-8-8S14,70,14,70z"/>
	<g class="st2">
		<rect x="118" y="-14" width="4" height="128"/>
		<rect x="90" y="-14" width="4" height="128"/>
		<rect x="62" y="-14" width="4" height="128"/>
		<rect x="34" y="-14" width="4" height="128"/>
	</g>
	<path class="st3" d="M110,22L66,66L42,42L14,70c0,0,0,5.3,0,12l28-28l24,24l44-44l32,32V54L110,22z"/>
	<path class="st4" d="M101.5,21.5l-12,12C87.3,35.7,86,38.7,86,42c0,6.6,5.4,12,12,12c3.3,0,6.3-1.3,8.5-3.5l12-12L101.5,21.5z"/>
	<circle class="st5" cx="110" cy="30" r="12"/>
</g>
</svg>
