<?xml version="1.0" encoding="utf-8"?>
<!-- Generator: Adobe Illustrator 19.1.0, SVG Export Plug-In . SVG Version: 6.00 Build 0)  -->
<!DOCTYPE svg PUBLIC "-//W3C//DTD SVG 1.1//EN" "http://www.w3.org/Graphics/SVG/1.1/DTD/svg11.dtd">
<svg version="1.1" xmlns="http://www.w3.org/2000/svg" xmlns:xlink="http://www.w3.org/1999/xlink" x="0px" y="0px"
	 viewBox="0 0 32 32" style="enable-background:new 0 0 32 32;" xml:space="preserve">
<style type="text/css">
	.st0{display:none;}
	.st1{display:inline;}
	.st2{font-family:'GeosansLight';}
	.st3{font-size:9.0417px;}
	.st4{fill:#469FCC;}
	.st5{fill:#EAEAEA;}
	.st6{opacity:0.1;fill:#010101;}
	.st7{fill:#444955;}
	.st8{opacity:0.6;fill:#FFFFFF;}
	.st9{opacity:0.3;fill:#010101;}
</style>
<g id="Layer_2" class="st0">
	<text transform="matrix(1 0 0 1 3.7623 16.3975)" class="st1 st2 st3">DUPE</text>
</g>
<g id="Layer_1">
	<g>
		<path class="st4" d="M13,0C5.8,0,0,5.8,0,13s5.8,13,13,13c7.2,0,13-5.8,13-13S20.2,0,13,0z M13,22c-5,0-9-4-9-9s4-9,9-9
			c5,0,9,4,9,9S18,22,13,22z"/>
		<circle class="st5" cx="13" cy="13" r="9"/>
		<path class="st6" d="M13,5c3.4,0,6.4,1.7,8.2,4.3C19.8,6.2,16.6,4,13,4C9.4,4,6.2,6.2,4.8,9.3C6.6,6.7,9.6,5,13,5z"/>
		<path class="st7" d="M31.7,27.5l-7.7-7.7c-1.1,1.7-2.5,3.2-4.2,4.2l7.7,7.7c0.4,0.4,1,0.4,1.4,0l2.8-2.8
			C32.1,28.5,32.1,27.9,31.7,27.5z"/>
		<path class="st8" d="M13,18c-2.8,0-5-2.2-5-5c0-0.6-0.4-1-1-1c-0.6,0-1,0.4-1,1c0,3.9,3.1,7,7,7c0.6,0,1-0.4,1-1S13.6,18,13,18z"
			/>
		<path class="st9" d="M24.1,19.8c-1.1,1.7-2.5,3.2-4.2,4.2l0.7,0.7c1.7-1.1,3.2-2.5,4.2-4.2L24.1,19.8z"/>
	</g>
</g>
</svg>
