<?xml version="1.0" encoding="utf-8"?>
<!-- Generator: Adobe Illustrator 19.1.0, SVG Export Plug-In . SVG Version: 6.00 Build 0)  -->
<!DOCTYPE svg PUBLIC "-//W3C//DTD SVG 1.1//EN" "http://www.w3.org/Graphics/SVG/1.1/DTD/svg11.dtd">
<svg version="1.1" id="Layer_1" xmlns="http://www.w3.org/2000/svg" xmlns:xlink="http://www.w3.org/1999/xlink" x="0px" y="0px"
	 viewBox="0 0 128 128" style="enable-background:new 0 0 128 128;" xml:space="preserve">
<style type="text/css">
	.st0{fill:#F04F4E;}
	.st1{opacity:0.2;fill:#010101;}
	.st2{fill:#EACA43;}
	.st3{opacity:0.2;}
	.st4{fill:#010101;}
</style>
<g>
	<path class="st0" d="M128,120c0,4.4-3.6,8-8,8H8c-4.4,0-8-3.6-8-8V8c0-4.4,3.6-8,8-8h112c4.4,0,8,3.6,8,8V120z"/>
	<path class="st1" d="M120,96H8c-4.4,0-8-3.6-8-8v32c0,4.4,3.6,8,8,8h112c4.4,0,8-3.6,8-8V88C128,92.4,124.4,96,120,96z"/>
	<path class="st1" d="M80,28c3,0,5.8,1.2,7.9,3c-0.5-4-3.8-7-7.9-7c-4.1,0-7.4,3.1-7.9,7C74.2,29.2,77,28,80,28z"/>
	<path class="st1" d="M47.9,28c3,0,5.8,1.2,7.9,3c-0.5-4-3.8-7-7.9-7s-7.4,3.1-7.9,7C42.1,29.2,44.9,28,47.9,28z"/>
	<path class="st1" d="M48,56L48,56C48,56,47.9,56,48,56c-4.2,0-7.5,3.1-8,7c2.1-1.9,4.9-3,7.9-3c0,0,0.1,0,0.1,0v0h8v-4H48z"/>
	<path class="st1" d="M80,56L80,56C80,56,80.1,56,80,56c4.2,0,7.5,3.1,8,7c-2.1-1.9-4.9-3-7.9-3c0,0-0.1,0-0.1,0v0h-8v-4H80z"/>
	<rect x="100" y="56" class="st1" width="28" height="4"/>
	<rect y="56" class="st1" width="28" height="4"/>
	<path class="st2" d="M128,40h-25.4c0.9-2.5,1.4-5.2,1.4-8c0-13.3-10.7-24-24-24c-2.8,0-5.5,0.5-8,1.4V0H56v9.4
		C53.5,8.5,50.8,8,48,8C34.7,8,24,18.7,24,32c0,2.8,0.5,5.5,1.4,8H0v16h25.4c-0.9,2.5-1.4,5.2-1.4,8c0,13.3,10.7,24,24,24
		c2.8,0,5.5-0.5,8-1.4V128h16V86.6c2.5,0.9,5.2,1.4,8,1.4c13.3,0,24-10.7,24-24c0-2.8-0.5-5.5-1.4-8H128V40z M56,64c0,4.4-3.6,8-8,8
		c-4.4,0-8-3.6-8-8s3.6-8,8-8h8V64z M56,40h-8c-4.4,0-8-3.6-8-8s3.6-8,8-8c4.4,0,8,3.6,8,8V40z M72,32c0-4.4,3.6-8,8-8
		c4.4,0,8,3.6,8,8s-3.6,8-8,8h-8V32z M88,64c0,4.4-3.6,8-8,8c-4.4,0-8-3.6-8-8v-8h8C84.4,56,88,59.6,88,64z"/>
	<path class="st1" d="M56,86.6c-2.5,0.9-5.2,1.4-8,1.4c-12.6,0-22.9-9.7-23.9-22C24,66.7,24,67.3,24,68c0,13.3,10.7,24,24,24
		c2.8,0,5.5-0.5,8-1.4V86.6z"/>
	<path class="st1" d="M72,86.6c2.5,0.9,5.2,1.4,8,1.4c12.6,0,22.9-9.7,23.9-22c0.1,0.7,0.1,1.3,0.1,2c0,13.3-10.7,24-24,24
		c-2.8,0-5.5-0.5-8-1.4V86.6z"/>
	<g class="st3">
		<path class="st4" d="M98,108c-0.9,0-1.8,0.2-2.6,0.6c0.4-0.8,0.6-1.7,0.6-2.6c0-3.3-2.7-6-6-6c-3.3,0-6,2.7-6,6c0,0.9,0,14,0,14
			s13.1,0,14,0c3.3,0,6-2.7,6-6S101.3,108,98,108z"/>
		<path class="st4" d="M34,108c-0.9,0-1.8,0.2-2.6,0.6c0.4-0.8,0.6-1.7,0.6-2.6c0-3.3-2.7-6-6-6c-3.3,0-6,2.7-6,6c0,0.9,0,14,0,14
			s13.1,0,14,0c3.3,0,6-2.7,6-6S37.3,108,34,108z"/>
		<path class="st4" d="M24,82c0-3.3-2.7-6-6-6c-0.9,0-1.8,0.2-2.6,0.6c0.4-0.8,0.6-1.7,0.6-2.6c0-3.3-2.7-6-6-6c-3.3,0-6,2.7-6,6
			c0,0.9,0,14,0,14s13.1,0,14,0C21.3,88,24,85.3,24,82z"/>
		<path class="st4" d="M72,9.4c2.4-0.8,5-1.3,7.6-1.4c-0.8-2.3-3-4-5.6-4c-0.7,0-1.4,0.1-2,0.4V9.4z"/>
		<path class="st4" d="M24,18c0-3.3-2.7-6-6-6c-0.9,0-1.8,0.2-2.6,0.6c0.4-0.8,0.6-1.7,0.6-2.6c0-3.3-2.7-6-6-6c-3.3,0-6,2.7-6,6
			c0,0.9,0,14,0,14s13.1,0,14,0C21.3,24,24,21.3,24,18z"/>
		<path class="st4" d="M127.6,40c-0.8-2.3-3-4-5.6-4c-2.6,0-4.8,1.7-5.6,4H127.6z"/>
		<path class="st4" d="M56,40v-3.6c-1.7,0.6-3,1.9-3.6,3.6H56z"/>
		<path class="st4" d="M114,76c-0.9,0-1.8,0.2-2.6,0.6c0.4-0.8,0.6-1.7,0.6-2.6c0-3.3-2.7-6-6-6c-0.9,0-1.7,0.2-2.4,0.5
			c-0.6,3.2-1.8,6.1-3.6,8.7c0,4.2,0,10.7,0,10.7s13.1,0,14,0c3.3,0,6-2.7,6-6S117.3,76,114,76z"/>
		<path class="st4" d="M128,108.4c-0.2,0.1-0.4,0.1-0.6,0.2c0.4-0.8,0.6-1.7,0.6-2.6c0-3.3-2.7-6-6-6c-3.3,0-6,2.7-6,6
			c0,0.9,0,14,0,14s8.1,0,12,0V108.4z"/>
		<path class="st4" d="M56,100.4c-2.3,0.8-4,3-4,5.6c0,0.9,0,14,0,14s1.7,0,4,0V100.4z"/>
		<path class="st4" d="M2,108c-0.7,0-1.4,0.2-2,0.4V120c1,0,1.8,0,2,0c3.3,0,6-2.7,6-6S5.3,108,2,108z"/>
		<path class="st4" d="M102.6,24c3.9,0,10.7,0,11.4,0c3.3,0,6-2.7,6-6s-2.7-6-6-6c-0.9,0-1.8,0.2-2.6,0.6c0.4-0.8,0.6-1.7,0.6-2.6
			c0-3.3-2.7-6-6-6c-3.3,0-6,2.7-6,6c0,0.5,0,5,0,8.7C101.1,20.4,101.9,22.1,102.6,24z"/>
		<path class="st4" d="M47.6,8c-0.8-2.3-3-4-5.6-4c-3.3,0-6,2.7-6,6c0,0.1,0,0.6,0,1.2C39.4,9.2,43.4,8.1,47.6,8z"/>
		<path class="st4" d="M25.4,40c-0.4-1.2-0.8-2.5-1-3.8c-1.9,0.5-3.4,1.9-4,3.8H25.4z"/>
		<g>
			<path class="st4" d="M72,88c2.6,0,5.9,0,8,0c-2.8,0-5.5-0.5-8-1.4V88z"/>
			<path class="st4" d="M79.6,72c-0.8-2.3-3-4-5.6-4c-0.3,0-0.6,0-0.8,0.1C74.5,70.3,76.9,71.8,79.6,72z"/>
			<path class="st4" d="M80,88c1,0,1.8,0,2,0c0.7,0,1.3-0.1,1.9-0.4C82.7,87.9,81.3,88,80,88z"/>
		</g>
		<g>
			<path class="st4" d="M47.6,72c-0.8-2.3-3-4-5.6-4c-0.3,0-0.6,0-0.8,0.1C42.5,70.3,44.9,71.8,47.6,72z"/>
			<path class="st4" d="M48,88c1,0,1.8,0,2,0c0.7,0,1.3-0.1,1.9-0.3C50.7,87.9,49.3,88,48,88z"/>
			<path class="st4" d="M36,88c0,0,8.1,0,12,0c-4.4,0-8.5-1.2-12-3.2C36,86.6,36,88,36,88z"/>
		</g>
	</g>
</g>
</svg>
